<svg width="1440" height="158" viewBox="0 0 1440 158" fill="none" xmlns="http://www.w3.org/2000/svg">
<rect x="-23.2991" y="77.5513" width="1484.45" height="80" transform="rotate(-2.97313 -23.2991 77.5513)" fill="#056AF9"/>
<path d="M-157.112 135.165L-155.742 128.846L-161.542 129.147L-160.772 125.47L-154.972 125.169L-154.176 121.362L-159.976 121.663L-159.173 118.001L-153.389 117.7L-152.138 111.868L-148.383 111.673L-149.65 117.506L-145.719 117.302L-144.468 111.469L-140.713 111.274L-141.981 117.108L-136.18 116.807L-136.967 120.468L-142.752 120.769L-143.579 124.577L-137.779 124.276L-138.565 127.953L-144.35 128.254L-145.688 134.572L-149.443 134.767L-148.105 128.449L-152.019 128.652L-153.357 134.97L-157.112 135.165ZM-151.217 124.974L-147.318 124.771L-146.507 120.964L-150.421 121.167L-151.217 124.974ZM-132.124 133.899L-133.319 110.89L-124.195 110.416C-122.64 110.336 -121.351 110.584 -120.327 111.161C-119.294 111.727 -118.512 112.482 -117.983 113.426C-117.442 114.37 -117.145 115.359 -117.092 116.392C-117.026 117.66 -117.274 118.751 -117.835 119.667C-118.385 120.582 -119.169 121.221 -120.187 121.584L-120.228 120.785C-118.762 121.04 -117.629 121.67 -116.829 122.675C-116.019 123.68 -115.579 124.848 -115.51 126.179C-115.439 127.543 -115.638 128.749 -116.107 129.799C-116.576 130.849 -117.312 131.688 -118.315 132.317C-119.308 132.945 -120.561 133.299 -122.073 133.377L-132.124 133.899ZM-128.413 130.07L-122.741 129.775C-122.07 129.74 -121.475 129.576 -120.956 129.282C-120.438 128.977 -120.043 128.572 -119.77 128.067C-119.487 127.55 -119.363 126.951 -119.398 126.269C-119.431 125.651 -119.592 125.104 -119.884 124.628C-120.176 124.152 -120.585 123.783 -121.111 123.522C-121.638 123.25 -122.258 123.133 -122.972 123.17L-128.756 123.471L-128.413 130.07ZM-128.943 119.875L-123.766 119.607C-123.212 119.578 -122.722 119.446 -122.297 119.21C-121.871 118.974 -121.541 118.642 -121.307 118.213C-121.073 117.784 -120.972 117.266 -121.003 116.659C-121.045 115.86 -121.335 115.208 -121.874 114.702C-122.413 114.196 -123.14 113.967 -124.056 114.014L-129.233 114.283L-128.943 119.875ZM-106.465 133.063C-107.743 133.13 -108.809 132.971 -109.662 132.588C-110.515 132.206 -111.204 131.697 -111.728 131.062C-112.252 130.427 -112.651 129.742 -112.924 129.009C-113.197 128.275 -113.388 127.58 -113.497 126.924C-113.596 126.256 -113.656 125.714 -113.678 125.299L-114.178 115.664L-110.279 115.461L-109.848 123.77C-109.82 124.303 -109.752 124.903 -109.642 125.57C-109.533 126.227 -109.33 126.857 -109.031 127.461C-108.723 128.054 -108.292 128.533 -107.739 128.9C-107.175 129.266 -106.435 129.425 -105.519 129.377C-105.029 129.352 -104.549 129.247 -104.077 129.062C-103.606 128.877 -103.189 128.583 -102.826 128.18C-102.452 127.765 -102.166 127.211 -101.967 126.517C-101.768 125.823 -101.695 124.954 -101.75 123.91L-99.414 124.766C-99.3377 126.236 -99.5561 127.583 -100.069 128.806C-100.572 130.028 -101.359 131.025 -102.429 131.796C-103.501 132.557 -104.846 132.979 -106.465 133.063ZM-100.85 132.275L-101.128 126.922L-101.592 126.946L-102.21 115.042L-98.3433 114.842L-97.4471 132.098L-100.85 132.275ZM-94.6693 112.023L-94.8527 108.492L-91.0019 108.292L-90.8185 111.823L-94.6693 112.023ZM-93.637 131.9L-94.5332 114.644L-90.6824 114.444L-89.7861 131.7L-93.637 131.9ZM-85.6789 131.487L-86.8989 107.999L-83.0481 107.799L-81.8281 131.287L-85.6789 131.487ZM-71.0969 131.21C-72.6841 131.293 -74.0897 130.965 -75.3136 130.228C-76.5375 129.49 -77.51 128.451 -78.2311 127.111C-78.9523 125.77 -79.3577 124.237 -79.4473 122.512C-79.5381 120.765 -79.2939 119.193 -78.715 117.795C-78.1259 116.387 -77.25 115.257 -76.0872 114.407C-74.925 113.545 -73.529 113.072 -71.8992 112.987C-70.2587 112.902 -68.8638 113.23 -67.7145 113.972C-66.5551 114.702 -65.652 115.739 -65.0054 117.083C-64.3588 118.428 -63.9905 119.968 -63.9003 121.704C-63.8112 123.419 -64.0183 124.984 -64.5216 126.399C-65.0255 127.803 -65.8266 128.934 -66.9249 129.792C-68.0232 130.65 -69.4138 131.123 -71.0969 131.21ZM-70.685 127.728C-69.6517 127.675 -68.833 127.397 -68.2288 126.896C-67.6146 126.383 -67.1858 125.693 -66.9424 124.826C-66.6884 123.959 -66.5905 122.966 -66.6486 121.847C-66.7072 120.718 -66.9075 119.74 -67.2495 118.914C-67.5814 118.077 -68.0684 117.44 -68.7106 117.003C-69.3533 116.556 -70.1647 116.358 -71.1447 116.409C-72.178 116.463 -73.0169 116.762 -73.6614 117.309C-74.3065 117.844 -74.7664 118.552 -75.0412 119.431C-75.3165 120.3 -75.427 121.256 -75.3728 122.3C-75.318 123.355 -75.1138 124.305 -74.7601 125.152C-74.3962 125.988 -73.8764 126.639 -73.2006 127.106C-72.5248 127.573 -71.6863 127.78 -70.685 127.728ZM-66.2004 130.475L-66.8295 118.364L-67.3088 118.389L-67.8748 107.491L-63.9921 107.29L-62.797 130.299L-66.2004 130.475ZM-54.4583 129.866L-62.3802 107.206L-58.3377 106.996L-52.8888 123.375L-49.1804 106.552L-45.1395 106.31L-39.6906 122.69L-35.9838 105.835L-31.9413 105.625L-37.4572 128.983L-41.2601 129.18L-46.8235 113.063L-50.6554 129.668L-54.4583 129.866ZM-30.4746 108.689L-30.658 105.158L-26.8072 104.958L-26.6238 108.489L-30.4746 108.689ZM-29.4422 128.566L-30.3385 111.31L-26.4877 111.11L-25.5914 128.366L-29.4422 128.566ZM-11.6894 127.644C-12.8181 127.916 -13.9319 128.065 -15.0308 128.09C-16.1184 128.125 -17.1033 127.979 -17.9855 127.651C-18.8683 127.312 -19.5547 126.744 -20.0447 125.947C-20.4775 125.222 -20.7248 124.471 -20.7865 123.695C-20.8482 122.918 -20.9045 122.04 -20.9554 121.06L-21.7347 106.056L-17.8998 105.857L-17.1322 120.637C-17.0962 121.329 -17.0594 121.936 -17.0216 122.458C-16.9732 122.979 -16.8392 123.399 -16.6197 123.719C-16.203 124.338 -15.5719 124.663 -14.7265 124.694C-13.8811 124.725 -12.9246 124.632 -11.857 124.417L-11.6894 127.644ZM-24.4606 114.032L-24.6175 111.012L-12.5857 110.387L-12.4288 113.407L-24.4606 114.032ZM2.95859 126.883L2.52706 118.575C2.49884 118.031 2.4303 117.431 2.32143 116.775C2.21256 116.118 2.00388 115.494 1.69538 114.901C1.39699 114.297 0.96592 113.812 0.402182 113.446C-0.150904 113.079 -0.885496 112.92 -1.80159 112.968C-2.2916 112.993 -2.77213 113.098 -3.24319 113.283C-3.71424 113.467 -4.1366 113.767 -4.51027 114.182C-4.87383 114.585 -5.15509 115.134 -5.35403 115.828C-5.55352 116.511 -5.62589 117.38 -5.57111 118.434L-7.90666 117.578C-7.98301 116.108 -7.76988 114.762 -7.26727 113.54C-6.75401 112.317 -5.96172 111.325 -4.89039 110.565C-3.81962 109.793 -2.47466 109.366 -0.855507 109.282C0.42277 109.215 1.48841 109.373 2.34142 109.756C3.19443 110.139 3.88309 110.648 4.4074 111.283C4.93171 111.918 5.3304 112.603 5.60348 113.336C5.87656 114.07 6.06248 114.77 6.16125 115.438C6.27012 116.094 6.33534 116.63 6.35692 117.046L6.85734 126.681L2.95859 126.883ZM-9.00927 127.505L-10.2043 104.496L-6.76894 104.318L-6.13988 116.429L-5.67651 116.405L-5.11053 127.303L-9.00927 127.505ZM10.0283 126.516L8.83328 103.507L18.3405 103.013C18.5642 103.002 18.8523 102.998 19.205 103.001C19.557 102.993 19.8836 103.008 20.1846 103.046C21.5267 103.179 22.6468 103.564 23.5451 104.201C24.454 104.838 25.1433 105.667 25.6129 106.689C26.0927 107.7 26.3655 108.84 26.4313 110.107C26.5287 111.982 26.1385 113.621 25.2607 115.023C24.3823 116.414 22.9714 117.321 21.028 117.742L19.3897 117.971L13.4617 118.279L13.8791 126.316L10.0283 126.516ZM23.2425 125.83L18.2183 116.702L22.0882 115.636L27.6046 125.603L23.2425 125.83ZM13.275 114.684L18.7716 114.398C18.9846 114.387 19.2237 114.364 19.4889 114.329C19.7541 114.294 19.9969 114.239 20.2173 114.163C20.8481 113.97 21.3341 113.662 21.6753 113.238C22.0271 112.814 22.2643 112.343 22.3869 111.823C22.5201 111.304 22.574 110.799 22.5485 110.309C22.5231 109.819 22.4172 109.323 22.2309 108.82C22.0546 108.305 21.7696 107.855 21.3757 107.47C20.9925 107.084 20.4772 106.828 19.8297 106.701C19.6027 106.649 19.3558 106.624 19.0889 106.628C18.8215 106.62 18.5813 106.622 18.3682 106.633L12.8716 106.918L13.275 114.684ZM37.9965 125.544C36.2496 125.635 34.696 125.337 33.3358 124.649C31.9757 123.961 30.8879 122.966 30.0725 121.662C29.2678 120.358 28.8201 118.833 28.7293 117.086C28.6314 115.2 28.9087 113.546 29.5611 112.124C30.213 110.691 31.1635 109.557 32.4126 108.723C33.6617 107.889 35.1331 107.428 36.8268 107.34C38.6164 107.248 40.1562 107.589 41.4462 108.366C42.7463 109.132 43.7395 110.261 44.4258 111.752C45.1121 113.244 45.4344 115.027 45.3926 117.101L41.5737 117.3L41.5007 115.894C41.3927 114.019 40.9914 112.668 40.2968 111.839C39.6022 111.009 38.5571 110.631 37.1617 110.704C35.5851 110.786 34.4388 111.336 33.7228 112.356C33.0061 113.365 32.6965 114.807 32.7939 116.682C32.8846 118.429 33.3384 119.762 34.1551 120.681C34.9719 121.6 36.1153 122.021 37.5853 121.945C38.5334 121.896 39.3375 121.646 39.9976 121.195C40.6679 120.733 41.1687 120.092 41.5 119.274L45.3627 120.227C44.783 121.817 43.8232 123.079 42.4832 124.014C41.1539 124.948 39.6583 125.458 37.9965 125.544ZM31.6351 117.816L31.4841 114.908L43.3561 114.291L43.5071 117.199L31.6351 117.816ZM52.3932 124.316L45.2334 107.384L49.0842 107.184L54.0801 119.47L57.7605 106.734L61.6273 106.533L56.26 124.115L52.3932 124.316ZM63.6797 103.799L63.4963 100.268L67.3471 100.068L67.5305 103.599L63.6797 103.799ZM64.7121 123.676L63.8158 106.419L67.6666 106.219L68.5629 123.476L64.7121 123.676ZM79.0385 123.413C76.908 123.523 75.1521 123.134 73.7708 122.244C72.3895 121.355 71.5099 120.049 71.1321 118.328L75.0313 117.517C75.2779 118.358 75.7602 119.006 76.478 119.46C77.1959 119.914 78.0821 120.114 79.1367 120.059C80.0634 120.011 80.7677 119.793 81.2496 119.405C81.7415 119.005 81.9709 118.486 81.9377 117.847C81.9172 117.453 81.805 117.143 81.6011 116.919C81.4073 116.683 80.9903 116.47 80.3502 116.279C79.7101 116.088 78.7314 115.856 77.4142 115.582C75.9455 115.274 74.7738 114.924 73.8989 114.531C73.0235 114.128 72.3836 113.633 71.9792 113.045C71.5749 112.457 71.3503 111.732 71.3055 110.869C71.2496 109.793 71.4832 108.841 72.0063 108.013C72.5293 107.184 73.2858 106.531 74.2756 106.052C75.2649 105.563 76.4466 105.283 77.8208 105.211C79.163 105.142 80.3615 105.288 81.4163 105.649C82.4818 106.011 83.3541 106.558 84.0331 107.292C84.712 108.026 85.1529 108.905 85.3557 109.931L81.4615 110.838C81.3275 110.108 80.9618 109.545 80.3644 109.149C79.7777 108.752 79.009 108.552 78.0581 108.548C77.1499 108.541 76.4274 108.718 75.8907 109.077C75.3533 109.425 75.0999 109.892 75.1303 110.478C75.1475 110.808 75.274 111.085 75.5099 111.307C75.7457 111.53 76.2053 111.741 76.8886 111.941C77.5825 112.14 78.6094 112.375 79.9693 112.646C81.3617 112.926 82.4799 113.274 83.3239 113.689C84.178 114.094 84.8025 114.601 85.1973 115.21C85.6028 115.819 85.8288 116.571 85.8752 117.466C85.9654 119.202 85.4024 120.599 84.1863 121.655C82.9807 122.711 81.2648 123.297 79.0385 123.413ZM96.5114 122.505C94.7644 122.596 93.2109 122.297 91.8507 121.61C90.4905 120.922 89.4028 119.926 88.5874 118.623C87.7827 117.319 87.335 115.793 87.2442 114.046C87.1463 112.161 87.4235 110.507 88.076 109.085C88.7279 107.652 89.6783 106.518 90.9274 105.684C92.1765 104.85 93.6479 104.389 95.3417 104.301C97.1313 104.208 98.6711 104.55 99.9611 105.327C101.261 106.093 102.254 107.221 102.941 108.713C103.627 110.205 103.949 111.988 103.907 114.062L100.089 114.261L100.016 112.854C99.9076 110.98 99.5062 109.629 98.8116 108.799C98.117 107.97 97.072 107.592 95.6766 107.665C94.1 107.746 92.9537 108.297 92.2376 109.317C91.521 110.326 91.2114 111.768 91.3088 113.643C91.3995 115.39 91.8532 116.723 92.67 117.642C93.4868 118.561 94.6302 118.982 96.1002 118.906C97.0482 118.856 97.8523 118.606 98.5125 118.156C99.1828 117.693 99.6836 117.053 100.015 116.235L103.878 117.188C103.298 118.777 102.338 120.04 100.998 120.974C99.6687 121.909 98.1732 122.419 96.5114 122.505ZM90.15 114.777L89.999 111.869L101.871 111.252L102.022 114.16L90.15 114.777Z" fill="#F3F2F2"/>
<path d="M148.796 106.792C141.626 107.165 136.115 113.279 136.488 120.449C136.115 113.279 130.001 107.768 122.831 108.141C130.001 107.768 135.511 101.654 135.139 94.4839C135.511 101.654 141.626 107.165 148.796 106.792Z" fill="#F3F2F2"/>
<path d="M172.443 118.049L173.814 111.729L168.013 112.03L168.784 108.354L174.584 108.052L175.38 104.246L169.579 104.547L170.382 100.885L176.167 100.584L177.418 94.7514L181.173 94.5564L179.906 100.39L183.836 100.186L185.087 94.353L188.842 94.158L187.575 99.9916L193.375 99.6903L192.588 103.352L186.804 103.653L185.977 107.461L191.777 107.159L190.99 110.837L185.206 111.137L183.868 117.455L180.113 117.65L181.451 111.333L177.537 111.536L176.198 117.854L172.443 118.049ZM178.339 107.857L182.238 107.655L183.049 103.848L179.134 104.051L178.339 107.857ZM197.432 116.783L196.237 93.774L205.361 93.3001C206.916 93.2193 208.205 93.4675 209.228 94.0445C210.262 94.6103 211.043 95.3655 211.573 96.3099C212.113 97.2538 212.41 98.2424 212.464 99.2757C212.53 100.543 212.282 101.635 211.721 102.551C211.17 103.466 210.386 104.105 209.369 104.467L209.328 103.668C210.794 103.923 211.926 104.553 212.726 105.559C213.537 106.563 213.977 107.731 214.046 109.063C214.117 110.426 213.918 111.633 213.449 112.683C212.98 113.732 212.244 114.572 211.24 115.201C210.248 115.829 208.995 116.182 207.482 116.261L197.432 116.783ZM201.142 112.953L206.815 112.659C207.486 112.624 208.081 112.459 208.599 112.166C209.118 111.861 209.513 111.456 209.786 110.95C210.069 110.434 210.193 109.834 210.157 109.153C210.125 108.535 209.963 107.988 209.672 107.512C209.38 107.035 208.971 106.667 208.445 106.406C207.918 106.134 207.297 106.017 206.584 106.054L200.8 106.354L201.142 112.953ZM200.613 102.759L205.79 102.49C206.344 102.461 206.834 102.329 207.259 102.093C207.685 101.858 208.015 101.526 208.249 101.097C208.483 100.668 208.584 100.15 208.553 99.5429C208.511 98.744 208.221 98.0915 207.682 97.5855C207.143 97.0794 206.416 96.8502 205.499 96.8977L200.322 97.1666L200.613 102.759ZM223.091 115.947C221.812 116.013 220.747 115.855 219.894 115.472C219.041 115.089 218.352 114.58 217.828 113.945C217.303 113.31 216.905 112.626 216.632 111.893C216.359 111.159 216.168 110.464 216.059 109.807C215.96 109.14 215.9 108.598 215.878 108.183L215.378 98.5476L219.277 98.3451L219.708 106.654C219.736 107.187 219.804 107.786 219.914 108.454C220.023 109.11 220.226 109.741 220.525 110.345C220.833 110.937 221.264 111.417 221.817 111.783C222.381 112.149 223.121 112.309 224.037 112.261C224.527 112.235 225.007 112.13 225.478 111.946C225.949 111.761 226.367 111.467 226.73 111.064C227.104 110.649 227.39 110.095 227.589 109.401C227.788 108.707 227.86 107.838 227.806 106.794L230.142 107.65C230.218 109.12 230 110.467 229.486 111.69C228.984 112.912 228.197 113.909 227.126 114.68C226.055 115.441 224.71 115.863 223.091 115.947ZM228.705 115.159L228.427 109.806L227.964 109.83L227.346 97.926L231.212 97.7252L232.109 114.982L228.705 115.159ZM234.886 94.9068L234.703 91.3756L238.554 91.1756L238.737 94.7068L234.886 94.9068ZM235.919 114.784L235.023 97.5273L238.873 97.3273L239.77 114.584L235.919 114.784ZM243.877 114.371L242.657 90.8824L246.508 90.6824L247.728 114.171L243.877 114.371ZM258.459 114.094C256.872 114.176 255.466 113.849 254.242 113.111C253.018 112.374 252.046 111.335 251.325 109.995C250.603 108.654 250.198 107.121 250.108 105.395C250.018 103.648 250.262 102.076 250.841 100.679C251.43 99.2706 252.306 98.141 253.469 97.2902C254.631 96.4288 256.027 95.9557 257.657 95.8711C259.297 95.7859 260.692 96.114 261.841 96.8554C263.001 97.5855 263.904 98.6228 264.55 99.967C265.197 101.311 265.565 102.852 265.656 104.588C265.745 106.303 265.537 107.868 265.034 109.282C264.53 110.687 263.729 111.818 262.631 112.676C261.533 113.534 260.142 114.007 258.459 114.094ZM258.871 110.612C259.904 110.558 260.723 110.281 261.327 109.779C261.941 109.267 262.37 108.577 262.613 107.71C262.867 106.842 262.965 105.849 262.907 104.731C262.849 103.602 262.648 102.624 262.306 101.798C261.974 100.961 261.487 100.324 260.845 99.8871C260.202 99.4399 259.391 99.2417 258.411 99.2926C257.378 99.3462 256.539 99.6461 255.894 100.192C255.249 100.728 254.789 101.435 254.515 102.315C254.239 103.184 254.129 104.14 254.183 105.184C254.238 106.238 254.442 107.189 254.796 108.036C255.16 108.871 255.679 109.523 256.355 109.99C257.031 110.457 257.87 110.664 258.871 110.612ZM263.355 113.359L262.726 101.247L262.247 101.272L261.681 90.375L265.564 90.1733L266.759 113.182L263.355 113.359ZM275.098 112.749L267.176 90.0896L271.218 89.8796L276.667 106.259L280.375 89.4361L284.416 89.1941L289.865 105.574L293.572 88.7186L297.615 88.5087L292.099 111.866L288.296 112.064L282.732 95.9466L278.9 112.552L275.098 112.749ZM299.081 91.5727L298.898 88.0415L302.749 87.8415L302.932 91.3727L299.081 91.5727ZM300.114 111.45L299.217 94.1932L303.068 93.9932L303.964 111.25L300.114 111.45ZM317.866 110.528C316.738 110.8 315.624 110.949 314.525 110.974C313.437 111.009 312.452 110.862 311.57 110.534C310.687 110.196 310.001 109.628 309.511 108.831C309.078 108.106 308.831 107.355 308.769 106.578C308.708 105.802 308.651 104.924 308.6 103.944L307.821 88.9399L311.656 88.7407L312.424 103.521C312.46 104.213 312.496 104.82 312.534 105.341C312.583 105.862 312.717 106.283 312.936 106.602C313.353 107.222 313.984 107.547 314.829 107.577C315.675 107.608 316.631 107.516 317.699 107.3L317.866 110.528ZM305.095 96.916L304.938 93.896L316.97 93.2711L317.127 96.2911L305.095 96.916ZM332.514 109.767L332.083 101.458C332.055 100.915 331.986 100.315 331.877 99.6585C331.768 99.002 331.56 98.3773 331.251 97.7845C330.953 97.1805 330.522 96.6955 329.958 96.3296C329.405 95.9631 328.67 95.8037 327.754 95.8513C327.264 95.8767 326.784 95.9818 326.313 96.1665C325.842 96.3512 325.419 96.6508 325.046 97.0654C324.682 97.4688 324.401 98.0175 324.202 98.7114C324.002 99.3946 323.93 100.264 323.985 101.318L321.649 100.462C321.573 98.9921 321.786 97.6459 322.289 96.4235C322.802 95.2006 323.594 94.2088 324.665 93.4482C325.736 92.677 327.081 92.2493 328.7 92.1652C329.979 92.0988 331.044 92.2571 331.897 92.6401C332.75 93.023 333.439 93.532 333.963 94.167C334.487 94.802 334.886 95.4862 335.159 96.2197C335.432 96.9532 335.618 97.6538 335.717 98.3216C335.826 98.9782 335.891 99.5142 335.913 99.9296L336.413 109.565L332.514 109.767ZM320.547 110.389L319.351 87.3797L322.787 87.2013L323.416 99.3129L323.879 99.2889L324.445 110.186L320.547 110.389ZM339.584 109.4L338.389 86.3909L347.896 85.8972C348.12 85.8855 348.408 85.8812 348.761 85.8843C349.113 85.8767 349.439 85.8918 349.74 85.9295C351.082 86.0628 352.203 86.4479 353.101 87.0848C354.01 87.7212 354.699 88.5505 355.169 89.5729C355.648 90.584 355.921 91.7234 355.987 92.991C356.084 94.8659 355.694 96.5043 354.816 97.9064C353.938 99.2978 352.527 100.204 350.584 100.626L348.945 100.855L343.017 101.163L343.435 109.2L339.584 109.4ZM352.798 108.714L347.774 99.5859L351.644 98.5198L357.16 108.487L352.798 108.714ZM342.831 97.5676L348.327 97.2821C348.54 97.2711 348.78 97.248 349.045 97.2128C349.31 97.1777 349.553 97.1223 349.773 97.0468C350.404 96.8538 350.89 96.5455 351.231 96.1219C351.583 95.6978 351.82 95.2262 351.943 94.7071C352.076 94.1875 352.13 93.6827 352.104 93.1927C352.079 92.7027 351.973 92.2062 351.787 91.7032C351.61 91.189 351.325 90.7391 350.931 90.3537C350.548 89.9677 350.033 89.7115 349.386 89.5849C349.159 89.5326 348.912 89.508 348.645 89.5112C348.377 89.5037 348.137 89.5055 347.924 89.5166L342.427 89.8021L342.831 97.5676ZM367.552 108.428C365.805 108.519 364.252 108.22 362.892 107.533C361.531 106.845 360.444 105.849 359.628 104.546C358.824 103.242 358.376 101.716 358.285 99.9692C358.187 98.0838 358.464 96.4299 359.117 95.0074C359.769 93.5744 360.719 92.4409 361.968 91.607C363.217 90.773 364.689 90.3121 366.383 90.2241C368.172 90.1312 369.712 90.4731 371.002 91.2499C372.302 92.0155 373.295 93.1442 373.982 94.6359C374.668 96.1277 374.99 97.9107 374.948 99.985L371.13 100.183L371.056 98.7772C370.948 96.903 370.547 95.5513 369.853 94.7222C369.158 93.8931 368.113 93.5148 366.717 93.5873C365.141 93.6692 363.995 94.22 363.279 95.2399C362.562 96.2491 362.252 97.6911 362.35 99.5659C362.44 101.313 362.894 102.646 363.711 103.565C364.528 104.484 365.671 104.905 367.141 104.828C368.089 104.779 368.893 104.529 369.553 104.078C370.224 103.616 370.724 102.976 371.056 102.158L374.918 103.111C374.339 104.7 373.379 105.962 372.039 106.897C370.71 107.831 369.214 108.342 367.552 108.428ZM361.191 100.7L361.04 97.7914L372.912 97.1748L373.063 100.083L361.191 100.7ZM381.949 107.2L374.789 90.2682L378.64 90.0682L383.636 102.354L387.316 89.6175L391.183 89.4167L385.816 106.999L381.949 107.2ZM393.236 86.6826L393.052 83.1513L396.903 82.9513L397.086 86.4826L393.236 86.6826ZM394.268 106.56L393.372 89.303L397.222 89.103L398.119 106.36L394.268 106.56ZM408.594 106.296C406.464 106.407 404.708 106.018 403.327 105.128C401.945 104.238 401.066 102.933 400.688 101.212L404.587 100.4C404.834 101.242 405.316 101.89 406.034 102.344C406.752 102.798 407.638 102.998 408.692 102.943C409.619 102.895 410.324 102.676 410.805 102.288C411.297 101.889 411.527 101.37 411.493 100.73C411.473 100.336 411.361 100.027 411.157 99.8027C410.963 99.5671 410.546 99.3538 409.906 99.1627C409.266 98.9717 408.287 98.7394 406.97 98.4661C405.501 98.1578 404.33 97.8075 403.455 97.415C402.579 97.0118 401.939 96.5164 401.535 95.9285C401.131 95.3407 400.906 94.6154 400.861 93.7526C400.805 92.6767 401.039 91.7246 401.562 90.8964C402.085 90.0681 402.842 89.4147 403.831 88.936C404.821 88.4467 406.002 88.1664 407.377 88.095C408.719 88.0253 409.917 88.1713 410.972 88.5331C412.038 88.8943 412.91 89.4418 413.589 90.1756C414.268 90.9094 414.709 91.789 414.911 92.8145L411.017 93.7217C410.883 92.9917 410.518 92.4286 409.92 92.0324C409.334 91.6356 408.565 91.4352 407.614 91.4312C406.706 91.425 405.983 91.6013 405.446 91.9603C404.909 92.3087 404.656 92.7758 404.686 93.3616C404.703 93.6919 404.83 93.9683 405.066 94.1911C405.302 94.4138 405.761 94.6249 406.444 94.8244C407.138 95.0234 408.165 95.2584 409.525 95.5296C410.917 95.8097 412.036 96.1575 412.88 96.573C413.734 96.9772 414.358 97.4842 414.753 98.0939C415.159 98.703 415.385 99.4549 415.431 100.35C415.521 102.086 414.958 103.482 413.742 104.539C412.537 105.595 410.821 106.181 408.594 106.296ZM426.067 105.389C424.32 105.48 422.767 105.181 421.406 104.493C420.046 103.806 418.959 102.81 418.143 101.507C417.338 100.203 416.891 98.6771 416.8 96.9301C416.702 95.0447 416.979 93.3907 417.632 91.9683C418.284 90.5352 419.234 89.4017 420.483 88.5678C421.732 87.7339 423.204 87.273 424.897 87.185C426.687 87.0921 428.227 87.434 429.517 88.2108C430.817 88.9764 431.81 90.1051 432.497 91.5968C433.183 93.0886 433.505 94.8716 433.463 96.9459L429.644 97.1442L429.571 95.7381C429.463 93.8639 429.062 92.5122 428.367 91.6831C427.673 90.854 426.628 90.4757 425.232 90.5482C423.656 90.6301 422.509 91.1809 421.793 92.2008C421.077 93.21 420.767 94.652 420.865 96.5268C420.955 98.2737 421.409 99.6067 422.226 100.526C423.043 101.444 424.186 101.866 425.656 101.789C426.604 101.74 427.408 101.49 428.068 101.039C428.739 100.577 429.239 99.937 429.571 99.1187L433.433 100.072C432.854 101.661 431.894 102.923 430.554 103.858C429.225 104.792 427.729 105.303 426.067 105.389ZM419.706 97.6604L419.555 94.7523L431.427 94.1357L431.578 97.0438L419.706 97.6604Z" fill="#F3F2F2"/>
<path d="M478.352 89.6758C471.181 90.0482 465.671 96.1624 466.043 103.333C465.671 96.1624 459.557 90.652 452.387 91.0244C459.557 90.652 465.067 84.5378 464.695 77.3676C465.067 84.5378 471.181 90.0482 478.352 89.6758Z" fill="#F3F2F2"/>
<path d="M501.999 100.932L503.369 94.6129L497.569 94.9141L498.339 91.2372L504.14 90.9359L504.935 87.1296L499.135 87.4308L499.938 83.7682L505.722 83.4678L506.974 77.6351L510.729 77.44L509.461 83.2736L513.392 83.0695L514.643 77.2367L518.398 77.0417L517.131 82.8753L522.931 82.574L522.144 86.2358L516.36 86.5362L515.532 90.3442L521.332 90.043L520.546 93.7207L514.762 94.0211L513.424 100.339L509.669 100.534L511.007 94.2162L507.092 94.4195L505.754 100.737L501.999 100.932ZM507.895 90.7409L511.793 90.5384L512.605 86.7312L508.69 86.9345L507.895 90.7409ZM526.988 99.6666L525.793 76.6576L534.916 76.1838C536.472 76.103 537.761 76.3511 538.784 76.9282C539.818 77.494 540.599 78.2491 541.129 79.1936C541.669 80.1375 541.966 81.1261 542.02 82.1594C542.086 83.427 541.838 84.5186 541.277 85.4343C540.726 86.3494 539.942 86.9883 538.925 87.3509L538.884 86.552C540.349 86.8069 541.482 87.437 542.282 88.4422C543.093 89.4469 543.533 90.615 543.602 91.9465C543.672 93.31 543.473 94.5166 543.005 95.5663C542.536 96.6161 541.8 97.4554 540.796 98.0843C539.804 98.7126 538.551 99.0661 537.038 99.1446L526.988 99.6666ZM530.698 95.837L536.37 95.5424C537.042 95.5076 537.636 95.3431 538.155 95.0492C538.674 94.7446 539.069 94.3395 539.342 93.834C539.625 93.3173 539.749 92.7181 539.713 92.0363C539.681 91.4185 539.519 90.8715 539.227 90.3953C538.936 89.9191 538.527 89.5505 538 89.2895C537.474 89.0177 536.853 88.9004 536.14 88.9375L530.355 89.2379L530.698 95.837ZM530.169 85.6428L535.346 85.3739C535.9 85.3451 536.389 85.2129 536.815 84.9771C537.241 84.7414 537.571 84.4092 537.805 83.9805C538.039 83.5517 538.14 83.0338 538.109 82.4266C538.067 81.6277 537.777 80.9752 537.238 80.4691C536.699 79.9631 535.971 79.7338 535.055 79.7814L529.878 80.0503L530.169 85.6428ZM552.646 98.8306C551.368 98.897 550.302 98.7388 549.449 98.3558C548.596 97.9729 547.908 97.4639 547.384 96.8289C546.859 96.1939 546.461 95.5097 546.187 94.7762C545.914 94.0427 545.723 93.3477 545.615 92.6911C545.516 92.0233 545.456 91.4817 545.434 91.0663L544.934 81.4313L548.832 81.2288L549.264 89.5376C549.292 90.0702 549.36 90.6701 549.469 91.3373C549.578 91.9939 549.782 92.6242 550.08 93.2282C550.389 93.821 550.82 94.3006 551.373 94.6671C551.936 95.033 552.676 95.1922 553.593 95.1446C554.083 95.1192 554.563 95.0141 555.034 94.8294C555.505 94.6447 555.922 94.3507 556.286 93.9473C556.66 93.5327 556.946 92.9784 557.145 92.2845C557.344 91.5906 557.416 90.7217 557.362 89.6777L559.698 90.5337C559.774 92.0038 559.555 93.3502 559.042 94.5732C558.54 95.7956 557.753 96.7924 556.682 97.5636C555.611 98.3242 554.266 98.7465 552.646 98.8306ZM558.261 98.0424L557.983 92.6896L557.52 92.7136L556.901 80.8097L560.768 80.6089L561.665 97.8656L558.261 98.0424ZM564.442 77.7905L564.259 74.2593L568.11 74.0593L568.293 77.5905L564.442 77.7905ZM565.475 97.6677L564.578 80.411L568.429 80.211L569.325 97.4677L565.475 97.6677ZM573.433 97.2544L572.213 73.766L576.064 73.566L577.283 97.0544L573.433 97.2544ZM588.015 96.9777C586.427 97.0601 585.022 96.7326 583.798 95.9951C582.574 95.2576 581.602 94.2186 580.88 92.8782C580.159 91.5378 579.754 90.0048 579.664 88.2791C579.574 86.5321 579.818 84.96 580.397 83.5628C580.986 82.1543 581.862 81.0247 583.024 80.1739C584.187 79.3125 585.583 78.8394 587.212 78.7548C588.853 78.6696 590.248 78.9977 591.397 79.739C592.557 80.4692 593.46 81.5064 594.106 82.8507C594.753 84.195 595.121 85.7353 595.211 87.4716C595.3 89.1866 595.093 90.7515 594.59 92.1662C594.086 93.5702 593.285 94.7013 592.187 95.5594C591.088 96.4175 589.698 96.8903 588.015 96.9777ZM588.427 93.4956C589.46 93.442 590.279 93.1645 590.883 92.6631C591.497 92.1506 591.926 91.4607 592.169 90.5936C592.423 89.7259 592.521 88.7328 592.463 87.6144C592.404 86.4852 592.204 85.5076 591.862 84.6816C591.53 83.8443 591.043 83.2074 590.401 82.7708C589.758 82.3235 588.947 82.1253 587.967 82.1762C586.934 82.2299 586.095 82.5298 585.45 83.076C584.805 83.6115 584.345 84.319 584.07 85.1984C583.795 86.0672 583.685 87.0235 583.739 88.0675C583.794 89.122 583.998 90.0727 584.352 90.9195C584.715 91.7551 585.235 92.4064 585.911 92.8733C586.587 93.3402 587.425 93.5476 588.427 93.4956ZM592.911 96.2427L592.282 84.131L591.803 84.1559L591.237 73.2586L595.12 73.057L596.315 96.066L592.911 96.2427ZM604.653 95.6329L596.731 72.9733L600.774 72.7633L606.223 89.1427L609.931 72.3197L613.972 72.0778L619.421 88.4572L623.128 71.6023L627.17 71.3923L621.654 94.7499L617.852 94.9474L612.288 78.8302L608.456 95.4354L604.653 95.6329ZM628.637 74.4564L628.454 70.9251L632.304 70.7251L632.488 74.2564L628.637 74.4564ZM629.669 94.3336L628.773 77.0769L632.624 76.8768L633.52 94.1336L629.669 94.3336ZM647.422 93.4116C646.293 93.6838 645.18 93.8324 644.081 93.8575C642.993 93.8926 642.008 93.7461 641.126 93.4181C640.243 93.0795 639.557 92.5116 639.067 91.7146C638.634 90.9894 638.387 90.2386 638.325 89.4621C638.263 88.6856 638.207 87.8073 638.156 86.8273L637.377 71.8235L641.212 71.6243L641.979 86.4044C642.015 87.0968 642.052 87.7037 642.09 88.2251C642.138 88.746 642.272 89.1663 642.492 89.486C642.909 90.1052 643.54 90.4303 644.385 90.4611C645.23 90.492 646.187 90.3996 647.255 90.1839L647.422 93.4116ZM634.651 79.7996L634.494 76.7797L646.526 76.1548L646.683 79.1747L634.651 79.7996ZM662.07 92.6508L661.639 84.342C661.61 83.7987 661.542 83.1988 661.433 82.5422C661.324 81.8856 661.115 81.261 660.807 80.6682C660.509 80.0642 660.077 79.5792 659.514 79.2133C658.961 78.8468 658.226 78.6874 657.31 78.7349C656.82 78.7604 656.339 78.8655 655.868 79.0501C655.397 79.2348 654.975 79.5345 654.601 79.9491C654.238 80.3525 653.956 80.9011 653.758 81.595C653.558 82.2783 653.486 83.1472 653.54 84.2018L651.205 83.3458C651.129 81.8758 651.342 80.5296 651.844 79.3072C652.358 78.0843 653.15 77.0925 654.221 76.3319C655.292 75.5607 656.637 75.133 658.256 75.0489C659.534 74.9825 660.6 75.1408 661.453 75.5237C662.306 75.9067 662.995 76.4156 663.519 77.0506C664.043 77.6856 664.442 78.3699 664.715 79.1034C664.988 79.8368 665.174 80.5375 665.273 81.2053C665.382 81.8618 665.447 82.3978 665.468 82.8133L665.969 92.4483L662.07 92.6508ZM650.102 93.2724L648.907 70.2634L652.343 70.0849L652.972 82.1966L653.435 82.1726L654.001 93.0699L650.102 93.2724ZM669.14 92.2836L667.945 69.2746L677.452 68.7808C677.676 68.7692 677.964 68.7649 678.317 68.768C678.669 68.7604 678.995 68.7754 679.296 68.8132C680.638 68.9464 681.758 69.3315 682.657 69.9685C683.566 70.6048 684.255 71.4342 684.724 72.4566C685.204 73.4677 685.477 74.6071 685.543 75.8747C685.64 77.7495 685.25 79.388 684.372 80.7901C683.494 82.1815 682.083 83.0879 680.14 83.5092L678.501 83.7385L672.573 84.0464L672.991 92.0836L669.14 92.2836ZM682.354 91.5973L677.33 82.4696L681.2 81.4034L686.716 91.3707L682.354 91.5973ZM672.387 80.4513L677.883 80.1658C678.096 80.1547 678.335 80.1316 678.601 80.0965C678.866 80.0613 679.108 80.006 679.329 79.9305C679.96 79.7375 680.446 79.4292 680.787 79.0056C681.139 78.5815 681.376 78.1099 681.498 77.5908C681.632 77.0712 681.686 76.5664 681.66 76.0764C681.635 75.5864 681.529 75.0899 681.342 74.5869C681.166 74.0726 680.881 73.6228 680.487 73.2374C680.104 72.8514 679.589 72.5951 678.941 72.4685C678.714 72.4162 678.467 72.3917 678.201 72.3949C677.933 72.3874 677.693 72.3892 677.48 72.4003L671.983 72.6857L672.387 80.4513ZM697.108 91.3116C695.361 91.4024 693.808 91.1039 692.447 90.4162C691.087 89.7285 689.999 88.7329 689.184 87.4294C688.379 86.1254 687.932 84.5999 687.841 82.8529C687.743 80.9675 688.02 79.3135 688.673 77.8911C689.325 76.458 690.275 75.3245 691.524 74.4906C692.773 73.6567 694.245 73.1958 695.938 73.1078C697.728 73.0149 699.268 73.3568 700.558 74.1336C701.858 74.8992 702.851 76.0279 703.537 77.5196C704.224 79.0113 704.546 80.7944 704.504 82.8687L700.685 83.067L700.612 81.6609C700.504 79.7866 700.103 78.435 699.408 77.6059C698.714 76.7768 697.669 76.3985 696.273 76.471C694.697 76.5528 693.55 77.1037 692.834 78.1236C692.118 79.1327 691.808 80.5747 691.905 82.4496C691.996 84.1965 692.45 85.5295 693.267 86.4483C694.083 87.3672 695.227 87.7885 696.697 87.7121C697.645 87.6629 698.449 87.4128 699.109 86.962C699.779 86.4999 700.28 85.8598 700.612 85.0415L704.474 85.9944C703.895 87.584 702.935 88.8461 701.595 89.7809C700.265 90.7151 698.77 91.2253 697.108 91.3116ZM690.747 83.5832L690.596 80.6751L702.468 80.0585L702.619 82.9666L690.747 83.5832ZM711.505 90.0833L704.345 73.1518L708.196 72.9518L713.192 85.2372L716.872 72.5012L720.739 72.3004L715.372 89.8824L711.505 90.0833ZM722.791 69.5662L722.608 66.035L726.459 65.835L726.642 69.3662L722.791 69.5662ZM723.824 89.4434L722.927 72.1867L726.778 71.9867L727.674 89.2434L723.824 89.4434ZM738.15 89.18C736.02 89.2907 734.264 88.9012 732.882 88.0117C731.501 87.1221 730.621 85.8166 730.244 84.0953L734.143 83.2839C734.389 84.1256 734.872 84.7735 735.59 85.2275C736.307 85.6815 737.194 85.8812 738.248 85.8264C739.175 85.7783 739.879 85.5601 740.361 85.1719C740.853 84.7726 741.082 84.2533 741.049 83.6141C741.029 83.22 740.917 82.9107 740.713 82.6864C740.519 82.4508 740.102 82.2374 739.462 82.0464C738.822 81.8553 737.843 81.6231 736.526 81.3497C735.057 81.0415 733.885 80.6911 733.01 80.2986C732.135 79.8955 731.495 79.4 731.091 78.8122C730.686 78.2244 730.462 77.4991 730.417 76.6362C730.361 75.5603 730.595 74.6083 731.118 73.78C731.641 72.9518 732.397 72.2983 733.387 71.8197C734.376 71.3304 735.558 71.05 736.932 70.9787C738.275 70.909 739.473 71.055 740.528 71.4168C741.593 71.778 742.466 72.3255 743.145 73.0593C743.824 73.793 744.264 74.6727 744.467 75.6982L740.573 76.6054C740.439 75.8754 740.073 75.3123 739.476 74.916C738.889 74.5193 738.121 74.3189 737.17 74.3149C736.261 74.3086 735.539 74.485 735.002 74.844C734.465 75.1923 734.211 75.6594 734.242 76.2453C734.259 76.5755 734.386 76.852 734.621 77.0747C734.857 77.2975 735.317 77.5086 736 77.7081C736.694 77.907 737.721 78.1421 739.081 78.4132C740.473 78.6934 741.591 79.0412 742.435 79.4567C743.29 79.8609 743.914 80.3679 744.309 80.9775C744.714 81.5867 744.94 82.3386 744.987 83.2334C745.077 84.9697 744.514 86.3661 743.298 87.4226C742.092 88.4786 740.376 89.0644 738.15 89.18ZM755.623 88.2725C753.876 88.3632 752.322 88.0648 750.962 87.377C749.602 86.6893 748.514 85.6938 747.699 84.3903C746.894 83.0863 746.447 81.5608 746.356 79.8138C746.258 77.9283 746.535 76.2744 747.188 74.852C747.839 73.4189 748.79 72.2854 750.039 71.4515C751.288 70.6176 752.76 70.1567 754.453 70.0687C756.243 69.9757 757.783 70.3177 759.073 71.0945C760.373 71.8601 761.366 72.9887 762.052 74.4805C762.739 75.9722 763.061 77.7552 763.019 79.8295L759.2 80.0279L759.127 78.6218C759.019 76.7475 758.618 75.3958 757.923 74.5668C757.229 73.7377 756.184 73.3594 754.788 73.4318C753.212 73.5137 752.065 74.0646 751.349 75.0844C750.633 76.0936 750.323 77.5356 750.42 79.4104C750.511 81.1574 750.965 82.4903 751.782 83.4092C752.598 84.3281 753.742 84.7493 755.212 84.673C756.16 84.6238 756.964 84.3737 757.624 83.9229C758.294 83.4608 758.795 82.8206 759.126 82.0024L762.989 82.9553C762.409 84.5448 761.45 85.807 760.11 86.7417C758.78 87.6759 757.285 88.1862 755.623 88.2725ZM749.262 80.5441L749.111 77.636L760.983 77.0194L761.134 79.9275L749.262 80.5441Z" fill="#F3F2F2"/>
<path d="M807.907 72.5595C800.737 72.9319 795.227 79.0461 795.599 86.2163C795.227 79.0461 789.113 73.5357 781.942 73.9081C789.113 73.5357 794.623 67.4215 794.251 60.2513C794.623 67.4215 800.737 72.9319 807.907 72.5595Z" fill="#F3F2F2"/>
<path d="M831.555 83.8161L832.925 77.4966L827.125 77.7978L827.895 74.1209L833.695 73.8197L834.491 70.0133L828.691 70.3145L829.494 66.6519L835.278 66.3515L836.529 60.5188L840.284 60.3238L839.017 66.1573L842.948 65.9532L844.199 60.1204L847.954 59.9254L846.687 65.759L852.487 65.4577L851.7 69.1195L845.916 69.4199L845.088 73.228L850.888 72.9267L850.102 76.6045L844.318 76.9049L842.98 83.2228L839.225 83.4178L840.563 77.0999L836.648 77.3032L835.31 83.6211L831.555 83.8161ZM837.45 73.6247L841.349 73.4222L842.161 69.6149L838.246 69.8183L837.45 73.6247ZM856.544 82.5504L855.348 59.5414L864.472 59.0675C866.027 58.9867 867.317 59.2349 868.34 59.8119C869.373 60.3777 870.155 61.1329 870.685 62.0773C871.225 63.0212 871.522 64.0098 871.576 65.0431C871.642 66.3107 871.394 67.4024 870.833 68.3181C870.282 69.2332 869.498 69.872 868.481 70.2346L868.439 69.4357C869.905 69.6907 871.038 70.3208 871.838 71.326C872.648 72.3306 873.088 73.4987 873.157 74.8302C873.228 76.1937 873.029 77.4003 872.56 78.4501C872.092 79.4998 871.355 80.3391 870.352 80.968C869.359 81.5963 868.107 81.9498 866.594 82.0284L856.544 82.5504ZM860.254 78.7207L865.926 78.4261C866.597 78.3913 867.192 78.2269 867.711 77.9329C868.229 77.6283 868.625 77.2232 868.898 76.7177C869.181 76.201 869.304 75.6018 869.269 74.92C869.237 74.3022 869.075 73.7552 868.783 73.279C868.491 72.8029 868.082 72.4342 867.556 72.1732C867.029 71.9015 866.409 71.7842 865.695 71.8212L859.911 72.1216L860.254 78.7207ZM859.724 68.5265L864.901 68.2576C865.455 68.2288 865.945 68.0966 866.371 67.8609C866.797 67.6251 867.126 67.2929 867.36 66.8642C867.595 66.4355 867.696 65.9175 867.664 65.3103C867.623 64.5114 867.333 63.8589 866.794 63.3529C866.255 62.8468 865.527 62.6176 864.611 62.6651L859.434 62.934L859.724 68.5265ZM882.202 81.7144C880.924 81.7808 879.858 81.6225 879.005 81.2395C878.152 80.8566 877.464 80.3476 876.939 79.7127C876.415 79.0777 876.016 78.3934 875.743 77.6599C875.47 76.9264 875.279 76.2314 875.17 75.5748C875.072 74.9071 875.011 74.3655 874.99 73.95L874.489 64.315L878.388 64.1125L878.82 72.4213C878.847 72.9539 878.916 73.5538 879.025 74.2211C879.134 74.8776 879.338 75.5079 879.636 76.1119C879.945 76.7047 880.375 77.1844 880.929 77.5508C881.492 77.9167 882.232 78.0759 883.148 78.0283C883.638 78.0029 884.119 77.8978 884.59 77.7131C885.061 77.5285 885.478 77.2344 885.842 76.831C886.215 76.4164 886.502 75.8622 886.701 75.1682C886.9 74.4743 886.972 73.6054 886.918 72.5615L889.253 73.4175C889.33 74.8875 889.111 76.234 888.598 77.4569C888.095 78.6793 887.309 79.6761 886.238 80.4473C885.167 81.2079 883.821 81.6303 882.202 81.7144ZM887.817 80.9261L887.539 75.5733L887.075 75.5974L886.457 63.6934L890.324 63.4926L891.22 80.7493L887.817 80.9261ZM893.998 60.6742L893.815 57.143L897.665 56.943L897.849 60.4742L893.998 60.6742ZM895.03 80.5514L894.134 63.2947L897.985 63.0947L898.881 80.3514L895.03 80.5514ZM902.988 80.1381L901.768 56.6498L905.619 56.4498L906.839 79.9381L902.988 80.1381ZM917.57 79.8614C915.983 79.9438 914.578 79.6163 913.354 78.8788C912.13 78.1413 911.157 77.1023 910.436 75.7619C909.715 74.4215 909.31 72.8885 909.22 71.1628C909.129 69.4158 909.373 67.8437 909.952 66.4465C910.541 65.038 911.417 63.9084 912.58 63.0576C913.742 62.1962 915.138 61.7231 916.768 61.6385C918.409 61.5533 919.804 61.8814 920.953 62.6228C922.112 63.3529 923.015 64.3902 923.662 65.7344C924.309 67.0787 924.677 68.619 924.767 70.3553C924.856 72.0704 924.649 73.6352 924.146 75.0499C923.642 76.4539 922.841 77.585 921.743 78.4431C920.644 79.3012 919.254 79.774 917.57 79.8614ZM917.982 76.3794C919.016 76.3257 919.834 76.0482 920.439 75.5468C921.053 75.0343 921.482 74.3445 921.725 73.4773C921.979 72.6097 922.077 71.6166 922.019 70.4981C921.96 69.3689 921.76 68.3913 921.418 67.5653C921.086 66.7281 920.599 66.0911 919.957 65.6545C919.314 65.2072 918.503 65.0091 917.523 65.06C916.489 65.1136 915.65 65.4135 915.006 65.9597C914.361 66.4952 913.901 67.2027 913.626 68.0821C913.351 68.9509 913.24 69.9073 913.295 70.9512C913.349 72.0058 913.554 72.9565 913.907 73.8033C914.271 74.6388 914.791 75.2901 915.467 75.757C916.143 76.2239 916.981 76.4314 917.982 76.3794ZM922.467 79.1265L921.838 67.0148L921.359 67.0397L920.793 56.1424L924.675 55.9407L925.87 78.9497L922.467 79.1265ZM934.209 78.5166L926.287 55.857L930.33 55.647L935.779 72.0264L939.487 55.2035L943.528 54.9615L948.977 71.341L952.684 54.486L956.726 54.2761L951.21 77.6336L947.407 77.8311L941.844 61.714L938.012 78.3191L934.209 78.5166ZM958.193 57.3401L958.009 53.8089L961.86 53.6089L962.044 57.1401L958.193 57.3401ZM959.225 77.2173L958.329 59.9606L962.18 59.7606L963.076 77.0173L959.225 77.2173ZM976.978 76.2953C975.849 76.5675 974.735 76.7162 973.637 76.7412C972.549 76.7763 971.564 76.6299 970.682 76.3019C969.799 75.9632 969.113 75.3954 968.623 74.5984C968.19 73.8732 967.943 73.1223 967.881 72.3458C967.819 71.5693 967.763 70.691 967.712 69.711L966.933 54.7072L970.768 54.5081L971.535 69.2882C971.571 69.9806 971.608 70.5875 971.646 71.1089C971.694 71.6297 971.828 72.05 972.048 72.3697C972.464 72.9889 973.095 73.314 973.941 73.3448C974.786 73.3757 975.743 73.2833 976.81 73.0676L976.978 76.2953ZM964.207 62.6834L964.05 59.6634L976.082 59.0385L976.239 62.0585L964.207 62.6834ZM991.626 75.5345L991.194 67.2257C991.166 66.6824 991.098 66.0825 990.989 65.4259C990.88 64.7694 990.671 64.1447 990.363 63.5519C990.064 62.9479 989.633 62.4629 989.07 62.097C988.516 61.7305 987.782 61.5711 986.866 61.6187C986.376 61.6441 985.895 61.7492 985.424 61.9339C984.953 62.1185 984.531 62.4182 984.157 62.8328C983.794 63.2362 983.512 63.7849 983.313 64.4788C983.114 65.162 983.041 66.031 983.096 67.0855L980.761 66.2295C980.684 64.7595 980.897 63.4133 981.4 62.1909C981.913 60.968 982.706 59.9762 983.777 59.2156C984.848 58.4444 986.193 58.0167 987.812 57.9326C989.09 57.8662 990.156 58.0245 991.009 58.4075C991.862 58.7904 992.55 59.2994 993.075 59.9344C993.599 60.5693 993.998 61.2536 994.271 61.9871C994.544 62.7206 994.73 63.4212 994.829 64.089C994.937 64.7455 995.003 65.2816 995.024 65.697L995.525 75.332L991.626 75.5345ZM979.658 76.1561L978.463 53.1471L981.898 52.9687L982.527 65.0803L982.991 65.0563L983.557 75.9536L979.658 76.1561ZM998.696 75.1673L997.501 52.1583L1007.01 51.6645C1007.23 51.6529 1007.52 51.6486 1007.87 51.6517C1008.22 51.6441 1008.55 51.6592 1008.85 51.6969C1010.19 51.8302 1011.31 52.2153 1012.21 52.8522C1013.12 53.4886 1013.81 54.3179 1014.28 55.3403C1014.76 56.3514 1015.03 57.4908 1015.1 58.7584C1015.2 60.6333 1014.81 62.2717 1013.93 63.6738C1013.05 65.0652 1011.64 65.9716 1009.7 66.393L1008.06 66.6223L1002.13 66.9301L1002.55 74.9673L998.696 75.1673ZM1011.91 74.481L1006.89 65.3533L1010.76 64.2872L1016.27 74.2544L1011.91 74.481ZM1001.94 63.335L1007.44 63.0495C1007.65 63.0384 1007.89 63.0153 1008.16 62.9802C1008.42 62.9451 1008.66 62.8897 1008.88 62.8142C1009.52 62.6212 1010 62.3129 1010.34 61.8893C1010.69 61.4652 1010.93 60.9936 1011.05 60.4745C1011.19 59.9549 1011.24 59.4501 1011.22 58.9601C1011.19 58.4701 1011.08 57.9736 1010.9 57.4706C1010.72 56.9564 1010.44 56.5065 1010.04 56.1211C1009.66 55.7351 1009.14 55.4789 1008.5 55.3523C1008.27 55.3 1008.02 55.2754 1007.76 55.2786C1007.49 55.2711 1007.25 55.2729 1007.04 55.284L1001.54 55.5695L1001.94 63.335ZM1026.66 74.1954C1024.92 74.2861 1023.36 73.9876 1022 73.2999C1020.64 72.6122 1019.56 71.6166 1018.74 70.3131C1017.94 69.0091 1017.49 67.4836 1017.4 65.7366C1017.3 63.8512 1017.58 62.1972 1018.23 60.7748C1018.88 59.3418 1019.83 58.2083 1021.08 57.3743C1022.33 56.5404 1023.8 56.0795 1025.49 55.9915C1027.28 55.8986 1028.82 56.2405 1030.11 57.0173C1031.41 57.7829 1032.41 58.9116 1033.09 60.4033C1033.78 61.8951 1034.1 63.6781 1034.06 65.7524L1030.24 65.9507L1030.17 64.5446C1030.06 62.6704 1029.66 61.3187 1028.96 60.4896C1028.27 59.6605 1027.22 59.2822 1025.83 59.3547C1024.25 59.4366 1023.11 59.9874 1022.39 61.0073C1021.67 62.0165 1021.36 63.4585 1021.46 65.3333C1021.55 67.0803 1022.01 68.4132 1022.82 69.3321C1023.64 70.2509 1024.78 70.6722 1026.25 70.5958C1027.2 70.5466 1028 70.2966 1028.66 69.8457C1029.34 69.3837 1029.84 68.7435 1030.17 67.9252L1034.03 68.8781C1033.45 70.4677 1032.49 71.7298 1031.15 72.6646C1029.82 73.5988 1028.33 74.1091 1026.66 74.1954ZM1020.3 66.4669L1020.15 63.5588L1032.02 62.9422L1032.17 65.8503L1020.3 66.4669ZM1041.06 72.967L1033.9 56.0356L1037.75 55.8356L1042.75 68.121L1046.43 55.3849L1050.29 55.1841L1044.93 72.7662L1041.06 72.967ZM1052.35 52.45L1052.16 48.9187L1056.01 48.7187L1056.2 52.25L1052.35 52.45ZM1053.38 72.3272L1052.48 55.0704L1056.33 54.8704L1057.23 72.1272L1053.38 72.3272ZM1067.71 72.0637C1065.58 72.1744 1063.82 71.7849 1062.44 70.8954C1061.06 70.0058 1060.18 68.7004 1059.8 66.979L1063.7 66.1677C1063.95 67.0093 1064.43 67.6572 1065.15 68.1112C1065.86 68.5653 1066.75 68.7649 1067.8 68.7101C1068.73 68.662 1069.44 68.4438 1069.92 68.0557C1070.41 67.6563 1070.64 67.137 1070.61 66.4979C1070.58 66.1037 1070.47 65.7945 1070.27 65.5701C1070.07 65.3345 1069.66 65.1212 1069.02 64.9301C1068.38 64.739 1067.4 64.5068 1066.08 64.2335C1064.61 63.9252 1063.44 63.5749 1062.57 63.1824C1061.69 62.7792 1061.05 62.2838 1060.65 61.6959C1060.24 61.1081 1060.02 60.3828 1059.97 59.52C1059.92 58.4441 1060.15 57.492 1060.67 56.6638C1061.2 55.8355 1061.95 55.1821 1062.94 54.7034C1063.93 54.2141 1065.11 53.9338 1066.49 53.8624C1067.83 53.7927 1069.03 53.9387 1070.08 54.3005C1071.15 54.6617 1072.02 55.2092 1072.7 55.943C1073.38 56.6768 1073.82 57.5564 1074.02 58.5819L1070.13 59.4891C1069.99 58.7591 1069.63 58.196 1069.03 57.7998C1068.45 57.403 1067.68 57.2026 1066.73 57.1986C1065.82 57.1923 1065.09 57.3687 1064.56 57.7277C1064.02 58.0761 1063.77 58.5432 1063.8 59.129C1063.81 59.4593 1063.94 59.7357 1064.18 59.9585C1064.41 60.1812 1064.87 60.3923 1065.56 60.5918C1066.25 60.7908 1067.28 61.0258 1068.64 61.297C1070.03 61.5771 1071.15 61.9249 1071.99 62.3404C1072.85 62.7446 1073.47 63.2516 1073.86 63.8613C1074.27 64.4704 1074.5 65.2223 1074.54 66.1171C1074.63 67.8535 1074.07 69.2499 1072.85 70.3064C1071.65 71.3623 1069.93 71.9481 1067.71 72.0637ZM1085.18 71.1562C1083.43 71.247 1081.88 70.9485 1080.52 70.2608C1079.16 69.5731 1078.07 68.5775 1077.25 67.274C1076.45 65.97 1076 64.4445 1075.91 62.6975C1075.81 60.8121 1076.09 59.1581 1076.74 57.7357C1077.4 56.3026 1078.35 55.1691 1079.59 54.3352C1080.84 53.5013 1082.32 53.0404 1084.01 52.9524C1085.8 52.8595 1087.34 53.2014 1088.63 53.9782C1089.93 54.7438 1090.92 55.8725 1091.61 57.3642C1092.29 58.8559 1092.62 60.639 1092.57 62.7133L1088.76 62.9116L1088.68 61.5055C1088.57 59.6312 1088.17 58.2796 1087.48 57.4505C1086.78 56.6214 1085.74 56.2431 1084.34 56.3156C1082.77 56.3975 1081.62 56.9483 1080.9 57.9682C1080.19 58.9774 1079.88 60.4194 1079.98 62.2942C1080.07 64.0411 1080.52 65.3741 1081.34 66.2929C1082.15 67.2118 1083.3 67.6331 1084.77 67.5567C1085.72 67.5075 1086.52 67.2574 1087.18 66.8066C1087.85 66.3445 1088.35 65.7044 1088.68 64.8861L1092.54 65.839C1091.97 67.4286 1091.01 68.6907 1089.67 69.6255C1088.34 70.5597 1086.84 71.0699 1085.18 71.1562ZM1078.82 63.4278L1078.67 60.5197L1090.54 59.9031L1090.69 62.8112L1078.82 63.4278Z" fill="#F3F2F2"/>
<path d="M1137.46 55.4432C1130.29 55.8156 1124.78 61.9298 1125.15 69.1C1124.78 61.9298 1118.67 56.4194 1111.5 56.7918C1118.67 56.4194 1124.18 50.3052 1123.81 43.135C1124.18 50.3052 1130.29 55.8156 1137.46 55.4432Z" fill="#F3F2F2"/>
<path d="M1161.11 66.6998L1162.48 60.3802L1156.68 60.6815L1157.45 57.0046L1163.25 56.7033L1164.05 52.897L1158.25 53.1982L1159.05 49.5356L1164.83 49.2352L1166.09 43.4024L1169.84 43.2074L1168.57 49.041L1172.5 48.8369L1173.75 43.0041L1177.51 42.8091L1176.24 48.6427L1182.04 48.3414L1181.26 52.0032L1175.47 52.3036L1174.64 56.1116L1180.44 55.8104L1179.66 59.4881L1173.87 59.7885L1172.54 66.1064L1168.78 66.3015L1170.12 59.9836L1166.2 60.1869L1164.87 66.5048L1161.11 66.6998ZM1167.01 56.5083L1170.9 56.3058L1171.72 52.4986L1167.8 52.7019L1167.01 56.5083ZM1186.1 65.434L1184.9 42.425L1194.03 41.9512C1195.58 41.8704 1196.87 42.1185 1197.9 42.6956C1198.93 43.2614 1199.71 44.0165 1200.24 44.961C1200.78 45.9049 1201.08 46.8935 1201.13 47.9268C1201.2 49.1944 1200.95 50.286 1200.39 51.2017C1199.84 52.1168 1199.05 52.7557 1198.04 53.1183L1198 52.3194C1199.46 52.5743 1200.59 53.2044 1201.39 54.2096C1202.2 55.2143 1202.64 56.3824 1202.71 57.7139C1202.78 59.0774 1202.59 60.284 1202.12 61.3337C1201.65 62.3835 1200.91 63.2228 1199.91 63.8517C1198.92 64.48 1197.66 64.8335 1196.15 64.912L1186.1 65.434ZM1189.81 61.6044L1195.48 61.3098C1196.15 61.275 1196.75 61.1105 1197.27 60.8166C1197.79 60.5119 1198.18 60.1069 1198.45 59.6014C1198.74 59.0847 1198.86 58.4855 1198.82 57.8037C1198.79 57.1859 1198.63 56.6389 1198.34 56.1627C1198.05 55.6865 1197.64 55.3179 1197.11 55.0569C1196.59 54.7851 1195.96 54.6678 1195.25 54.7049L1189.47 55.0053L1189.81 61.6044ZM1189.28 51.4102L1194.46 51.1413C1195.01 51.1125 1195.5 50.9803 1195.93 50.7445C1196.35 50.5088 1196.68 50.1766 1196.92 49.7479C1197.15 49.3191 1197.25 48.8012 1197.22 48.194C1197.18 47.3951 1196.89 46.7426 1196.35 46.2365C1195.81 45.7305 1195.08 45.5012 1194.17 45.5488L1188.99 45.8177L1189.28 51.4102ZM1211.76 64.598C1210.48 64.6644 1209.41 64.5062 1208.56 64.1232C1207.71 63.7403 1207.02 63.2313 1206.5 62.5963C1205.97 61.9613 1205.57 61.2771 1205.3 60.5436C1205.03 59.8101 1204.84 59.1151 1204.73 58.4585C1204.63 57.7907 1204.57 57.2491 1204.55 56.8337L1204.05 47.1987L1207.94 46.9962L1208.38 55.305C1208.4 55.8376 1208.47 56.4375 1208.58 57.1047C1208.69 57.7613 1208.89 58.3916 1209.19 58.9956C1209.5 59.5884 1209.93 60.068 1210.48 60.4345C1211.05 60.8004 1211.79 60.9596 1212.7 60.912C1213.19 60.8866 1213.67 60.7815 1214.15 60.5968C1214.62 60.4121 1215.03 60.1181 1215.4 59.7147C1215.77 59.3001 1216.06 58.7458 1216.26 58.0519C1216.46 57.358 1216.53 56.4891 1216.47 55.4451L1218.81 56.3011C1218.89 57.7712 1218.67 59.1176 1218.15 60.3406C1217.65 61.563 1216.86 62.5598 1215.79 63.331C1214.72 64.0916 1213.38 64.5139 1211.76 64.598ZM1217.37 63.8098L1217.09 58.457L1216.63 58.481L1216.01 46.5771L1219.88 46.3763L1220.78 63.633L1217.37 63.8098ZM1223.55 43.5579L1223.37 40.0267L1227.22 39.8267L1227.4 43.3579L1223.55 43.5579ZM1224.59 63.4351L1223.69 46.1784L1227.54 45.9784L1228.44 63.2351L1224.59 63.4351ZM1232.54 63.0218L1231.32 39.5334L1235.18 39.3334L1236.4 62.8218L1232.54 63.0218ZM1247.13 62.7451C1245.54 62.8275 1244.13 62.5 1242.91 61.7625C1241.69 61.0249 1240.71 59.986 1239.99 58.6456C1239.27 57.3052 1238.87 55.7722 1238.78 54.0465C1238.69 52.2995 1238.93 50.7274 1239.51 49.3301C1240.1 47.9217 1240.97 46.7921 1242.14 45.9413C1243.3 45.0799 1244.69 44.6068 1246.32 44.5222C1247.96 44.437 1249.36 44.765 1250.51 45.5064C1251.67 46.2366 1252.57 47.2738 1253.22 48.6181C1253.86 49.9624 1254.23 51.5027 1254.32 53.239C1254.41 54.954 1254.2 56.5189 1253.7 57.9336C1253.2 59.3376 1252.4 60.4687 1251.3 61.3268C1250.2 62.1849 1248.81 62.6577 1247.13 62.7451ZM1247.54 59.263C1248.57 59.2094 1249.39 58.9319 1249.99 58.4305C1250.61 57.918 1251.04 57.2281 1251.28 56.361C1251.53 55.4933 1251.63 54.5002 1251.57 53.3817C1251.52 52.2526 1251.32 51.275 1250.97 50.449C1250.64 49.6117 1250.15 48.9748 1249.51 48.5382C1248.87 48.0909 1248.06 47.8927 1247.08 47.9436C1246.05 47.9973 1245.21 48.2972 1244.56 48.8434C1243.92 49.3789 1243.46 50.0864 1243.18 50.9658C1242.91 51.8346 1242.8 52.7909 1242.85 53.8349C1242.91 54.8894 1243.11 55.8401 1243.46 56.6869C1243.83 57.5225 1244.35 58.1738 1245.02 58.6407C1245.7 59.1076 1246.54 59.315 1247.54 59.263ZM1252.02 62.0101L1251.39 49.8984L1250.91 49.9233L1250.35 39.026L1254.23 38.8244L1255.43 61.8334L1252.02 62.0101ZM1263.76 61.4003L1255.84 38.7407L1259.89 38.5307L1265.33 54.9101L1269.04 38.0871L1273.08 37.8452L1278.53 54.2246L1282.24 37.3697L1286.28 37.1597L1280.77 60.5173L1276.96 60.7148L1271.4 44.5976L1267.57 61.2027L1263.76 61.4003ZM1287.75 40.2238L1287.57 36.6925L1291.42 36.4925L1291.6 40.0238L1287.75 40.2238ZM1288.78 60.101L1287.88 42.8442L1291.74 42.6442L1292.63 59.901L1288.78 60.101ZM1306.53 59.1789C1305.41 59.4512 1304.29 59.5998 1303.19 59.6249C1302.1 59.66 1301.12 59.5135 1300.24 59.1855C1299.35 58.8469 1298.67 58.279 1298.18 57.482C1297.75 56.7568 1297.5 56.006 1297.44 55.2295C1297.38 54.453 1297.32 53.5747 1297.27 52.5947L1296.49 37.5909L1300.32 37.3917L1301.09 52.1718C1301.13 52.8642 1301.16 53.4711 1301.2 53.9925C1301.25 54.5134 1301.38 54.9337 1301.6 55.2534C1302.02 55.8726 1302.65 56.1976 1303.5 56.2285C1304.34 56.2594 1305.3 56.167 1306.37 55.9513L1306.53 59.1789ZM1293.76 45.567L1293.61 42.5471L1305.64 41.9222L1305.79 44.9421L1293.76 45.567ZM1321.18 58.4182L1320.75 50.1094C1320.72 49.5661 1320.65 48.9662 1320.54 48.3096C1320.44 47.653 1320.23 47.0284 1319.92 46.4356C1319.62 45.8316 1319.19 45.3466 1318.63 44.9807C1318.07 44.6142 1317.34 44.4548 1316.42 44.5023C1315.93 44.5278 1315.45 44.6329 1314.98 44.8175C1314.51 45.0022 1314.09 45.3019 1313.71 45.7165C1313.35 46.1199 1313.07 46.6685 1312.87 47.3624C1312.67 48.0457 1312.6 48.9146 1312.65 49.9692L1310.32 49.1132C1310.24 47.6432 1310.45 46.297 1310.96 45.0746C1311.47 43.8517 1312.26 42.8599 1313.33 42.0993C1314.4 41.3281 1315.75 40.9004 1317.37 40.8163C1318.65 40.7499 1319.71 40.9082 1320.56 41.2911C1321.42 41.6741 1322.11 42.183 1322.63 42.818C1323.15 43.453 1323.55 44.1373 1323.83 44.8707C1324.1 45.6042 1324.29 46.3049 1324.38 46.9726C1324.49 47.6292 1324.56 48.1652 1324.58 48.5807L1325.08 58.2157L1321.18 58.4182ZM1309.21 59.0397L1308.02 36.0308L1311.45 35.8523L1312.08 47.964L1312.55 47.9399L1313.11 58.8373L1309.21 59.0397ZM1328.25 58.051L1327.06 35.042L1336.56 34.5482C1336.79 34.5366 1337.08 34.5323 1337.43 34.5354C1337.78 34.5278 1338.11 34.5428 1338.41 34.5806C1339.75 34.7138 1340.87 35.0989 1341.77 35.7359C1342.68 36.3722 1343.37 37.2016 1343.84 38.224C1344.32 39.2351 1344.59 40.3745 1344.65 41.6421C1344.75 43.5169 1344.36 45.1554 1343.48 46.5574C1342.61 47.9489 1341.19 48.8553 1339.25 49.2766L1337.61 49.5059L1331.68 49.8138L1332.1 57.851L1328.25 58.051ZM1341.47 57.3647L1336.44 48.237L1340.31 47.1708L1345.83 57.1381L1341.47 57.3647ZM1331.5 46.2187L1336.99 45.9332C1337.21 45.9221 1337.45 45.899 1337.71 45.8639C1337.98 45.8287 1338.22 45.7734 1338.44 45.6979C1339.07 45.5049 1339.56 45.1966 1339.9 44.773C1340.25 44.3489 1340.49 43.8773 1340.61 43.3582C1340.74 42.8386 1340.8 42.3338 1340.77 41.8438C1340.75 41.3538 1340.64 40.8573 1340.45 40.3542C1340.28 39.84 1339.99 39.3902 1339.6 39.0048C1339.22 38.6188 1338.7 38.3625 1338.05 38.2359C1337.83 38.1836 1337.58 38.1591 1337.31 38.1623C1337.04 38.1548 1336.8 38.1566 1336.59 38.1676L1331.09 38.4531L1331.5 46.2187ZM1356.22 57.079C1354.47 57.1698 1352.92 56.8713 1351.56 56.1836C1350.2 55.4959 1349.11 54.5003 1348.3 53.1968C1347.49 51.8928 1347.04 50.3673 1346.95 48.6203C1346.85 46.7349 1347.13 45.0809 1347.78 43.6585C1348.44 42.2254 1349.39 41.0919 1350.64 40.258C1351.88 39.4241 1353.36 38.9632 1355.05 38.8752C1356.84 38.7823 1358.38 39.1242 1359.67 39.901C1360.97 40.6666 1361.96 41.7952 1362.65 43.287C1363.34 44.7787 1363.66 46.5618 1363.62 48.636L1359.8 48.8344L1359.72 47.4283C1359.62 45.554 1359.21 44.2024 1358.52 43.3733C1357.83 42.5442 1356.78 42.1659 1355.38 42.2384C1353.81 42.3202 1352.66 42.8711 1351.95 43.8909C1351.23 44.9001 1350.92 46.3421 1351.02 48.2169C1351.11 49.9639 1351.56 51.2969 1352.38 52.2157C1353.2 53.1346 1354.34 53.5559 1355.81 53.4795C1356.76 53.4303 1357.56 53.1802 1358.22 52.7294C1358.89 52.2673 1359.39 51.6272 1359.72 50.8089L1363.59 51.7618C1363.01 53.3513 1362.05 54.6135 1360.71 55.5483C1359.38 56.4825 1357.88 56.9927 1356.22 57.079ZM1349.86 49.3506L1349.71 46.4425L1361.58 45.8259L1361.73 48.734L1349.86 49.3506ZM1370.62 55.8507L1363.46 38.9192L1367.31 38.7192L1372.3 51.0046L1375.98 38.2686L1379.85 38.0678L1374.48 55.6498L1370.62 55.8507ZM1381.9 35.3336L1381.72 31.8024L1385.57 31.6024L1385.75 35.1336L1381.9 35.3336ZM1382.94 55.2108L1382.04 37.9541L1385.89 37.7541L1386.79 55.0108L1382.94 55.2108ZM1397.26 54.9474C1395.13 55.0581 1393.38 54.6686 1391.99 53.7791C1390.61 52.8895 1389.73 51.584 1389.36 49.8627L1393.25 49.0513C1393.5 49.893 1393.98 50.5409 1394.7 50.9949C1395.42 51.4489 1396.31 51.6486 1397.36 51.5938C1398.29 51.5457 1398.99 51.3275 1399.47 50.9393C1399.96 50.5399 1400.19 50.0207 1400.16 49.3815C1400.14 48.9874 1400.03 48.6781 1399.82 48.4538C1399.63 48.2182 1399.21 48.0048 1398.57 47.8138C1397.93 47.6227 1396.95 47.3905 1395.64 47.1171C1394.17 46.8089 1393 46.4585 1392.12 46.066C1391.25 45.6629 1390.61 45.1674 1390.2 44.5796C1389.8 43.9918 1389.57 43.2665 1389.53 42.4036C1389.47 41.3277 1389.71 40.3757 1390.23 39.5474C1390.75 38.7192 1391.51 38.0657 1392.5 37.5871C1393.49 37.0978 1394.67 36.8174 1396.04 36.7461C1397.39 36.6764 1398.58 36.8224 1399.64 37.1842C1400.71 37.5454 1401.58 38.0929 1402.26 38.8267C1402.94 39.5604 1403.38 40.4401 1403.58 41.4656L1399.68 42.3728C1399.55 41.6428 1399.18 41.0797 1398.59 40.6834C1398 40.2867 1397.23 40.0863 1396.28 40.0823C1395.37 40.076 1394.65 40.2524 1394.11 40.6114C1393.58 40.9597 1393.32 41.4268 1393.35 42.0127C1393.37 42.3429 1393.5 42.6194 1393.73 42.8421C1393.97 43.0649 1394.43 43.276 1395.11 43.4755C1395.81 43.6744 1396.83 43.9095 1398.19 44.1806C1399.58 44.4608 1400.7 44.8086 1401.55 45.224C1402.4 45.6283 1403.03 46.1353 1403.42 46.7449C1403.83 47.354 1404.05 48.106 1404.1 49.0008C1404.19 50.7371 1403.63 52.1335 1402.41 53.19C1401.2 54.246 1399.49 54.8318 1397.26 54.9474ZM1414.73 54.0399C1412.99 54.1306 1411.43 53.8322 1410.07 53.1444C1408.71 52.4567 1407.63 51.4611 1406.81 50.1577C1406.01 48.8537 1405.56 47.3282 1405.47 45.5812C1405.37 43.6957 1405.65 42.0418 1406.3 40.6194C1406.95 39.1863 1407.9 38.0528 1409.15 37.2189C1410.4 36.385 1411.87 35.924 1413.56 35.8361C1415.35 35.7431 1416.89 36.0851 1418.18 36.8619C1419.48 37.6275 1420.48 38.7561 1421.16 40.2479C1421.85 41.7396 1422.17 43.5226 1422.13 45.5969L1418.31 45.7953L1418.24 44.3892C1418.13 42.5149 1417.73 41.1632 1417.03 40.3342C1416.34 39.5051 1415.3 39.1268 1413.9 39.1992C1412.32 39.2811 1411.18 39.832 1410.46 40.8518C1409.74 41.861 1409.43 43.303 1409.53 45.1778C1409.62 46.9248 1410.08 48.2577 1410.89 49.1766C1411.71 50.0955 1412.85 50.5167 1414.32 50.4404C1415.27 50.3912 1416.08 50.1411 1416.74 49.6903C1417.41 49.2282 1417.91 48.588 1418.24 47.7698L1422.1 48.7227C1421.52 50.3122 1420.56 51.5744 1419.22 52.5091C1417.89 53.4433 1416.4 53.9536 1414.73 54.0399ZM1408.37 46.3115L1408.22 43.4034L1420.09 42.7868L1420.25 45.6949L1408.37 46.3115Z" fill="#F3F2F2"/>
</svg>
