<svg width="32" height="32" viewBox="0 0 32 32" fill="none" xmlns="http://www.w3.org/2000/svg">
<rect x="0.161987" width="31.676" height="31.676" rx="15.838" fill="#D7FF3A"/>
<path d="M21.7752 10.6463C23.6417 13.4099 24.5635 16.5273 24.2189 20.116C24.2175 20.1312 24.2096 20.1452 24.1972 20.1543C22.7838 21.1995 21.4143 21.8339 20.0641 22.2545C20.0536 22.2577 20.0424 22.2576 20.032 22.254C20.0215 22.2505 20.0125 22.2438 20.0061 22.2348C19.6941 21.7977 19.4107 21.3368 19.1624 20.8529C19.1481 20.8244 19.1612 20.7901 19.1905 20.7789C19.6406 20.6081 20.0687 20.4034 20.4804 20.161C20.5128 20.1418 20.5149 20.095 20.4849 20.0726C20.3975 20.0072 20.311 19.9386 20.2282 19.8699C20.2127 19.8572 20.1918 19.8547 20.1742 19.8633C17.5013 21.1063 14.5732 21.1063 11.8686 19.8633C11.851 19.8554 11.8302 19.8581 11.8151 19.8705C11.7325 19.9392 11.6457 20.0072 11.5591 20.0726C11.5292 20.095 11.5317 20.1418 11.5643 20.161C11.976 20.3988 12.4041 20.6081 12.8536 20.7797C12.8827 20.7909 12.8966 20.8244 12.8821 20.8529C12.6391 21.3375 12.3557 21.7983 12.038 22.2354C12.0242 22.2531 12.0014 22.2612 11.9799 22.2545C10.6361 21.8339 9.2667 21.1995 7.85326 20.1543C7.84148 20.1452 7.83302 20.1306 7.83178 20.1154C7.5438 17.0112 8.1307 13.868 10.2732 10.6456C10.2783 10.6371 10.2862 10.6304 10.2953 10.6265C11.3495 10.1392 12.4788 9.78079 13.6593 9.57607C13.6807 9.57274 13.7022 9.58273 13.7134 9.60187C13.8592 9.86193 14.0259 10.1954 14.1387 10.468C15.383 10.2766 16.6466 10.2766 17.9169 10.468C18.0297 10.2012 18.1906 9.86193 18.3359 9.60187C18.341 9.59237 18.349 9.58477 18.3588 9.58013C18.3685 9.5755 18.3794 9.57408 18.39 9.57607C19.571 9.78141 20.7004 10.1399 21.7538 10.6265C21.7631 10.6304 21.7707 10.6371 21.7752 10.6463V10.6463ZM14.7713 16.5485C14.7843 15.6308 14.1199 14.8714 13.286 14.8714C12.4588 14.8714 11.8008 15.6241 11.8008 16.5485C11.8008 17.4726 12.4718 18.2253 13.286 18.2253C14.1133 18.2253 14.7713 17.4726 14.7713 16.5485V16.5485ZM20.2626 16.5485C20.2757 15.6308 19.6113 14.8714 18.7775 14.8714C17.9502 14.8714 17.2922 15.6241 17.2922 16.5485C17.2922 17.4726 17.9632 18.2253 18.7775 18.2253C19.6113 18.2253 20.2626 17.4726 20.2626 16.5485V16.5485Z" fill="url(#paint0_linear_78_2461)"/>
<defs>
<linearGradient id="paint0_linear_78_2461" x1="16.0268" y1="9.5752" x2="16.0268" y2="22.2568" gradientUnits="userSpaceOnUse">
<stop stop-color="#545454"/>
<stop offset="1"/>
</linearGradient>
</defs>
</svg>
