<svg width="360" height="197" viewBox="0 0 360 197" fill="none" xmlns="http://www.w3.org/2000/svg">
<rect x="-88.2585" y="49.7458" width="781.458" height="42.1144" transform="rotate(4.39435 -88.2585 49.7458)" fill="#EBB5FC"/>
<path d="M-27.719 80.3316L-26.7896 68.2383L-24.9672 68.3784L-21.4432 77.2659L-16.6027 69.0212L-14.7803 69.1612L-15.7096 81.2545L-17.5992 81.1093L-17.0035 73.3578L-21.3112 80.8241L-22.1174 80.7621L-25.2253 72.726L-25.821 80.4775L-27.719 80.3316ZM-14.715 81.331L-9.97291 69.5307L-7.00838 69.7585L-4.12496 82.1448L-6.20769 81.9847L-8.8339 70.8684L-8.3804 70.9033L-12.6323 81.491L-14.715 81.331ZM-12.3889 78.874L-12.2437 76.9844L-5.89472 77.4723L-6.03993 79.3619L-12.3889 78.874ZM-3.13149 82.2211L-2.20216 70.1278L1.65258 70.424C1.75336 70.4318 1.9519 70.4499 2.2482 70.4783C2.5501 70.5071 2.83973 70.5491 3.11709 70.6042C4.06501 70.8009 4.84778 71.2046 5.46541 71.8152C6.08907 72.4207 6.53853 73.1677 6.8138 74.0561C7.08906 74.9446 7.18733 75.9011 7.10859 76.9257C7.02986 77.9502 6.7866 78.8805 6.37882 79.7165C5.97104 80.5524 5.41251 81.2248 4.70323 81.7334C3.99999 82.2369 3.16494 82.5135 2.19809 82.5631C1.92117 82.5756 1.63132 82.573 1.32856 82.5554C1.0258 82.5378 0.82403 82.5251 0.723252 82.5173L-3.13149 82.2211ZM-0.927448 80.4729L0.869751 80.611C1.03771 80.6239 1.2509 80.6346 1.5093 80.6432C1.7733 80.6522 2.00758 80.6449 2.21215 80.6212C2.7914 80.5587 3.27567 80.3397 3.66497 79.9641C4.05427 79.5885 4.35505 79.1189 4.56733 78.5551C4.78521 77.9918 4.91845 77.3938 4.96707 76.7611C5.01741 76.106 4.97796 75.4835 4.84871 74.8935C4.71946 74.3035 4.48794 73.7986 4.15414 73.3787C3.82594 72.9592 3.38599 72.6748 2.83429 72.5254C2.63617 72.4651 2.40576 72.4221 2.14305 72.3963C1.88637 72.3653 1.67405 72.3433 1.50608 72.3304L-0.291115 72.1923L-0.927448 80.4729ZM8.10428 83.0845L9.03361 70.9912L16.8439 71.5914L16.698 73.4894L10.9117 73.0448L10.6826 76.0261L15.4611 76.3933L15.3153 78.2913L10.5367 77.9241L10.2741 81.3421L16.0604 81.7868L15.9145 83.6847L8.10428 83.0845ZM23.1479 84.2406L23.9314 74.0453L20.0179 73.7445L20.1637 71.8466L30.0147 72.6036L29.8689 74.5016L25.9554 74.2008L25.1719 84.3961L23.1479 84.2406ZM34.9984 85.4047C33.7891 85.3118 32.7735 84.969 31.9518 84.3765C31.1304 83.7783 30.5238 82.9883 30.1318 82.0064C29.7454 81.025 29.6002 79.91 29.6961 78.6614C29.7921 77.4129 30.106 76.3332 30.6378 75.4223C31.1752 74.5118 31.8952 73.8266 32.7978 73.3665C33.7009 72.9009 34.7571 72.7146 35.9665 72.8075C37.1758 72.9004 38.1911 73.246 39.0125 73.8441C39.8398 74.4371 40.4467 75.2243 40.8331 76.2058C41.2251 77.1877 41.3731 78.3029 41.2771 79.5514C41.1812 80.7999 40.8645 81.8794 40.3271 82.7899C39.7953 83.7008 39.0751 84.3889 38.1664 84.8541C37.2637 85.3141 36.2077 85.4976 34.9984 85.4047ZM35.1449 83.4983C35.9563 83.5663 36.6447 83.439 37.2102 83.1164C37.7812 82.7942 38.2265 82.3131 38.546 81.6731C38.8711 81.0335 39.0676 80.2714 39.1356 79.3868C39.2036 78.5022 39.1254 77.7247 38.9009 77.0541C38.6825 76.3784 38.3158 75.8377 37.8007 75.4321C37.2912 75.0269 36.6309 74.7875 35.82 74.7139C35.0086 74.6459 34.3202 74.7732 33.7547 75.0958C33.1893 75.4184 32.744 75.8995 32.4189 76.5391C32.0994 77.1791 31.9056 77.9414 31.8377 78.826C31.7697 79.7106 31.8449 80.4908 32.0633 81.1665C32.2821 81.8366 32.6463 82.3742 33.1558 82.7795C33.6709 83.1851 34.334 83.4247 35.1449 83.4983ZM49.892 86.5492C48.6826 86.4563 47.6671 86.1135 46.8453 85.521C46.024 84.9229 45.4173 84.1328 45.0253 83.151C44.639 82.1695 44.4937 81.0545 44.5897 79.806C44.6856 78.5574 44.9995 77.4777 45.5313 76.5668C46.0687 75.6563 46.7887 74.9711 47.6914 74.5111C48.5945 74.0454 49.6507 73.8591 50.86 73.952C52.2541 74.0592 53.3889 74.4984 54.2646 75.2696C55.1406 76.0353 55.7208 77.0232 56.0051 78.2334L53.9211 78.6392C53.7467 77.8317 53.3937 77.1851 52.8622 76.6993C52.3311 76.208 51.6149 75.9277 50.7135 75.8584C49.9017 75.796 49.2103 75.9259 48.6392 76.2481C48.0738 76.5707 47.6285 77.0518 47.3034 77.6914C46.9843 78.3258 46.788 79.0851 46.7144 79.9692C46.6464 80.8538 46.7214 81.6368 46.9394 82.3181C47.1634 82.9942 47.5329 83.5351 48.0481 83.9408C48.5632 84.3464 49.2266 84.5805 50.0385 84.6428C50.9399 84.7121 51.6905 84.5445 52.2904 84.1401C52.8903 83.7356 53.3379 83.1505 53.6333 82.3848L55.6308 83.1043C55.1649 84.2568 54.4404 85.1473 53.4572 85.7757C52.4745 86.3985 51.286 86.6563 49.892 86.5492ZM56.6723 86.8168L57.6017 74.7235L59.6256 74.8791L59.2345 79.9683L64.962 80.4085L65.3531 75.3192L67.3687 75.4741L66.4393 87.5674L64.4238 87.4125L64.8162 82.3064L59.0887 81.8663L58.6963 86.9724L56.6723 86.8168ZM67.4291 87.6435L72.1712 75.8432L75.1358 76.071L78.0192 88.4573L75.9364 88.2972L73.3102 77.181L73.7637 77.2158L69.5119 87.8035L67.4291 87.6435ZM69.7552 85.1865L69.9004 83.2969L76.2494 83.7848L76.1042 85.6744L69.7552 85.1865ZM79.0126 88.5336L79.942 76.4403L81.9911 76.5978L86.946 85.553L87.6011 77.0289L89.6502 77.1864L88.7209 89.2797L86.6717 89.1222L81.7168 80.167L81.0618 88.6911L79.0126 88.5336ZM95.5128 90.055C94.729 89.9948 94.0033 89.801 93.3357 89.4738C92.6742 89.1414 92.1037 88.6864 91.6243 88.1089C91.1505 87.5318 90.798 86.843 90.5667 86.0424C90.3358 85.2362 90.259 84.3292 90.3365 83.3215C90.438 82.0001 90.7711 80.8909 91.3356 79.9938C91.9006 79.0911 92.6305 78.4235 93.5254 77.991C94.4207 77.553 95.4059 77.3752 96.4808 77.4578C97.9701 77.5723 99.122 78.01 99.9364 78.7709C100.757 79.5267 101.273 80.5406 101.485 81.8128L99.394 81.9816C99.2195 81.2473 98.8883 80.6474 98.4003 80.1819C97.9128 79.7108 97.2659 79.4442 96.4597 79.3823C95.6487 79.3087 94.9605 79.4332 94.3951 79.7558C93.8296 80.0785 93.3843 80.5595 93.0592 81.1991C92.7397 81.8391 92.546 82.6014 92.478 83.486C92.41 84.3706 92.4852 85.1508 92.7036 85.8265C92.9225 86.4966 93.2866 87.0343 93.7961 87.4395C94.3113 87.8451 94.9743 88.0847 95.7853 88.1583C96.3951 88.2108 96.9382 88.1427 97.4145 87.9541C97.8912 87.7598 98.2928 87.4443 98.6192 87.0076C98.946 86.5653 99.1865 86.0008 99.3407 85.3143L97.2075 85.1504L97.3295 83.5632L101.613 83.8923C101.617 83.9828 101.615 84.115 101.607 84.289C101.6 84.463 101.595 84.5667 101.592 84.6003C101.504 85.7425 101.199 86.7412 100.677 87.5966C100.162 88.4468 99.4643 89.0915 98.5858 89.5309C97.7073 89.9702 96.6829 90.1449 95.5128 90.055ZM102.321 90.3248L103.25 78.2315L111.06 78.8317L110.914 80.7296L105.128 80.285L104.899 83.2663L109.678 83.6335L109.532 85.5315L104.753 85.1643L104.491 88.5823L110.277 89.027L110.131 90.925L102.321 90.3248Z" fill="#202020"/>
<path d="M134.759 86.2983C130.99 86.0087 127.701 88.8289 127.411 92.5975C127.701 88.8289 124.88 85.5392 121.112 85.2496C124.88 85.5392 128.17 82.7191 128.46 78.9505C128.17 82.7191 130.99 86.0087 134.759 86.2983Z" fill="#202020"/>
<path d="M144.36 93.5553L145.289 81.462L149.144 81.7582C149.244 81.766 149.443 81.784 149.739 81.8124C150.041 81.8413 150.331 81.8832 150.608 81.9383C151.556 82.1351 152.339 82.5388 152.956 83.1494C153.58 83.7549 154.03 84.5019 154.305 85.3903C154.58 86.2788 154.678 87.2353 154.6 88.2598C154.521 89.2844 154.278 90.2147 153.87 91.0506C153.462 91.8866 152.904 92.5589 152.194 93.0676C151.491 93.5711 150.656 93.8477 149.689 93.8973C149.412 93.9098 149.122 93.9072 148.82 93.8896C148.517 93.8719 148.315 93.8592 148.214 93.8515L144.36 93.5553ZM146.564 91.807L148.361 91.9451C148.529 91.958 148.742 91.9688 149 91.9774C149.264 91.9864 149.499 91.9791 149.703 91.9554C150.282 91.8929 150.767 91.6738 151.156 91.2983C151.545 90.9227 151.846 90.453 152.058 89.8893C152.276 89.3259 152.409 88.7279 152.458 88.0953C152.508 87.4402 152.469 86.8177 152.34 86.2277C152.21 85.6377 151.979 85.1327 151.645 84.7128C151.317 84.2934 150.877 84.009 150.325 83.8596C150.127 83.7993 149.897 83.7562 149.634 83.7304C149.377 83.6994 149.165 83.6775 148.997 83.6646L147.2 83.5265L146.564 91.807ZM158.026 94.6055L158.407 89.6506L154.84 82.196L157.2 82.3773L159.61 87.4115L162.751 82.8039L165.111 82.9853L160.456 89.8081L160.075 94.763L158.026 94.6055ZM164.83 95.1284L165.759 83.0351L167.808 83.1925L172.763 92.1477L173.418 83.6236L175.468 83.7811L174.538 95.8744L172.489 95.7169L167.534 86.7617L166.879 95.2858L164.83 95.1284ZM175.521 95.9499L180.263 84.1496L183.228 84.3775L186.111 96.7638L184.028 96.6037L181.402 85.4874L181.856 85.5223L177.604 96.11L175.521 95.9499ZM177.847 93.493L177.992 91.6034L184.341 92.0913L184.196 93.9809L177.847 93.493ZM187.105 96.8401L188.034 84.7468L189.856 84.8868L193.38 93.7743L198.221 85.5296L200.043 85.6697L199.114 97.763L197.224 97.6178L197.82 89.8663L193.512 97.3325L192.706 97.2706L189.598 89.2345L189.003 96.986L187.105 96.8401ZM201.116 97.9169L202.046 85.8236L204.07 85.9791L203.14 98.0724L201.116 97.9169ZM210.226 98.8703C209.017 98.7774 208.001 98.4347 207.18 97.8421C206.358 97.244 205.752 96.454 205.36 95.4721C204.973 94.4906 204.828 93.3756 204.924 92.1271C205.02 90.8786 205.334 89.7989 205.866 88.8879C206.403 87.9775 207.123 87.2922 208.026 86.8322C208.929 86.3666 209.985 86.1802 211.194 86.2732C212.588 86.3803 213.723 86.8195 214.599 87.5908C215.475 88.3564 216.055 89.3443 216.339 90.5545L214.255 90.9603C214.081 90.1528 213.728 89.5062 213.196 89.0205C212.665 88.5291 211.949 88.2488 211.048 88.1795C210.236 88.1171 209.545 88.247 208.973 88.5692C208.408 88.8918 207.963 89.3729 207.638 90.0125C207.319 90.6469 207.122 91.4062 207.049 92.2904C206.981 93.175 207.056 93.9579 207.274 94.6392C207.498 95.3154 207.867 95.8563 208.382 96.2619C208.897 96.6676 209.561 96.9016 210.373 96.964C211.274 97.0332 212.025 96.8657 212.625 96.4612C213.225 96.0568 213.672 95.4717 213.968 94.7059L215.965 95.4254C215.499 96.5779 214.775 97.4684 213.791 98.0968C212.809 98.7196 211.62 98.9775 210.226 98.8703ZM219.844 99.356L220.774 87.2627L222.823 87.4202L227.778 96.3754L228.433 87.8513L230.482 88.0088L229.552 100.102L227.503 99.9446L222.548 90.9894L221.893 99.5135L219.844 99.356ZM231.375 100.242L232.305 88.1488L239.586 88.7084L239.43 90.7323L234.173 90.3283L233.941 93.3433L238.191 93.6698L238.036 95.6854L233.786 95.3588L233.399 100.398L231.375 100.242ZM242.548 101.101L243.331 90.9054L239.418 90.6047L239.564 88.7067L249.415 89.4637L249.269 91.3617L245.355 91.0609L244.572 101.256L242.548 101.101Z" fill="#202020"/>
<path d="M270.943 96.7636C267.175 96.474 263.885 99.2941 263.595 103.063C263.885 99.2941 261.065 96.0044 257.296 95.7148C261.065 96.0044 264.354 93.1843 264.644 89.4157C264.354 93.1843 267.175 96.474 270.943 96.7636Z" fill="#202020"/>
<path d="M280.544 104.021L281.473 91.9273L283.296 92.0674L286.82 100.955L291.66 92.7101L293.482 92.8502L292.553 104.943L290.664 104.798L291.259 97.0468L286.952 104.513L286.145 104.451L283.037 96.415L282.442 104.166L280.544 104.021ZM293.548 105.02L298.29 93.2196L301.254 93.4474L304.138 105.834L302.055 105.674L299.429 94.5574L299.882 94.5923L295.631 105.18L293.548 105.02ZM295.874 102.563L296.019 100.673L302.368 101.161L302.223 103.051L295.874 102.563ZM305.131 105.91L306.061 93.8168L309.915 94.113C310.016 94.1207 310.215 94.1388 310.511 94.1672C310.813 94.1961 311.103 94.238 311.38 94.2931C312.328 94.4899 313.111 94.8936 313.728 95.5042C314.352 96.1097 314.801 96.8566 315.077 97.7451C315.352 98.6336 315.45 99.5901 315.371 100.615C315.293 101.639 315.049 102.569 314.642 103.405C314.234 104.241 313.675 104.914 312.966 105.422C312.263 105.926 311.428 106.202 310.461 106.252C310.184 106.265 309.894 106.262 309.591 106.244C309.289 106.227 309.087 106.214 308.986 106.206L305.131 105.91ZM307.335 104.162L309.133 104.3C309.3 104.313 309.514 104.324 309.772 104.332C310.036 104.341 310.27 104.334 310.475 104.31C311.054 104.248 311.538 104.029 311.928 103.653C312.317 103.277 312.618 102.808 312.83 102.244C313.048 101.681 313.181 101.083 313.23 100.45C313.28 99.795 313.241 99.1725 313.111 98.5825C312.982 97.9925 312.751 97.4875 312.417 97.0676C312.089 96.6482 311.649 96.3638 311.097 96.2144C310.899 96.1541 310.669 96.111 310.406 96.0852C310.149 96.0542 309.937 96.0323 309.769 96.0194L307.972 95.8813L307.335 104.162ZM316.367 106.774L317.296 94.6802L325.107 95.2804L324.961 97.1784L319.174 96.7337L318.945 99.7151L323.724 100.082L323.578 101.98L318.8 101.613L318.537 105.031L324.323 105.476L324.177 107.374L316.367 106.774ZM331.411 107.93L332.194 97.7342L328.281 97.4335L328.427 95.5355L338.278 96.2925L338.132 98.1905L334.218 97.8898L333.435 108.085L331.411 107.93ZM343.261 109.094C342.052 109.001 341.036 108.658 340.215 108.065C339.393 107.467 338.787 106.677 338.395 105.695C338.008 104.714 337.863 103.599 337.959 102.35C338.055 101.102 338.369 100.022 338.901 99.1113C339.438 98.2008 340.158 97.5155 341.061 97.0555C341.964 96.5899 343.02 96.4035 344.229 96.4965C345.439 96.5894 346.454 96.9349 347.275 97.5331C348.103 98.1261 348.709 98.9133 349.096 99.8947C349.488 100.877 349.636 101.992 349.54 103.24C349.444 104.489 349.127 105.568 348.59 106.479C348.058 107.39 347.338 108.078 346.429 108.543C345.527 109.003 344.471 109.187 343.261 109.094ZM343.408 107.187C344.219 107.255 344.908 107.128 345.473 106.805C346.044 106.483 346.489 106.002 346.809 105.362C347.134 104.722 347.33 103.96 347.398 103.076C347.466 102.191 347.388 101.414 347.164 100.743C346.945 100.067 346.579 99.5267 346.063 99.1211C345.554 98.7158 344.894 98.4764 344.083 98.4029C343.271 98.3349 342.583 98.4622 342.017 98.7848C341.452 99.1074 341.007 99.5885 340.682 100.228C340.362 100.868 340.168 101.63 340.1 102.515C340.032 103.4 340.108 104.18 340.326 104.855C340.545 105.526 340.909 106.063 341.419 106.468C341.934 106.874 342.597 107.114 343.408 107.187ZM358.155 110.238C356.945 110.145 355.93 109.803 355.108 109.21C354.287 108.612 353.68 107.822 353.288 106.84C352.902 105.858 352.757 104.743 352.852 103.495C352.948 102.246 353.262 101.167 353.794 100.256C354.332 99.3453 355.052 98.6601 355.954 98.2C356.857 97.7344 357.913 97.5481 359.123 97.641C360.517 97.7481 361.652 98.1873 362.527 98.9586C363.403 99.7243 363.984 100.712 364.268 101.922L362.184 102.328C362.009 101.521 361.656 100.874 361.125 100.388C360.594 99.897 359.878 99.6166 358.976 99.5474C358.164 99.485 357.473 99.6149 356.902 99.9371C356.337 100.26 355.891 100.741 355.566 101.38C355.247 102.015 355.051 102.774 354.977 103.658C354.909 104.543 354.984 105.326 355.202 106.007C355.426 106.683 355.796 107.224 356.311 107.63C356.826 108.035 357.489 108.269 358.301 108.332C359.203 108.401 359.953 108.233 360.553 107.829C361.153 107.425 361.601 106.839 361.896 106.074L363.894 106.793C363.428 107.946 362.703 108.836 361.72 109.465C360.737 110.087 359.549 110.345 358.155 110.238ZM364.935 110.506L365.864 98.4125L367.888 98.568L367.497 103.657L373.225 104.097L373.616 99.0082L375.631 99.1631L374.702 111.256L372.687 111.101L373.079 105.995L367.351 105.555L366.959 110.661L364.935 110.506ZM375.692 111.332L380.434 99.5321L383.399 99.7599L386.282 112.146L384.199 111.986L381.573 100.87L382.027 100.905L377.775 111.492L375.692 111.332ZM378.018 108.875L378.163 106.986L384.512 107.474L384.367 109.363L378.018 108.875ZM387.275 112.223L388.205 100.129L390.254 100.287L395.209 109.242L395.864 100.718L397.913 100.875L396.984 112.969L394.935 112.811L389.98 103.856L389.325 112.38L387.275 112.223ZM403.776 113.744C402.992 113.684 402.266 113.49 401.598 113.163C400.937 112.83 400.366 112.375 399.887 111.798C399.413 111.221 399.061 110.532 398.829 109.731C398.599 108.925 398.522 108.018 398.599 107.01C398.701 105.689 399.034 104.58 399.598 103.683C400.163 102.78 400.893 102.112 401.788 101.68C402.684 101.242 403.669 101.064 404.744 101.147C406.233 101.261 407.385 101.699 408.199 102.46C409.02 103.216 409.536 104.23 409.748 105.502L407.657 105.671C407.482 104.936 407.151 104.336 406.663 103.871C406.176 103.4 405.529 103.133 404.722 103.071C403.911 102.998 403.223 103.122 402.658 103.445C402.092 103.767 401.647 104.249 401.322 104.888C401.003 105.528 400.809 106.29 400.741 107.175C400.673 108.06 400.748 108.84 400.966 109.515C401.185 110.186 401.549 110.723 402.059 111.128C402.574 111.534 403.237 111.774 404.048 111.847C404.658 111.9 405.201 111.832 405.677 111.643C406.154 111.449 406.556 111.133 406.882 110.697C407.209 110.254 407.449 109.69 407.603 109.003L405.47 108.839L405.592 107.252L409.875 107.581C409.88 107.672 409.878 107.804 409.87 107.978C409.862 108.152 409.857 108.256 409.855 108.289C409.767 109.431 409.462 110.43 408.94 111.286C408.424 112.136 407.727 112.78 406.849 113.22C405.97 113.659 404.946 113.834 403.776 113.744ZM410.584 114.014L411.513 101.92L419.323 102.521L419.177 104.419L413.391 103.974L413.162 106.955L417.94 107.322L417.795 109.22L413.016 108.853L412.753 112.271L418.54 112.716L418.394 114.614L410.584 114.014Z" fill="#202020"/>
</svg>
