<svg width="1440" height="374" viewBox="0 0 1440 374" fill="none" xmlns="http://www.w3.org/2000/svg">
<rect x="-16.9766" y="94.4968" width="1484.45" height="80" transform="rotate(4.39435 -16.9766 94.4968)" fill="#EBB5FC"/>
<path d="M-160.682 132.869L-158.917 109.897L-151.594 110.46C-151.403 110.474 -151.026 110.509 -150.463 110.563C-149.889 110.617 -149.339 110.697 -148.812 110.802C-147.012 111.176 -145.525 111.942 -144.352 113.102C-143.167 114.253 -142.313 115.671 -141.79 117.359C-141.267 119.047 -141.081 120.864 -141.23 122.81C-141.38 124.756 -141.842 126.523 -142.616 128.111C-143.391 129.699 -144.452 130.977 -145.799 131.943C-147.135 132.899 -148.722 133.425 -150.558 133.519C-151.084 133.543 -151.635 133.538 -152.21 133.504C-152.785 133.471 -153.168 133.447 -153.36 133.432L-160.682 132.869ZM-156.495 129.548L-153.081 129.811C-152.762 129.835 -152.357 129.856 -151.867 129.872C-151.365 129.889 -150.92 129.875 -150.531 129.83C-149.431 129.711 -148.511 129.295 -147.772 128.582C-147.032 127.868 -146.461 126.976 -146.058 125.905C-145.644 124.835 -145.391 123.699 -145.298 122.497C-145.203 121.253 -145.278 120.071 -145.523 118.95C-145.769 117.829 -146.208 116.87 -146.842 116.072C-147.466 115.276 -148.302 114.735 -149.35 114.451C-149.726 114.337 -150.164 114.255 -150.663 114.206C-151.15 114.147 -151.554 114.106 -151.873 114.081L-155.287 113.819L-156.495 129.548ZM-134.721 134.864L-133.998 125.452L-140.773 111.291L-136.29 111.636L-131.713 121.199L-125.745 112.446L-121.262 112.791L-130.105 125.751L-130.829 135.163L-134.721 134.864ZM-121.797 135.857L-120.031 112.885L-116.139 113.184L-106.727 130.196L-105.482 114.003L-101.59 114.302L-103.355 137.275L-107.248 136.976L-116.66 119.964L-117.904 136.157L-121.797 135.857ZM-101.488 137.418L-92.4799 115.002L-86.8485 115.435L-81.3712 138.964L-85.3275 138.66L-90.3163 117.544L-89.4548 117.61L-97.5316 137.722L-101.488 137.418ZM-97.0693 132.751L-96.7935 129.162L-84.733 130.088L-85.0089 133.678L-97.0693 132.751ZM-79.484 139.109L-77.7187 116.137L-74.2569 116.403L-67.5628 133.285L-58.3677 117.624L-54.9059 117.89L-56.6713 140.862L-60.2607 140.586L-59.1292 125.862L-67.3119 140.044L-68.8434 139.927L-74.7471 124.662L-75.8786 139.386L-79.484 139.109ZM-52.8675 141.154L-51.1021 118.182L-47.2575 118.478L-49.0228 141.45L-52.8675 141.154ZM-35.5626 142.966C-37.8599 142.789 -39.789 142.138 -41.35 141.013C-42.9102 139.876 -44.0626 138.376 -44.8072 136.51C-45.5412 134.646 -45.817 132.528 -45.6348 130.156C-45.4525 127.785 -44.8563 125.734 -43.8461 124.003C-42.8252 122.274 -41.4575 120.972 -39.7428 120.098C-38.0273 119.214 -36.021 118.86 -33.7237 119.036C-31.0756 119.24 -28.9198 120.074 -27.2565 121.539C-25.5924 122.994 -24.4903 124.87 -23.9502 127.169L-27.9089 127.94C-28.2403 126.406 -28.9108 125.178 -29.9204 124.255C-30.9292 123.322 -32.2897 122.789 -34.002 122.658C-35.5442 122.539 -36.8576 122.786 -37.9423 123.398C-39.0165 124.011 -39.8623 124.925 -40.4799 126.139C-41.086 127.345 -41.4589 128.787 -41.5987 130.466C-41.7278 132.147 -41.5854 133.634 -41.1713 134.928C-40.7458 136.213 -40.0438 137.24 -39.0653 138.011C-38.0868 138.781 -36.8265 139.226 -35.2844 139.344C-33.5721 139.476 -32.1462 139.158 -31.0066 138.389C-29.8671 137.621 -29.0167 136.51 -28.4556 135.055L-24.6612 136.422C-25.5462 138.611 -26.9225 140.303 -28.7901 141.496C-30.657 142.679 -32.9145 143.169 -35.5626 142.966ZM-17.2924 143.888L-15.527 120.916L-11.6345 121.215L-2.22225 138.226L-0.97793 122.034L2.91459 122.333L1.14925 145.305L-2.74327 145.006L-12.1555 127.995L-13.3999 144.187L-17.2924 143.888ZM4.61179 145.572L6.37713 122.599L20.2084 123.662L19.9129 127.507L9.92635 126.739L9.48624 132.466L17.5584 133.087L17.2642 136.916L9.19202 136.295L8.45646 145.867L4.61179 145.572ZM25.8352 147.202L27.3235 127.836L19.8894 127.264L20.1665 123.659L38.8793 125.097L38.6022 128.702L31.1682 128.131L29.6799 147.498L25.8352 147.202Z" fill="#202020"/>
<path d="M79.3308 138.777C72.1721 138.226 65.9231 143.584 65.373 150.742C65.9231 143.584 60.566 137.335 53.4073 136.784C60.566 137.335 66.815 131.978 67.3651 124.819C66.815 131.978 72.1721 138.226 79.3308 138.777Z" fill="#202020"/>
<path d="M97.5565 152.714L99.3219 129.742L102.784 130.008L109.478 146.89L118.673 131.229L122.135 131.495L120.369 154.467L116.78 154.191L117.911 139.467L109.729 153.649L108.197 153.532L102.293 138.267L101.162 152.991L97.5565 152.714ZM122.259 154.612L131.267 132.197L136.898 132.629L142.375 156.158L138.419 155.854L133.43 134.738L134.292 134.804L126.215 154.916L122.259 154.612ZM126.677 149.945L126.953 146.356L139.014 147.283L138.738 150.872L126.677 149.945ZM144.263 156.303L146.028 133.331L153.35 133.894C153.542 133.908 153.919 133.943 154.482 133.997C155.055 134.051 155.605 134.131 156.132 134.236C157.933 134.61 159.42 135.376 160.593 136.536C161.778 137.687 162.632 139.105 163.155 140.793C163.677 142.481 163.864 144.298 163.715 146.244C163.565 148.19 163.103 149.957 162.328 151.545C161.554 153.133 160.493 154.411 159.145 155.377C157.809 156.333 156.223 156.859 154.387 156.953C153.861 156.977 153.31 156.972 152.735 156.938C152.16 156.905 151.776 156.881 151.585 156.866L144.263 156.303ZM148.449 152.982L151.863 153.245C152.182 153.269 152.587 153.29 153.078 153.306C153.58 153.323 154.025 153.309 154.413 153.264C155.514 153.145 156.434 152.729 157.173 152.016C157.913 151.302 158.484 150.41 158.887 149.339C159.301 148.269 159.554 147.133 159.646 145.931C159.742 144.687 159.667 143.505 159.422 142.384C159.176 141.263 158.736 140.304 158.102 139.506C157.479 138.709 156.643 138.169 155.595 137.885C155.219 137.771 154.781 137.689 154.282 137.64C153.794 137.581 153.391 137.54 153.072 137.515L149.658 137.253L148.449 152.982ZM165.606 157.943L167.371 134.971L182.208 136.111L181.93 139.717L170.939 138.872L170.504 144.535L179.581 145.233L179.304 148.838L170.227 148.141L169.728 154.633L180.719 155.478L180.442 159.084L165.606 157.943ZM194.183 160.139L195.671 140.773L188.237 140.201L188.514 136.596L207.227 138.034L206.95 141.639L199.516 141.068L198.027 160.435L194.183 160.139ZM216.694 162.351C214.396 162.174 212.467 161.523 210.906 160.398C209.346 159.261 208.194 157.761 207.449 155.895C206.715 154.031 206.439 151.913 206.621 149.541C206.804 147.17 207.4 145.119 208.41 143.388C209.431 141.659 210.799 140.357 212.513 139.483C214.229 138.599 216.235 138.245 218.533 138.421C220.83 138.598 222.758 139.254 224.319 140.39C225.89 141.517 227.043 143.012 227.777 144.877C228.522 146.742 228.803 148.86 228.621 151.232C228.438 153.604 227.837 155.654 226.816 157.384C225.806 159.114 224.438 160.421 222.711 161.305C220.997 162.179 218.991 162.527 216.694 162.351ZM216.972 158.729C218.513 158.859 219.821 158.617 220.895 158.004C221.98 157.392 222.826 156.478 223.433 155.262C224.05 154.047 224.423 152.6 224.553 150.919C224.682 149.239 224.533 147.762 224.107 146.488C223.692 145.205 222.995 144.177 222.017 143.407C221.049 142.637 219.795 142.182 218.254 142.043C216.713 141.913 215.405 142.155 214.331 142.768C213.257 143.381 212.411 144.295 211.794 145.51C211.187 146.726 210.819 148.174 210.69 149.854C210.56 151.534 210.703 153.016 211.118 154.3C211.534 155.573 212.226 156.594 213.193 157.364C214.172 158.134 215.431 158.59 216.972 158.729ZM244.985 164.525C242.688 164.348 240.759 163.697 239.198 162.572C237.638 161.435 236.485 159.935 235.741 158.07C235.007 156.205 234.731 154.087 234.913 151.715C235.095 149.344 235.692 147.293 236.702 145.562C237.723 143.833 239.09 142.531 240.805 141.657C242.521 140.773 244.527 140.419 246.824 140.595C249.472 140.799 251.628 141.633 253.291 143.098C254.955 144.553 256.058 146.429 256.598 148.728L252.639 149.499C252.308 147.965 251.637 146.737 250.627 145.814C249.619 144.881 248.258 144.348 246.546 144.217C245.004 144.098 243.69 144.345 242.606 144.957C241.531 145.57 240.686 146.484 240.068 147.699C239.462 148.904 239.089 150.346 238.949 152.026C238.82 153.706 238.963 155.193 239.377 156.487C239.802 157.772 240.504 158.799 241.483 159.57C242.461 160.34 243.721 160.785 245.264 160.904C246.976 161.035 248.402 160.717 249.541 159.948C250.681 159.18 251.531 158.069 252.092 156.614L255.887 157.981C255.002 160.17 253.625 161.862 251.758 163.055C249.891 164.239 247.633 164.728 244.985 164.525ZM257.865 165.033L259.63 142.061L263.475 142.356L262.732 152.024L273.612 152.86L274.355 143.192L278.184 143.487L276.418 166.459L272.59 166.165L273.335 156.465L262.455 155.629L261.71 165.329L257.865 165.033ZM278.299 166.603L287.307 144.188L292.938 144.621L298.415 168.149L294.459 167.845L289.47 146.729L290.332 146.795L282.255 166.908L278.299 166.603ZM282.717 161.936L282.993 158.347L295.054 159.274L294.778 162.863L282.717 161.936ZM300.303 168.294L302.068 145.322L305.96 145.621L315.373 162.632L316.617 146.44L320.509 146.739L318.744 169.712L314.852 169.412L305.439 152.401L304.195 168.594L300.303 168.294ZM331.646 171.184C330.157 171.07 328.779 170.702 327.51 170.08C326.254 169.449 325.17 168.585 324.26 167.488C323.36 166.391 322.69 165.083 322.25 163.562C321.812 162.031 321.666 160.308 321.813 158.393C322.006 155.884 322.639 153.776 323.711 152.072C324.784 150.357 326.171 149.089 327.871 148.268C329.572 147.436 331.443 147.098 333.485 147.255C336.314 147.472 338.502 148.304 340.049 149.749C341.608 151.185 342.588 153.111 342.991 155.528L339.019 155.848C338.687 154.453 338.058 153.314 337.131 152.43C336.205 151.535 334.976 151.028 333.445 150.911C331.904 150.771 330.597 151.007 329.523 151.62C328.449 152.233 327.603 153.147 326.985 154.362C326.378 155.578 326.01 157.026 325.881 158.706C325.752 160.386 325.895 161.868 326.31 163.152C326.725 164.425 327.417 165.446 328.385 166.216C329.364 166.987 330.623 167.442 332.164 167.582C333.322 167.681 334.354 167.552 335.258 167.194C336.164 166.824 336.927 166.225 337.547 165.396C338.168 164.555 338.625 163.483 338.917 162.179L334.865 161.868L335.097 158.853L343.233 159.478C343.241 159.65 343.238 159.901 343.223 160.231C343.209 160.562 343.199 160.759 343.194 160.823C343.027 162.992 342.448 164.89 341.457 166.514C340.477 168.129 339.152 169.354 337.483 170.189C335.815 171.023 333.869 171.355 331.646 171.184ZM344.578 171.697L346.344 148.725L361.18 149.865L360.903 153.47L349.911 152.625L349.476 158.289L358.553 158.986L358.276 162.592L349.199 161.894L348.7 168.387L359.692 169.232L359.414 172.837L344.578 171.697Z" fill="#202020"/>
<path d="M405.37 163.832C398.211 163.281 391.962 168.639 391.412 175.797C391.962 168.639 386.605 162.39 379.446 161.839C386.605 162.39 392.854 157.032 393.404 149.874C392.854 157.032 398.211 163.281 405.37 163.832Z" fill="#202020"/>
<path d="M423.595 177.769L425.361 154.797L432.683 155.359C432.874 155.374 433.252 155.409 433.814 155.462C434.388 155.517 434.938 155.597 435.465 155.702C437.266 156.075 438.753 156.842 439.926 158.002C441.11 159.152 441.964 160.571 442.487 162.259C443.01 163.947 443.197 165.764 443.047 167.71C442.898 169.656 442.436 171.423 441.661 173.011C440.886 174.599 439.825 175.876 438.478 176.843C437.142 177.799 435.556 178.324 433.719 178.419C433.193 178.442 432.643 178.438 432.067 178.404C431.492 178.371 431.109 178.346 430.918 178.332L423.595 177.769ZM427.782 174.448L431.196 174.71C431.515 174.735 431.92 174.755 432.411 174.772C432.912 174.789 433.357 174.775 433.746 174.73C434.846 174.611 435.766 174.195 436.506 173.482C437.245 172.768 437.817 171.876 438.22 170.805C438.634 169.735 438.887 168.599 438.979 167.397C439.075 166.153 439 164.97 438.754 163.85C438.509 162.729 438.069 161.77 437.435 160.972C436.811 160.175 435.976 159.635 434.928 159.351C434.551 159.237 434.114 159.155 433.615 159.106C433.127 159.047 432.724 159.005 432.405 158.981L428.991 158.718L427.782 174.448ZM449.556 179.764L450.279 170.352L443.505 156.191L447.987 156.536L452.564 166.098L458.532 157.346L463.015 157.69L454.172 170.651L453.449 180.063L449.556 179.764ZM462.481 180.757L464.246 157.785L468.138 158.084L477.551 175.095L478.795 158.903L482.688 159.202L480.922 182.174L477.03 181.875L467.617 164.864L466.373 181.056L462.481 180.757ZM482.789 182.318L491.797 159.902L497.429 160.335L502.906 183.864L498.95 183.56L493.961 162.443L494.823 162.51L486.746 182.622L482.789 182.318ZM487.208 177.651L487.484 174.061L499.544 174.988L499.268 178.578L487.208 177.651ZM504.793 184.009L506.559 161.037L510.02 161.303L516.715 178.185L525.91 162.524L529.371 162.79L527.606 185.762L524.017 185.486L525.148 170.761L516.965 184.944L515.434 184.827L509.53 169.561L508.399 184.286L504.793 184.009ZM531.41 186.054L533.175 163.082L537.02 163.377L535.255 186.35L531.41 186.054ZM548.715 187.865C546.417 187.689 544.488 187.038 542.927 185.912C541.367 184.776 540.215 183.275 539.47 181.41C538.736 179.546 538.46 177.428 538.643 175.056C538.825 172.684 539.421 170.633 540.431 168.903C541.452 167.174 542.82 165.872 544.535 164.998C546.25 164.113 548.256 163.759 550.554 163.936C553.202 164.14 555.358 164.974 557.021 166.439C558.685 167.893 559.787 169.77 560.327 172.069L556.368 172.84C556.037 171.306 555.367 170.078 554.357 169.155C553.348 168.221 551.988 167.689 550.275 167.557C548.733 167.439 547.42 167.686 546.335 168.298C545.261 168.91 544.415 169.824 543.797 171.039C543.191 172.244 542.818 173.687 542.679 175.366C542.55 177.047 542.692 178.534 543.106 179.828C543.532 181.112 544.234 182.14 545.212 182.911C546.191 183.681 547.451 184.126 548.993 184.244C550.705 184.376 552.131 184.057 553.271 183.289C554.41 182.521 555.261 181.409 555.822 179.955L559.616 181.322C558.731 183.511 557.355 185.202 555.487 186.396C553.62 187.579 551.363 188.069 548.715 187.865ZM566.985 188.788L568.75 165.816L572.643 166.115L582.055 183.126L583.299 166.934L587.192 167.233L585.427 190.205L581.534 189.906L572.122 172.895L570.877 189.087L566.985 188.788ZM588.889 190.471L590.654 167.499L604.486 168.562L604.19 172.407L594.204 171.639L593.764 177.366L601.836 177.987L601.542 181.815L593.469 181.195L592.734 190.767L588.889 190.471ZM610.113 192.102L611.601 172.735L604.167 172.164L604.444 168.559L623.157 169.997L622.88 173.602L615.446 173.031L613.957 192.398L610.113 192.102Z" fill="#202020"/>
<path d="M663.608 183.676C656.449 183.126 650.2 188.483 649.65 195.642C650.2 188.483 644.843 182.234 637.685 181.684C644.843 182.234 651.092 176.877 651.642 169.718C651.092 176.877 656.449 183.126 663.608 183.676Z" fill="#202020"/>
<path d="M681.834 197.614L683.599 174.641L687.061 174.908L693.755 191.79L702.95 176.129L706.412 176.395L704.647 199.367L701.057 199.091L702.189 184.366L694.006 198.549L692.475 198.431L686.571 183.166L685.439 197.891L681.834 197.614ZM706.536 199.512L715.544 177.096L721.175 177.529L726.653 201.058L722.696 200.754L717.708 179.638L718.569 179.704L710.492 199.816L706.536 199.512ZM710.955 194.845L711.23 191.255L723.291 192.182L723.015 195.772L710.955 194.845ZM728.54 201.203L730.305 178.231L737.628 178.793C737.819 178.808 738.196 178.842 738.759 178.896C739.333 178.951 739.883 179.031 740.41 179.136C742.21 179.509 743.697 180.276 744.87 181.436C746.055 182.586 746.909 184.005 747.432 185.693C747.955 187.381 748.141 189.198 747.992 191.144C747.842 193.09 747.38 194.857 746.606 196.445C745.831 198.033 744.77 199.31 743.423 200.277C742.087 201.233 740.501 201.758 738.664 201.853C738.138 201.876 737.587 201.871 737.012 201.838C736.437 201.804 736.054 201.78 735.862 201.766L728.54 201.203ZM732.727 197.882L736.141 198.144C736.46 198.169 736.865 198.189 737.355 198.206C737.857 198.223 738.302 198.209 738.691 198.164C739.791 198.045 740.711 197.629 741.45 196.916C742.19 196.202 742.761 195.31 743.164 194.239C743.578 193.169 743.831 192.033 743.924 190.831C744.019 189.587 743.945 188.404 743.699 187.284C743.453 186.163 743.014 185.204 742.38 184.406C741.756 183.609 740.92 183.069 739.872 182.785C739.496 182.671 739.058 182.589 738.559 182.54C738.072 182.481 737.668 182.439 737.349 182.415L733.935 182.152L732.727 197.882ZM749.883 202.843L751.649 179.871L766.485 181.011L766.208 184.616L755.216 183.772L754.781 189.435L763.858 190.133L763.581 193.738L754.504 193.04L754.005 199.533L764.997 200.378L764.72 203.983L749.883 202.843ZM778.46 205.039L779.948 185.672L772.514 185.101L772.791 181.496L791.504 182.934L791.227 186.539L783.793 185.968L782.305 205.335L778.46 205.039ZM800.971 207.25C798.674 207.074 796.745 206.423 795.184 205.297C793.623 204.161 792.471 202.66 791.726 200.795C790.992 198.931 790.717 196.813 790.899 194.441C791.081 192.069 791.677 190.018 792.688 188.288C793.708 186.559 795.076 185.257 796.791 184.383C798.506 183.498 800.513 183.144 802.81 183.321C805.107 183.498 807.036 184.154 808.596 185.29C810.168 186.417 811.32 187.912 812.054 189.776C812.799 191.642 813.08 193.76 812.898 196.132C812.716 198.503 812.114 200.554 811.093 202.283C810.083 204.014 808.715 205.321 806.989 206.204C805.274 207.078 803.268 207.427 800.971 207.25ZM801.249 203.629C802.791 203.758 804.098 203.516 805.172 202.904C806.257 202.292 807.103 201.378 807.71 200.162C808.327 198.947 808.701 197.499 808.83 195.819C808.959 194.139 808.811 192.662 808.384 191.388C807.969 190.104 807.273 189.077 806.294 188.307C805.326 187.537 804.072 187.082 802.532 186.942C800.99 186.813 799.683 187.055 798.608 187.668C797.534 188.281 796.689 189.195 796.071 190.41C795.464 191.625 795.096 193.073 794.967 194.754C794.838 196.434 794.981 197.916 795.395 199.2C795.811 200.473 796.503 201.494 797.471 202.264C798.449 203.034 799.709 203.489 801.249 203.629ZM829.263 209.425C826.965 209.248 825.036 208.597 823.475 207.471C821.915 206.335 820.763 204.834 820.018 202.969C819.284 201.105 819.008 198.987 819.19 196.615C819.373 194.244 819.969 192.193 820.979 190.462C822 188.733 823.368 187.431 825.082 186.557C826.798 185.673 828.804 185.319 831.101 185.495C833.75 185.699 835.905 186.533 837.569 187.998C839.233 189.452 840.335 191.329 840.875 193.628L836.916 194.399C836.585 192.865 835.914 191.637 834.905 190.714C833.896 189.781 832.535 189.248 830.823 189.116C829.281 188.998 827.968 189.245 826.883 189.857C825.809 190.47 824.963 191.383 824.345 192.598C823.739 193.803 823.366 195.246 823.227 196.925C823.097 198.606 823.24 200.093 823.654 201.387C824.079 202.672 824.781 203.699 825.76 204.47C826.738 205.24 827.999 205.685 829.541 205.803C831.253 205.935 832.679 205.616 833.819 204.848C834.958 204.08 835.808 202.968 836.37 201.514L840.164 202.881C839.279 205.07 837.903 206.761 836.035 207.955C834.168 209.138 831.911 209.628 829.263 209.425ZM842.142 209.933L843.908 186.961L847.752 187.256L847.01 196.924L857.889 197.76L858.632 188.092L862.461 188.386L860.696 211.359L856.867 211.064L857.612 201.365L846.733 200.529L845.987 210.228L842.142 209.933ZM862.576 211.503L871.584 189.087L877.215 189.52L882.693 213.049L878.736 212.745L873.748 191.629L874.609 191.695L866.532 211.807L862.576 211.503ZM866.995 206.836L867.27 203.247L879.331 204.173L879.055 207.763L866.995 206.836ZM884.58 213.194L886.345 190.222L890.238 190.521L899.65 207.532L900.894 191.34L904.787 191.639L903.021 214.611L899.129 214.312L889.717 197.301L888.472 213.493L884.58 213.194ZM915.923 216.084C914.434 215.97 913.056 215.602 911.788 214.98C910.531 214.349 909.447 213.484 908.537 212.387C907.637 211.291 906.967 209.983 906.528 208.462C906.089 206.93 905.943 205.208 906.09 203.293C906.283 200.783 906.916 198.676 907.988 196.972C909.062 195.257 910.448 193.989 912.148 193.168C913.849 192.335 915.72 191.998 917.762 192.155C920.591 192.372 922.779 193.204 924.326 194.649C925.885 196.085 926.866 198.011 927.268 200.427L923.296 200.748C922.965 199.353 922.335 198.214 921.408 197.329C920.482 196.434 919.253 195.928 917.722 195.81C916.182 195.671 914.874 195.907 913.8 196.52C912.726 197.133 911.88 198.047 911.263 199.262C910.656 200.477 910.288 201.925 910.158 203.606C910.029 205.286 910.172 206.768 910.587 208.052C911.003 209.325 911.695 210.346 912.662 211.116C913.641 211.886 914.9 212.341 916.441 212.481C917.599 212.581 918.631 212.452 919.536 212.093C920.441 211.724 921.204 211.125 921.824 210.295C922.445 209.455 922.902 208.383 923.195 207.079L919.143 206.767L919.374 203.752L927.51 204.378C927.519 204.549 927.515 204.801 927.501 205.131C927.486 205.462 927.476 205.659 927.471 205.723C927.304 207.892 926.725 209.789 925.734 211.414C924.754 213.029 923.43 214.254 921.761 215.089C920.092 215.923 918.146 216.255 915.923 216.084ZM928.856 216.597L930.621 193.624L945.457 194.764L945.18 198.37L934.189 197.525L933.753 203.188L942.831 203.886L942.553 207.491L933.476 206.794L932.977 213.287L943.969 214.131L943.692 217.737L928.856 216.597Z" fill="#202020"/>
<path d="M989.647 208.731C982.488 208.181 976.239 213.538 975.689 220.697C976.239 213.538 970.882 207.289 963.723 206.739C970.882 207.289 977.131 201.932 977.681 194.773C977.131 201.932 982.488 208.181 989.647 208.731Z" fill="#202020"/>
<path d="M1007.87 222.669L1009.64 199.696L1016.96 200.259C1017.15 200.274 1017.53 200.308 1018.09 200.362C1018.67 200.417 1019.22 200.497 1019.74 200.601C1021.54 200.975 1023.03 201.742 1024.2 202.902C1025.39 204.052 1026.24 205.471 1026.76 207.159C1027.29 208.846 1027.47 210.663 1027.32 212.61C1027.17 214.556 1026.71 216.323 1025.94 217.911C1025.16 219.499 1024.1 220.776 1022.76 221.742C1021.42 222.699 1019.83 223.224 1018 223.318C1017.47 223.342 1016.92 223.337 1016.34 223.304C1015.77 223.27 1015.39 223.246 1015.19 223.231L1007.87 222.669ZM1012.06 219.348L1015.47 219.61C1015.79 219.635 1016.2 219.655 1016.69 219.671C1017.19 219.689 1017.63 219.675 1018.02 219.63C1019.12 219.511 1020.04 219.095 1020.78 218.381C1021.52 217.668 1022.09 216.776 1022.5 215.705C1022.91 214.635 1023.16 213.499 1023.26 212.297C1023.35 211.053 1023.28 209.87 1023.03 208.749C1022.79 207.629 1022.35 206.669 1021.71 205.872C1021.09 205.075 1020.25 204.535 1019.21 204.251C1018.83 204.136 1018.39 204.055 1017.89 204.006C1017.4 203.947 1017 203.905 1016.68 203.881L1013.27 203.618L1012.06 219.348ZM1033.83 224.664L1034.56 215.252L1027.78 201.091L1032.26 201.435L1036.84 210.998L1042.81 202.246L1047.29 202.59L1038.45 215.551L1037.73 224.963L1033.83 224.664ZM1046.76 225.657L1048.52 202.685L1052.42 202.984L1061.83 219.995L1063.07 203.803L1066.96 204.102L1065.2 227.074L1061.31 226.775L1051.89 209.764L1050.65 225.956L1046.76 225.657ZM1067.07 227.218L1076.07 204.802L1081.71 205.235L1087.18 228.764L1083.23 228.46L1078.24 207.343L1079.1 207.409L1071.02 227.522L1067.07 227.218ZM1071.49 222.55L1071.76 218.961L1083.82 219.888L1083.55 223.477L1071.49 222.55ZM1089.07 228.909L1090.84 205.936L1094.3 206.202L1100.99 223.085L1110.19 207.423L1113.65 207.689L1111.88 230.662L1108.29 230.386L1109.43 215.661L1101.24 229.844L1099.71 229.726L1093.81 214.461L1092.68 229.186L1089.07 228.909ZM1115.69 230.954L1117.45 207.982L1121.3 208.277L1119.53 231.249L1115.69 230.954ZM1132.99 232.765C1130.69 232.589 1128.77 231.938 1127.2 230.812C1125.64 229.676 1124.49 228.175 1123.75 226.31C1123.01 224.445 1122.74 222.327 1122.92 219.956C1123.1 217.584 1123.7 215.533 1124.71 213.803C1125.73 212.073 1127.1 210.772 1128.81 209.898C1130.53 209.013 1132.53 208.659 1134.83 208.836C1137.48 209.039 1139.63 209.874 1141.3 211.339C1142.96 212.793 1144.06 214.67 1144.6 216.969L1140.65 217.739C1140.31 216.206 1139.64 214.977 1138.63 214.054C1137.63 213.121 1136.26 212.589 1134.55 212.457C1133.01 212.339 1131.7 212.585 1130.61 213.197C1129.54 213.81 1128.69 214.724 1128.07 215.939C1127.47 217.144 1127.1 218.586 1126.96 220.266C1126.83 221.946 1126.97 223.434 1127.38 224.728C1127.81 226.012 1128.51 227.04 1129.49 227.81C1130.47 228.581 1131.73 229.025 1133.27 229.144C1134.98 229.275 1136.41 228.957 1137.55 228.189C1138.69 227.421 1139.54 226.309 1140.1 224.854L1143.89 226.221C1143.01 228.411 1141.63 230.102 1139.76 231.296C1137.9 232.479 1135.64 232.969 1132.99 232.765ZM1151.26 233.688L1153.03 210.716L1156.92 211.015L1166.33 228.026L1167.58 211.834L1171.47 212.133L1169.7 235.105L1165.81 234.806L1156.4 217.795L1155.15 233.987L1151.26 233.688ZM1173.17 235.371L1174.93 212.399L1188.76 213.462L1188.47 217.306L1178.48 216.539L1178.04 222.266L1186.11 222.886L1185.82 226.715L1177.75 226.095L1177.01 235.666L1173.17 235.371ZM1194.39 237.002L1195.88 217.635L1188.44 217.064L1188.72 213.458L1207.43 214.896L1207.16 218.502L1199.72 217.931L1198.23 237.297L1194.39 237.002Z" fill="#202020"/>
<path d="M1247.89 228.576C1240.73 228.026 1234.48 233.383 1233.93 240.542C1234.48 233.383 1229.12 227.134 1221.96 226.584C1229.12 227.134 1235.37 221.777 1235.92 214.618C1235.37 221.777 1240.73 228.026 1247.89 228.576Z" fill="#202020"/>
<path d="M1266.11 242.514L1267.88 219.541L1271.34 219.807L1278.03 236.69L1287.23 221.028L1290.69 221.294L1288.92 244.267L1285.33 243.991L1286.47 229.266L1278.28 243.449L1276.75 243.331L1270.85 228.066L1269.72 242.791L1266.11 242.514ZM1290.81 244.412L1299.82 221.996L1305.45 222.429L1310.93 245.958L1306.97 245.654L1301.98 224.537L1302.85 224.604L1294.77 244.716L1290.81 244.412ZM1295.23 239.745L1295.51 236.155L1307.57 237.082L1307.29 240.671L1295.23 239.745ZM1312.82 246.103L1314.58 223.13L1321.9 223.693C1322.1 223.708 1322.47 223.742 1323.04 223.796C1323.61 223.851 1324.16 223.931 1324.69 224.035C1326.49 224.409 1327.97 225.176 1329.15 226.336C1330.33 227.486 1331.19 228.905 1331.71 230.593C1332.23 232.28 1332.42 234.097 1332.27 236.044C1332.12 237.99 1331.66 239.757 1330.88 241.345C1330.11 242.933 1329.05 244.21 1327.7 245.176C1326.36 246.133 1324.78 246.658 1322.94 246.752C1322.42 246.776 1321.86 246.771 1321.29 246.738C1320.71 246.704 1320.33 246.68 1320.14 246.665L1312.82 246.103ZM1317 242.782L1320.42 243.044C1320.74 243.069 1321.14 243.089 1321.63 243.105C1322.13 243.123 1322.58 243.109 1322.97 243.064C1324.07 242.945 1324.99 242.529 1325.73 241.815C1326.47 241.102 1327.04 240.21 1327.44 239.139C1327.86 238.069 1328.11 236.933 1328.2 235.731C1328.3 234.487 1328.22 233.304 1327.98 232.183C1327.73 231.063 1327.29 230.103 1326.66 229.306C1326.03 228.509 1325.2 227.969 1324.15 227.685C1323.77 227.57 1323.34 227.489 1322.84 227.44C1322.35 227.381 1321.95 227.339 1321.63 227.315L1318.21 227.052L1317 242.782ZM1334.16 247.743L1335.93 224.771L1350.76 225.911L1350.49 229.516L1339.49 228.671L1339.06 234.335L1348.14 235.032L1347.86 238.638L1338.78 237.94L1338.28 244.433L1349.27 245.278L1349 248.883L1334.16 247.743ZM1362.74 249.939L1364.23 230.572L1356.79 230.001L1357.07 226.395L1375.78 227.833L1375.5 231.439L1368.07 230.867L1366.58 250.234L1362.74 249.939ZM1385.25 252.15C1382.95 251.974 1381.02 251.323 1379.46 250.197C1377.9 249.061 1376.75 247.56 1376 245.695C1375.27 243.831 1374.99 241.713 1375.18 239.341C1375.36 236.969 1375.95 234.918 1376.96 233.188C1377.99 231.458 1379.35 230.157 1381.07 229.283C1382.78 228.398 1384.79 228.044 1387.09 228.221C1389.38 228.397 1391.31 229.054 1392.87 230.19C1394.44 231.316 1395.6 232.812 1396.33 234.676C1397.08 236.541 1397.36 238.66 1397.18 241.031C1396.99 243.403 1396.39 245.454 1395.37 247.183C1394.36 248.914 1392.99 250.221 1391.27 251.104C1389.55 251.978 1387.55 252.327 1385.25 252.15ZM1385.53 248.529C1387.07 248.658 1388.38 248.416 1389.45 247.803C1390.53 247.191 1391.38 246.277 1391.99 245.062C1392.6 243.847 1392.98 242.399 1393.11 240.719C1393.24 239.038 1393.09 237.561 1392.66 236.288C1392.25 235.004 1391.55 233.977 1390.57 233.206C1389.6 232.437 1388.35 231.982 1386.81 231.842C1385.27 231.713 1383.96 231.955 1382.89 232.568C1381.81 233.18 1380.97 234.094 1380.35 235.309C1379.74 236.525 1379.37 237.973 1379.24 239.653C1379.11 241.334 1379.26 242.816 1379.67 244.099C1380.09 245.372 1380.78 246.394 1381.75 247.163C1382.73 247.934 1383.99 248.389 1385.53 248.529ZM1413.54 254.324C1411.24 254.148 1409.31 253.497 1407.75 252.371C1406.19 251.235 1405.04 249.734 1404.3 247.869C1403.56 246.005 1403.29 243.887 1403.47 241.515C1403.65 239.143 1404.25 237.092 1405.26 235.362C1406.28 233.632 1407.65 232.331 1409.36 231.457C1411.08 230.572 1413.08 230.218 1415.38 230.395C1418.03 230.598 1420.18 231.433 1421.85 232.898C1423.51 234.352 1424.61 236.229 1425.15 238.528L1421.19 239.299C1420.86 237.765 1420.19 236.536 1419.18 235.614C1418.17 234.68 1416.81 234.148 1415.1 234.016C1413.56 233.898 1412.24 234.144 1411.16 234.757C1410.09 235.369 1409.24 236.283 1408.62 237.498C1408.02 238.703 1407.64 240.146 1407.5 241.825C1407.37 243.506 1407.52 244.993 1407.93 246.287C1408.36 247.571 1409.06 248.599 1410.04 249.369C1411.02 250.14 1412.28 250.585 1413.82 250.703C1415.53 250.835 1416.96 250.516 1418.1 249.748C1419.24 248.98 1420.09 247.868 1420.65 246.414L1424.44 247.78C1423.56 249.97 1422.18 251.661 1420.31 252.855C1418.45 254.038 1416.19 254.528 1413.54 254.324ZM1426.42 254.833L1428.19 231.86L1432.03 232.156L1431.29 241.823L1442.17 242.659L1442.91 232.992L1446.74 233.286L1444.97 256.258L1441.14 255.964L1441.89 246.265L1431.01 245.429L1430.26 255.128L1426.42 254.833ZM1446.85 256.403L1455.86 233.987L1461.49 234.42L1466.97 257.949L1463.01 257.645L1458.02 236.529L1458.89 236.595L1450.81 256.707L1446.85 256.403ZM1451.27 251.736L1451.55 248.146L1463.61 249.073L1463.33 252.663L1451.27 251.736ZM1468.86 258.094L1470.62 235.122L1474.52 235.421L1483.93 252.432L1485.17 236.24L1489.06 236.539L1487.3 259.511L1483.41 259.212L1473.99 242.201L1472.75 258.393L1468.86 258.094ZM1500.2 260.984C1498.71 260.87 1497.33 260.501 1496.07 259.88C1494.81 259.248 1493.72 258.384 1492.81 257.287C1491.91 256.191 1491.24 254.882 1490.81 253.362C1490.37 251.83 1490.22 250.107 1490.37 248.193C1490.56 245.683 1491.19 243.576 1492.27 241.872C1493.34 240.157 1494.73 238.889 1496.43 238.067C1498.13 237.235 1500 236.898 1502.04 237.055C1504.87 237.272 1507.06 238.103 1508.6 239.549C1510.16 240.984 1511.14 242.911 1511.55 245.327L1507.57 245.648C1507.24 244.253 1506.61 243.113 1505.69 242.229C1504.76 241.334 1503.53 240.828 1502 240.71C1500.46 240.57 1499.15 240.807 1498.08 241.42C1497 242.033 1496.16 242.946 1495.54 244.161C1494.93 245.377 1494.56 246.825 1494.44 248.506C1494.31 250.186 1494.45 251.668 1494.86 252.951C1495.28 254.224 1495.97 255.246 1496.94 256.015C1497.92 256.786 1499.18 257.241 1500.72 257.381C1501.88 257.481 1502.91 257.351 1503.81 256.993C1504.72 256.624 1505.48 256.025 1506.1 255.195C1506.72 254.355 1507.18 253.283 1507.47 251.979L1503.42 251.667L1503.65 248.652L1511.79 249.277C1511.8 249.449 1511.79 249.7 1511.78 250.031C1511.76 250.361 1511.75 250.558 1511.75 250.622C1511.58 252.792 1511 254.689 1510.01 256.314C1509.03 257.929 1507.71 259.154 1506.04 259.988C1504.37 260.823 1502.42 261.155 1500.2 260.984ZM1513.13 261.496L1514.9 238.524L1529.73 239.664L1529.46 243.27L1518.47 242.425L1518.03 248.088L1527.11 248.786L1526.83 252.391L1517.75 251.694L1517.25 258.186L1528.25 259.031L1527.97 262.636L1513.13 261.496Z" fill="#202020"/>
</svg>
