<svg width="23" height="18" viewBox="0 0 23 18" fill="none" xmlns="http://www.w3.org/2000/svg">
<path d="M22.7288 2.17863C21.9107 2.5375 21.0389 2.77538 20.13 2.89088C21.065 2.33263 21.7787 1.45537 22.1142 0.398C21.2424 0.91775 20.2799 1.28488 19.2542 1.48975C18.4264 0.608375 17.2467 0.0625 15.9597 0.0625C13.4627 0.0625 11.4524 2.08925 11.4524 4.57387C11.4524 4.93138 11.4827 5.27513 11.5569 5.60238C7.80729 5.4195 4.48942 3.62238 2.26054 0.88475C1.87142 1.55988 1.64317 2.33262 1.64317 3.1645C1.64317 4.7265 2.44754 6.11112 3.64654 6.91275C2.92192 6.899 2.21104 6.68863 1.60879 6.35725C1.60879 6.371 1.60879 6.38888 1.60879 6.40675C1.60879 8.5985 3.17217 10.419 5.22229 10.8384C4.85517 10.9388 4.45504 10.9869 4.03979 10.9869C3.75104 10.9869 3.45954 10.9704 3.18592 10.9099C3.77029 12.696 5.42854 14.0091 7.40029 14.0518C5.86579 15.2521 3.91742 15.9754 1.80817 15.9754C1.43829 15.9754 1.08354 15.9589 0.72879 15.9135C2.72667 17.2019 5.09442 17.9375 7.64779 17.9375C15.9473 17.9375 20.4848 11.0625 20.4848 5.10325C20.4848 4.90387 20.4779 4.71137 20.4683 4.52025C21.3634 3.885 22.1155 3.09163 22.7288 2.17863Z" fill="#EDEDED"/>
</svg>
