<svg width="23" height="22" viewBox="0 0 23 22" fill="none" xmlns="http://www.w3.org/2000/svg">
<path fill-rule="evenodd" clip-rule="evenodd" d="M7.60379 0H15.8538C19.6502 0 22.7288 3.07862 22.7288 6.875V15.125C22.7288 18.9214 19.6502 22 15.8538 22H7.60379C3.80742 22 0.72879 18.9214 0.72879 15.125V6.875C0.72879 3.07862 3.80742 0 7.60379 0ZM15.8538 19.9375C18.5075 19.9375 20.6663 17.7787 20.6663 15.125V6.875C20.6663 4.22125 18.5075 2.0625 15.8538 2.0625H7.60379C4.95004 2.0625 2.79129 4.22125 2.79129 6.875V15.125C2.79129 17.7787 4.95004 19.9375 7.60379 19.9375H15.8538Z" fill="#EDEDED"/>
<path fill-rule="evenodd" clip-rule="evenodd" d="M6.22879 11C6.22879 7.96263 8.69142 5.5 11.7288 5.5C14.7662 5.5 17.2288 7.96263 17.2288 11C17.2288 14.0374 14.7662 16.5 11.7288 16.5C8.69142 16.5 6.22879 14.0374 6.22879 11ZM8.29129 11C8.29129 12.8948 9.83404 14.4375 11.7288 14.4375C13.6235 14.4375 15.1663 12.8948 15.1663 11C15.1663 9.10388 13.6235 7.5625 11.7288 7.5625C9.83404 7.5625 8.29129 9.10388 8.29129 11Z" fill="#EDEDED"/>
<circle cx="17.6413" cy="5.08761" r="0.732875" fill="#EDEDED"/>
</svg>
