<svg width="26" height="20" viewBox="0 0 26 20" fill="none" xmlns="http://www.w3.org/2000/svg">
<path d="M21.44 2.34683C19.8803 1.64346 18.2085 1.12358 16.4603 0.827959C16.4447 0.82497 16.4286 0.826896 16.4142 0.833471C16.3998 0.840045 16.3877 0.850944 16.3798 0.864656C16.1657 1.24081 15.9272 1.73113 15.76 2.11849C13.9059 1.84146 12.0208 1.84146 10.1667 2.11849C9.98047 1.68919 9.77049 1.2706 9.53772 0.864656C9.52983 0.850775 9.5179 0.83963 9.50351 0.832709C9.48912 0.825788 9.47296 0.823419 9.45719 0.82592C7.70998 1.12154 6.0382 1.64142 4.47753 2.34581C4.4641 2.35144 4.45272 2.36105 4.44491 2.37333C1.27261 7.03699 0.403079 11.5854 0.830199 16.0768C0.831387 16.0878 0.834802 16.0985 0.840234 16.1081C0.845667 16.1177 0.853004 16.1262 0.861799 16.1329C2.71339 17.4809 4.77859 18.5079 6.97093 19.1706C6.98621 19.1753 7.00256 19.1753 7.01783 19.1706C7.03311 19.1659 7.0466 19.1566 7.05656 19.1441C7.52832 18.5132 7.94637 17.8439 8.30631 17.1431C8.31131 17.1335 8.31419 17.123 8.31476 17.1122C8.31532 17.1014 8.31357 17.0906 8.3096 17.0806C8.30564 17.0705 8.29956 17.0614 8.29179 17.0539C8.28401 17.0464 8.27471 17.0407 8.26452 17.0371C7.60601 16.7891 6.96796 16.4898 6.35624 16.1421C6.34525 16.1358 6.33599 16.1269 6.32929 16.1161C6.32259 16.1054 6.31866 16.0932 6.31785 16.0806C6.31704 16.0679 6.31938 16.0553 6.32466 16.0438C6.32994 16.0323 6.33799 16.0223 6.34809 16.0146C6.47653 15.9198 6.60497 15.821 6.7273 15.7221C6.73831 15.7132 6.75157 15.7075 6.76561 15.7057C6.77965 15.7039 6.79391 15.7061 6.80681 15.7119C10.8099 17.5101 15.1453 17.5101 19.1015 15.7119C19.1145 15.7057 19.1289 15.7033 19.1431 15.7049C19.1573 15.7065 19.1708 15.7121 19.1821 15.7211C19.3044 15.821 19.4318 15.9198 19.5613 16.0146C19.5715 16.0221 19.5796 16.032 19.5851 16.0434C19.5905 16.0548 19.5931 16.0674 19.5925 16.08C19.5919 16.0926 19.5881 16.1049 19.5816 16.1157C19.5751 16.1266 19.566 16.1356 19.5551 16.1421C18.9456 16.4927 18.3115 16.7894 17.6459 17.0361C17.6356 17.0398 17.6263 17.0456 17.6185 17.0532C17.6108 17.0608 17.6047 17.07 17.6007 17.0801C17.5968 17.0902 17.595 17.1011 17.5956 17.112C17.5962 17.1228 17.5991 17.1334 17.6041 17.1431C17.971 17.8434 18.391 18.5101 18.8528 19.1431C18.8624 19.1561 18.8758 19.1658 18.8911 19.1709C18.9064 19.176 18.9229 19.1763 18.9384 19.1717C21.1345 18.5107 23.2031 17.4833 25.0567 16.1329C25.0658 16.1266 25.0734 16.1184 25.079 16.1089C25.0846 16.0994 25.0881 16.0888 25.0893 16.0778C25.599 10.8851 24.2351 6.37337 21.4716 2.37537C21.4648 2.36238 21.4536 2.35225 21.44 2.34683ZM8.90469 13.3418C7.69978 13.3418 6.70589 12.2521 6.70589 10.9157C6.70589 9.57829 7.68042 8.4896 8.90469 8.4896C10.1381 8.4896 11.1229 9.58747 11.1035 10.9157C11.1035 12.2531 10.129 13.3418 8.90469 13.3418V13.3418ZM17.0342 13.3418C15.8283 13.3418 14.8354 12.2521 14.8354 10.9157C14.8354 9.57829 15.8089 8.4896 17.0342 8.4896C18.2677 8.4896 19.2524 9.58747 19.233 10.9157C19.233 12.2531 18.2687 13.3418 17.0342 13.3418V13.3418Z" fill="#EDEDED"/>
</svg>
