<svg width="134" height="134" viewBox="0 0 134 134" fill="none" xmlns="http://www.w3.org/2000/svg">
<g clip-path="url(#clip0_78_2551)">
<path d="M67 134C104.003 134 134 104.003 134 67C134 29.9969 104.003 0 67 0C29.9969 0 0 29.9969 0 67C0 104.003 29.9969 134 67 134Z" fill="url(#paint0_linear_78_2551)"/>
<path d="M67 131.204C102.459 131.204 131.204 102.459 131.204 67C131.204 31.5412 102.459 2.79614 67 2.79614C31.5412 2.79614 2.79614 31.5412 2.79614 67C2.79614 102.459 31.5412 131.204 67 131.204Z" fill="#202020"/>
<path d="M67 106.043C88.5629 106.043 106.043 88.5629 106.043 66.9999C106.043 45.437 88.5629 27.9568 67 27.9568C45.4371 27.9568 27.9569 45.437 27.9569 66.9999C27.9569 88.5629 45.4371 106.043 67 106.043Z" fill="url(#paint1_linear_78_2551)"/>
<path d="M59.9203 72.2617L49.6827 82.4993C48.834 83.3391 47.4672 83.3391 46.6141 82.4993C37.7433 73.6196 36.2648 60.6707 43.3177 53.6089C45.1803 51.7463 47.4538 50.4778 49.9596 49.781C49.7408 50.6207 49.5174 51.6436 49.3656 52.7603C49.2762 53.3767 49.2226 54.0288 49.1914 54.6899C48.2444 55.1544 47.3734 55.7485 46.6007 56.4989C46.5248 56.5525 46.4578 56.6195 46.3908 56.6865C41.4283 61.6623 42.3306 70.7967 48.2221 77.8227L55.3822 70.6627C53.7295 68.7554 52.4163 66.6918 51.4113 64.5612C50.3304 62.2877 49.6336 59.9382 49.3254 57.6245C49.303 57.4815 49.2807 57.3163 49.2584 57.151C49.169 56.3247 49.1467 55.4983 49.1914 54.6899C50.5492 54.0288 52.05 53.6313 53.6491 53.5107C53.4392 54.8105 53.4392 55.6949 53.4392 55.7261C53.6044 58.6161 54.5737 61.6847 56.2978 64.5612C57.2671 66.1826 58.482 67.7504 59.9292 69.1931C60.7779 70.0329 60.7779 71.4086 59.9292 72.2617H59.9203Z" fill="#202020"/>
<path d="M54.9087 49.1602C54.1896 50.728 53.8278 52.3047 53.6402 53.5197C52.0411 53.6403 50.5403 54.0378 49.1824 54.6989C49.2584 52.8452 49.6112 51.1032 49.9552 49.79C51.523 49.3612 53.198 49.1513 54.9087 49.1602Z" fill="#202020"/>
<path d="M82.4368 49.7498L72.1992 59.9874C71.3505 60.8271 69.9837 60.8271 69.1306 59.9874C64.521 55.3778 58.6607 53.1132 53.6447 53.5107C53.7653 52.7156 53.9663 51.7687 54.2968 50.7637C54.4621 50.2322 54.672 49.6917 54.9132 49.1512C55.4983 49.1512 56.0924 49.1825 56.6909 49.2495C61.4211 49.7006 66.3747 51.7955 70.6135 55.4269L77.7602 48.2802C71.8463 43.3267 64.4585 41.8929 59.295 44.5193C58.3123 45.0151 57.419 45.6538 56.6239 46.4489C56.4497 46.6231 56.2934 46.8241 56.1371 47.0117C55.6413 47.6951 55.2437 48.4232 54.9132 49.1512C53.2025 49.1423 51.5275 49.3478 49.9597 49.781C50.3572 48.316 50.7413 47.3646 50.7413 47.3646L50.7547 47.3556C51.4515 45.8995 52.3761 44.564 53.5553 43.3848C54.5469 42.3932 55.6725 41.5668 56.8741 40.9013C64.186 36.8858 74.8122 39.061 82.4323 46.6812C83.281 47.5298 83.281 48.8966 82.4323 49.7498H82.4368Z" fill="#202020"/>
<path opacity="0.5" d="M56.2934 64.5657H51.4068C50.3259 62.2921 49.6291 59.9427 49.3209 57.6289C49.2986 57.486 49.2762 57.3207 49.2539 57.1555C49.1646 56.3291 49.1422 55.5028 49.1869 54.6943C50.5448 54.0333 52.0456 53.6357 53.6446 53.5151C53.4347 54.8149 53.4347 55.6993 53.4347 55.7306C53.6 58.6205 54.5692 61.6891 56.2934 64.5657Z" fill="#202020"/>
<path opacity="0.5" d="M56.1371 47.0162C55.6413 47.6996 55.2437 48.4276 54.9132 49.1557C53.2025 49.1468 51.5275 49.3522 49.9597 49.7855C50.3572 48.3204 50.7413 47.369 50.7413 47.369L50.7547 47.3601C51.4515 45.904 52.3761 44.5684 53.5553 43.3892C54.5469 42.3976 55.6725 41.5713 56.8741 40.9058L59.2905 44.5238C58.3079 45.0196 57.4145 45.6583 56.6195 46.4534C56.4453 46.6276 56.2889 46.8286 56.1326 47.0162H56.1371Z" fill="#202020"/>
<path opacity="0.5" d="M77.7602 48.2803C77.7602 48.2803 81.1906 50.996 78.6758 53.5107C76.1611 56.0255 73.1506 59.036 73.1506 59.036L70.6135 55.4269L77.7602 48.2803Z" fill="#202020"/>
<path opacity="0.5" d="M48.2177 77.8227C48.2177 77.8227 51.322 80.8645 53.9618 78.2247C56.6016 75.5849 59.2012 72.9853 59.2012 72.9853L54.9132 71.1316L48.2221 77.8227H48.2177Z" fill="#202020"/>
<path d="M74.2315 62.52L84.4691 52.2824C85.3178 51.4427 86.6846 51.4427 87.5377 52.2824C96.4085 61.1621 97.887 74.111 90.8341 81.1728C88.9715 83.0354 86.698 84.3039 84.1922 85.0007C84.411 84.161 84.6344 83.1381 84.7862 82.0215C84.8756 81.4051 84.9292 80.7529 84.9604 80.0919C85.9074 79.6273 86.7784 79.0332 87.5511 78.2828C87.627 78.2292 87.694 78.1622 87.761 78.0952C92.7235 73.1194 91.8212 63.9851 85.9297 56.959L78.7696 64.1191C80.4223 66.0263 81.7355 68.0899 82.7405 70.2205C83.8214 72.4941 84.5182 74.8435 84.8264 77.1573C84.8488 77.3002 84.8711 77.4655 84.8934 77.6307C84.9828 78.4571 85.0051 79.2834 84.9604 80.0919C83.6026 80.7529 82.1018 81.1505 80.5027 81.2711C80.7126 79.9713 80.7126 79.0869 80.7126 79.0556C80.5474 76.1657 79.5781 73.0971 77.854 70.2205C76.8847 68.5991 75.6698 67.0313 74.2226 65.5886C73.3739 64.7489 73.3739 63.3731 74.2226 62.52H74.2315Z" fill="#202020"/>
<path d="M79.2431 85.6261C79.9622 84.0583 80.324 82.4815 80.5116 81.2666C82.1107 81.146 83.6115 80.7485 84.9694 80.0874C84.8934 81.9411 84.5406 83.6831 84.1966 84.9963C82.6288 85.4251 80.9538 85.635 79.2431 85.6261Z" fill="#202020"/>
<path d="M51.715 85.0319L61.9526 74.7944C62.8013 73.9546 64.1681 73.9546 65.0212 74.7944C69.6308 79.404 75.4911 81.6686 80.5072 81.271C80.3866 82.0661 80.1856 83.013 79.855 84.018C79.6898 84.5496 79.4798 85.09 79.2386 85.6305C78.6535 85.6305 78.0594 85.5992 77.4609 85.5322C72.7307 85.0811 67.7772 82.9862 63.5383 79.3548L56.3916 86.5015C62.3055 91.455 69.6934 92.8888 74.8568 90.2624C75.8395 89.7666 76.7328 89.1279 77.5279 88.3328C77.7021 88.1586 77.8584 87.9576 78.0148 87.77C78.5106 87.0866 78.9081 86.3586 79.2386 85.6305C80.9494 85.6394 82.6244 85.434 84.1922 85.0007C83.7946 86.4658 83.4105 87.4172 83.4105 87.4172L83.3971 87.4261C82.7003 88.8822 81.7757 90.2177 80.5965 91.3969C79.6049 92.3885 78.4793 93.2149 77.2778 93.8804C69.9658 97.8959 59.3396 95.7207 51.7195 88.1006C50.8708 87.2519 50.8708 85.8851 51.7195 85.0319H51.715Z" fill="#202020"/>
<path opacity="0.5" d="M77.8584 70.2205H82.745C83.8259 72.494 84.5227 74.8435 84.8309 77.1572C84.8532 77.3001 84.8756 77.4654 84.8979 77.6307C84.9872 78.457 85.0096 79.2833 84.9649 80.0918C83.607 80.7529 82.1062 81.1504 80.5072 81.271C80.7171 79.9712 80.7171 79.0868 80.7171 79.0555C80.5518 76.1656 79.5826 73.097 77.8584 70.2205Z" fill="#202020"/>
<path opacity="0.5" d="M78.0148 87.7701C78.5106 87.0867 78.9081 86.3586 79.2386 85.6305C80.9494 85.6395 82.6244 85.434 84.1922 85.0007C83.7946 86.4658 83.4105 87.4172 83.4105 87.4172L83.3971 87.4261C82.7003 88.8823 81.7757 90.2178 80.5965 91.397C79.6049 92.3886 78.4793 93.2149 77.2778 93.8805L74.8613 90.2625C75.844 89.7667 76.7373 89.1279 77.5324 88.3329C77.7066 88.1587 77.8629 87.9577 78.0192 87.7701H78.0148Z" fill="#202020"/>
<path opacity="0.5" d="M56.3916 86.5016C56.3916 86.5016 52.9612 83.7858 55.476 81.2711C57.9907 78.7564 61.0012 75.7458 61.0012 75.7458L63.5383 79.3549L56.3916 86.5016Z" fill="#202020"/>
<path opacity="0.5" d="M85.9342 56.9589C85.9342 56.9589 82.8299 53.9171 80.1901 56.5569C77.5503 59.1967 74.9507 61.7963 74.9507 61.7963L79.2386 63.6499L85.9297 56.9589H85.9342Z" fill="#202020"/>
<path d="M38.8064 104.109L31.5748 112.024L28.2338 108.969C28.1578 108.897 28.0551 108.803 27.93 108.678C27.805 108.553 27.6978 108.437 27.6129 108.325C27.2064 107.821 26.9608 107.311 26.8759 106.798C26.791 106.284 26.8446 105.779 27.0278 105.288C27.2109 104.797 27.5102 104.328 27.9166 103.886C28.5241 103.224 29.203 102.805 29.9668 102.635C30.7306 102.465 31.5078 102.648 32.3118 103.18L33.0131 103.738L34.8578 105.427L37.31 102.747L38.8064 104.113V104.109ZM33.5848 106.82L31.8026 105.194C31.7267 105.123 31.6374 105.051 31.5391 104.975C31.4408 104.899 31.3426 104.837 31.2443 104.788C30.9942 104.658 30.753 104.609 30.5252 104.64C30.2974 104.672 30.0874 104.743 29.8998 104.868C29.7122 104.989 29.5514 105.123 29.4219 105.266C29.2924 105.409 29.1762 105.578 29.069 105.775C28.9663 105.971 28.9082 106.186 28.8993 106.418C28.8904 106.65 28.9618 106.883 29.1137 107.124C29.1718 107.218 29.2432 107.307 29.3281 107.401C29.413 107.495 29.4934 107.571 29.5693 107.642L31.3515 109.268L33.5804 106.829L33.5848 106.82ZM34.3442 100.031L32.964 104.676L31.155 103.568L32.6558 98.4854L34.3486 100.031H34.3442Z" fill="url(#paint2_linear_78_2551)"/>
<path d="M31.9456 97.5519L23.3249 103.926L19.1664 98.2978L20.6851 97.1722L23.642 101.17L25.4868 99.8076L23.0614 96.529L24.58 95.4034L27.0054 98.682L29.2209 97.0427L26.264 93.045L27.7826 91.9194L31.9411 97.5474L31.9456 97.5519Z" fill="url(#paint3_linear_78_2551)"/>
<path d="M26.0942 88.7169L17.8398 96.2969L16.942 94.4164L23.7358 88.1943L14.6104 89.5388L13.7126 87.6583L24.7944 85.9878L26.0987 88.7125L26.0942 88.7169Z" fill="url(#paint4_linear_78_2551)"/>
<path d="M23.3026 82.0928L13.0695 85.2775L12.4665 83.3434L22.6996 80.1587L23.3026 82.0928Z" fill="url(#paint5_linear_78_2551)"/>
<path d="M21.6633 74.3611C21.7839 75.1472 21.7571 75.8753 21.5785 76.5498C21.3998 77.2242 21.0827 77.8004 20.6315 78.2873C20.1759 78.7742 19.5997 79.127 18.9029 79.3459L18.2687 77.3046C18.8538 77.0634 19.2737 76.6838 19.5327 76.1746C19.7918 75.6609 19.8722 75.1115 19.7784 74.5219C19.7293 74.1958 19.6265 73.8832 19.4747 73.5884C19.3228 73.298 19.1307 73.0658 18.8985 72.9005C18.6662 72.7352 18.4027 72.6727 18.1079 72.7174C18.0007 72.7352 17.8979 72.7665 17.8041 72.8156C17.7103 72.8648 17.621 72.9318 17.5451 73.0166C17.4691 73.1015 17.4021 73.2221 17.3441 73.3695C17.286 73.5169 17.2413 73.7 17.2101 73.9144L16.8304 76.791C16.8036 77.0054 16.7589 77.26 16.6919 77.5458C16.6249 77.8362 16.5133 78.122 16.3525 78.4079C16.1917 78.6938 15.9594 78.9484 15.6557 79.1672C15.3519 79.3861 14.9455 79.538 14.4407 79.6184C13.7305 79.73 13.1097 79.6407 12.5871 79.3593C12.06 79.0734 11.6357 78.6536 11.3096 78.0908C10.9835 77.528 10.7691 76.8848 10.6619 76.1567C10.5592 75.4242 10.5815 74.7542 10.7334 74.1422C10.8853 73.5303 11.1577 72.9943 11.5553 72.5387C11.9528 72.0786 12.4709 71.7124 13.1052 71.4399L13.8109 73.5437C13.4804 73.6777 13.2124 73.8653 13.0114 74.111C12.8104 74.3566 12.6675 74.638 12.5915 74.9507C12.5156 75.2634 12.4977 75.576 12.5379 75.8976C12.5781 76.2148 12.6675 76.5006 12.8059 76.7642C12.9444 77.0277 13.1186 77.2287 13.3285 77.3761C13.5385 77.5235 13.7663 77.5771 14.0164 77.5369C14.2487 77.5012 14.4229 77.3984 14.5479 77.2376C14.6685 77.0724 14.7579 76.8758 14.8115 76.648C14.8651 76.4202 14.9053 76.188 14.9276 75.9512L15.142 74.035C15.1733 73.7492 15.2224 73.4276 15.2894 73.0792C15.3564 72.7263 15.4725 72.3824 15.6378 72.0429C15.8031 71.7034 16.0443 71.4086 16.3614 71.154C16.6785 70.8994 17.1029 70.7342 17.6389 70.6493C18.2061 70.56 18.7243 70.6002 19.1843 70.7744C19.6444 70.9441 20.0464 71.2121 20.3859 71.5694C20.7253 71.9268 21.0023 72.3511 21.2211 72.838C21.44 73.3248 21.5874 73.834 21.6723 74.3745L21.6633 74.3611Z" fill="url(#paint6_linear_78_2551)"/>
<path d="M20.8102 68.9788L10.0991 68.5812L10.3582 61.5864L12.2476 61.6579L12.06 66.6293L14.3514 66.7142L14.5033 62.6361L16.3927 62.7076L16.2408 66.7856L18.9923 66.8884L19.1754 61.9214L21.0648 61.9929L20.8057 68.9832L20.8102 68.9788Z" fill="url(#paint7_linear_78_2551)"/>
<path d="M26.724 44.6933L17.8041 38.7482L20.1 35.3044C20.435 34.8041 20.828 34.4379 21.2792 34.2056C21.7348 33.9733 22.2038 33.8661 22.6906 33.8929C23.1775 33.9197 23.6331 34.0716 24.053 34.353C24.5309 34.6701 24.8748 35.0855 25.0758 35.5903C25.2768 36.095 25.3081 36.6087 25.1696 37.1357L24.857 36.9481C25.4064 36.4791 26.0004 36.2201 26.6347 36.162C27.269 36.1084 27.8764 36.2737 28.466 36.6667C28.9842 37.0107 29.3549 37.4171 29.5827 37.8861C29.8105 38.3551 29.8954 38.8554 29.8328 39.3869C29.7703 39.9185 29.5648 40.4455 29.2164 40.9726L26.733 44.7023L26.724 44.6933ZM22.2172 40.3651L23.8966 37.8459C24.0887 37.5601 24.1959 37.2563 24.2227 36.9347C24.2495 36.6131 24.1959 36.3049 24.0619 36.0146C23.9279 35.7243 23.709 35.4831 23.4142 35.2821C22.9944 35.0007 22.5522 34.9203 22.0966 35.0319C21.6365 35.1481 21.2613 35.4295 20.9576 35.8806L19.2781 38.3998L22.2216 40.3607L22.2172 40.3651ZM26.4605 43.1925L28.1846 40.6019C28.4258 40.2401 28.5777 39.8693 28.6402 39.4941C28.7028 39.1189 28.6715 38.7661 28.542 38.44C28.4124 38.1139 28.1802 37.837 27.8407 37.6092C27.5102 37.3903 27.1618 37.2653 26.7955 37.2429C26.4292 37.2206 26.0808 37.2876 25.7458 37.4439C25.4108 37.6003 25.1339 37.8459 24.9106 38.1809L23.0748 40.9369L26.456 43.1925H26.4605Z" fill="url(#paint8_linear_78_2551)"/>
<path d="M34.7149 34.764C34.1343 35.3402 33.5 35.7333 32.8211 35.9343C32.1377 36.1353 31.4543 36.1442 30.7664 35.9611C30.0785 35.778 29.4443 35.3894 28.8636 34.8087L24.0441 29.9534L24.8213 29.1718L29.547 33.9288C29.9401 34.3218 30.3421 34.5988 30.7619 34.7506C31.1818 34.907 31.5883 34.965 31.9903 34.9382C32.3923 34.907 32.763 34.8087 33.1069 34.6434C33.4509 34.4782 33.7457 34.2727 33.9869 34.0315C34.2325 33.7858 34.4425 33.491 34.6122 33.1471C34.7819 32.8032 34.8802 32.4324 34.9159 32.0349C34.9472 31.6374 34.8847 31.2264 34.7373 30.8066C34.5854 30.3867 34.3129 29.9802 33.9243 29.5872L29.1986 24.8302L29.9803 24.053L34.8087 28.9127C35.3894 29.4978 35.7691 30.1321 35.9477 30.82C36.1264 31.5078 36.113 32.1912 35.9075 32.8746C35.7021 33.558 35.309 34.1878 34.7283 34.764H34.7149Z" fill="url(#paint9_linear_78_2551)"/>
<path d="M39.1146 30.6367L32.7273 22.0249L33.6072 21.3728L39.9945 29.9801L39.1146 30.6322V30.6367Z" fill="url(#paint10_linear_78_2551)"/>
<path d="M41.6829 28.734L36.3185 19.4522L37.2654 18.9028L42.1028 27.2778L46.5114 24.7318L47.0385 25.6386L41.6829 28.734Z" fill="url(#paint11_linear_78_2551)"/>
<path d="M47.7665 25.2679L44.153 15.1732L47.2171 14.0789C47.3243 14.0387 47.5075 13.9761 47.771 13.8868C48.0301 13.7975 48.2891 13.7305 48.5393 13.6769C49.3433 13.5116 50.0847 13.5652 50.7637 13.8421C51.4426 14.1191 52.0411 14.5702 52.5548 15.1955C53.0685 15.8164 53.4794 16.5579 53.7876 17.4199C54.0958 18.282 54.2477 19.1128 54.2477 19.9213C54.2477 20.7297 54.0735 21.4533 53.7251 22.101C53.3767 22.7487 52.8407 23.2623 52.1126 23.642C51.8893 23.7537 51.6436 23.8609 51.3801 23.9636C51.1165 24.0663 50.9334 24.1333 50.8351 24.1691L47.771 25.2634L47.7665 25.2679ZM48.4767 23.8966L50.4733 23.1819C50.6654 23.1149 50.8709 23.0345 51.0853 22.9407C51.3041 22.8514 51.4873 22.7576 51.6347 22.6683C52.1885 22.3556 52.5771 21.9447 52.8049 21.4444C53.0327 20.9397 53.131 20.3769 53.0953 19.756C53.064 19.1307 52.9255 18.483 52.6843 17.813C52.4431 17.1341 52.1349 16.5445 51.7642 16.0397C51.3935 15.535 50.9602 15.1643 50.4644 14.9231C49.9686 14.6863 49.4103 14.6193 48.7894 14.7265C48.6197 14.7489 48.4187 14.798 48.1864 14.865C47.9541 14.9365 47.7487 15.0035 47.5655 15.066L45.5689 15.7807L48.4723 23.8966H48.4767Z" fill="url(#paint12_linear_78_2551)"/>
<path d="M59.4558 21.5605L58.8841 10.8539L59.8891 10.8003L64.5746 19.5773L68.2819 10.3536L69.3003 10.3L69.8676 20.9977L68.8269 21.0513L68.3891 12.7924L65.0168 21.2612L64.3111 21.297L60.0633 13.2346L60.501 21.5024L59.4513 21.5605H59.4558Z" fill="url(#paint13_linear_78_2551)"/>
<path d="M75.5983 22.235C74.5487 22.0385 73.7089 21.6365 73.0747 21.0335C72.4404 20.4305 72.0161 19.6846 71.8017 18.7912C71.5873 17.8979 71.5828 16.9108 71.7838 15.8343C71.9893 14.7578 72.3511 13.8422 72.8781 13.0873C73.4052 12.3324 74.0707 11.792 74.8837 11.4614C75.6921 11.1309 76.6212 11.0639 77.6709 11.2649C78.725 11.4659 79.5647 11.8634 80.199 12.4664C80.8288 13.0694 81.2531 13.8154 81.472 14.7087C81.6909 15.602 81.6953 16.5892 81.4943 17.6656C81.2889 18.7421 80.9271 19.6578 80.3955 20.4126C79.8685 21.1675 79.1985 21.708 78.3945 22.0385C77.586 22.369 76.6569 22.436 75.6028 22.235H75.5983ZM75.7904 21.2032C76.6123 21.3596 77.3359 21.3015 77.9612 21.029C78.5821 20.7566 79.0957 20.3144 79.4977 19.6935C79.8997 19.0771 80.1856 18.3267 80.3509 17.4512C80.5161 16.5713 80.5251 15.7762 80.3732 15.0526C80.2258 14.3335 79.9087 13.735 79.4307 13.2526C78.9483 12.7746 78.3007 12.453 77.4743 12.2922C76.648 12.1359 75.9289 12.194 75.3125 12.4664C74.6961 12.7389 74.1869 13.1856 73.7849 13.802C73.3829 14.4228 73.097 15.1688 72.9273 16.0442C72.7575 16.9197 72.7486 17.7192 72.896 18.4384C73.0479 19.1575 73.3605 19.756 73.8429 20.2384C74.3209 20.7208 74.973 21.0424 75.7993 21.2032H75.7904Z" fill="url(#paint14_linear_78_2551)"/>
<path d="M81.405 23.3426L85.5277 13.449L89.3467 15.0391C89.445 15.0793 89.5522 15.1284 89.6683 15.1865C89.7889 15.2446 89.905 15.3116 90.0167 15.383C90.5036 15.6778 90.8654 16.0396 91.1066 16.4684C91.3478 16.9017 91.4728 17.3662 91.4818 17.871C91.4907 18.3757 91.388 18.8849 91.1691 19.403C90.8564 20.149 90.3919 20.7162 89.7666 21.1004C89.1412 21.4845 88.4355 21.5962 87.6449 21.4354L87.2608 21.3728L83.9778 20.006L82.41 23.7625L81.4005 23.3426H81.405ZM84.3798 19.0412L87.1625 20.1981C87.2429 20.2338 87.3412 20.2696 87.4573 20.3053C87.5734 20.341 87.6851 20.3723 87.8012 20.3902C88.172 20.4572 88.507 20.4348 88.8107 20.3187C89.1144 20.2026 89.378 20.0239 89.6058 19.7872C89.8336 19.546 90.0078 19.2735 90.1373 18.9698C90.2668 18.6616 90.3338 18.3444 90.3472 18.0139C90.3606 17.6834 90.2981 17.3707 90.1686 17.0714C90.0346 16.7766 89.8157 16.5176 89.5075 16.3032C89.4137 16.2362 89.311 16.1781 89.2038 16.1245C89.0966 16.0709 89.0028 16.0262 88.9179 15.995L86.1352 14.8336L84.3842 19.0412H84.3798ZM87.3948 25.835L87.1223 20.9932L88.2479 21.0244L88.5606 26.3174L87.3992 25.835H87.3948Z" fill="url(#paint15_linear_78_2551)"/>
<path d="M89.5745 26.9518L95.4169 17.9648L101.036 21.6141L100.464 22.494L95.7653 19.4388L93.7464 22.5476L97.6994 25.116L97.1277 25.9959L93.1747 23.4276L91.0709 26.6659L95.7698 29.7211L95.1981 30.601L89.579 26.9518H89.5745Z" fill="url(#paint16_linear_78_2551)"/>
<path d="M100.344 35.3626L107.383 28.7341L104.815 26.0094L105.579 25.2903L111.461 31.5392L110.697 32.2583L108.129 29.5336L101.09 36.1622L100.339 35.3671L100.344 35.3626Z" fill="url(#paint17_linear_78_2551)"/>
<path d="M104.078 39.4674L113.172 33.7903L113.753 34.7194L109.657 37.2787L112.797 42.3037L116.893 39.7444L117.469 40.6645L108.375 46.3416L107.799 45.4215L111.903 42.8576L108.763 37.8326L104.658 40.3965L104.078 39.4674Z" fill="url(#paint18_linear_78_2551)"/>
<path d="M108.777 47.092L120.109 46.8062L120.618 48.1685L111.863 55.3732L111.466 54.3057L119.711 47.4896L119.863 47.8916L109.174 48.1596L108.777 47.092ZM111.787 47.7263L112.748 47.369L114.682 52.5592L113.721 52.9166L111.787 47.7263Z" fill="url(#paint19_linear_78_2551)"/>
<path d="M112.046 56.2041L122.632 54.5291L122.807 55.6189L115.052 62.8192L123.727 61.4479L123.896 62.5378L113.31 64.2128L113.141 63.1274L120.904 55.9227L112.221 57.2939L112.046 56.2041Z" fill="url(#paint20_linear_78_2551)"/>
<path d="M112.931 70.4974C112.989 69.7872 113.234 69.1886 113.672 68.7107C114.11 68.2328 114.664 67.929 115.343 67.804L115.517 68.9162C115.119 68.9742 114.771 69.1529 114.476 69.4566C114.181 69.7604 114.016 70.1311 113.98 70.5688C113.958 70.8458 114.003 71.1316 114.114 71.4264C114.226 71.7212 114.427 71.9624 114.722 72.15C114.927 72.2751 115.151 72.3555 115.401 72.3957C115.651 72.4359 115.95 72.4672 116.299 72.494L123.695 73.0836L123.606 74.1824L116.209 73.5928C115.91 73.5704 115.642 73.5436 115.405 73.5213C115.164 73.499 114.936 73.4543 114.722 73.3873C114.507 73.3248 114.293 73.2176 114.079 73.0702C113.65 72.7798 113.342 72.4046 113.15 71.9535C112.962 71.5024 112.891 71.0155 112.931 70.4929V70.4974Z" fill="url(#paint21_linear_78_2551)"/>
<path d="M112.725 75.1605L123.128 77.7467L122.132 81.7622C122.105 81.8649 122.074 81.9766 122.038 82.1017C121.998 82.2267 121.953 82.3518 121.895 82.4769C121.676 82.9995 121.373 83.4149 120.984 83.7186C120.596 84.0223 120.149 84.2189 119.653 84.2993C119.157 84.3841 118.635 84.3573 118.094 84.2233C117.554 84.0893 117.085 83.866 116.687 83.5578C116.29 83.2496 115.986 82.8699 115.785 82.4188C115.584 81.9677 115.508 81.4629 115.562 80.9001C115.575 80.7661 115.593 80.6321 115.615 80.5026C115.638 80.3731 115.66 80.2569 115.687 80.1542L116.419 77.2017L112.466 76.2191L112.73 75.156L112.725 75.1605ZM117.424 77.4563L116.696 80.382C116.674 80.4669 116.656 80.5696 116.634 80.6902C116.616 80.8063 116.602 80.9269 116.598 81.0431C116.584 81.4183 116.66 81.7488 116.821 82.0302C116.982 82.3116 117.196 82.5483 117.464 82.7359C117.737 82.9235 118.032 83.0575 118.353 83.1379C118.675 83.2183 119.001 83.2407 119.331 83.2005C119.662 83.1603 119.961 83.0575 120.234 82.8789C120.506 82.7047 120.725 82.4501 120.895 82.1106C120.948 82.0079 120.989 81.8962 121.024 81.7845C121.06 81.6684 121.087 81.5701 121.109 81.4853L121.837 78.5596L117.415 77.4608L117.424 77.4563Z" fill="url(#paint22_linear_78_2551)"/>
<path d="M110.501 83.4061L120.274 87.8147L117.518 93.9206L116.562 93.4873L118.867 88.3775L115.486 86.8543L113.547 91.1513L112.591 90.718L114.53 86.4211L111.01 84.8309L108.705 89.9408L107.749 89.5075L110.505 83.4016L110.501 83.4061Z" fill="url(#paint23_linear_78_2551)"/>
<path d="M104.73 93.7151C105.159 93.0942 105.655 92.6118 106.217 92.2634C106.78 91.915 107.379 91.7051 108.022 91.6381C108.665 91.5711 109.331 91.6381 110.023 91.8436C110.715 92.049 111.408 92.3974 112.104 92.8843C113.025 93.523 113.717 94.2422 114.181 95.0417C114.646 95.8368 114.86 96.6676 114.825 97.5296C114.789 98.3917 114.476 99.2448 113.896 100.085C113.243 101.023 112.493 101.634 111.649 101.916C110.8 102.202 109.929 102.202 109.031 101.92L109.438 100.862C110.108 101.045 110.76 101.027 111.385 100.813C112.011 100.598 112.551 100.165 113.002 99.5128C113.485 98.825 113.73 98.146 113.735 97.476C113.739 96.8016 113.543 96.1584 113.141 95.5375C112.739 94.9166 112.176 94.3494 111.443 93.8357C110.711 93.322 109.987 92.987 109.273 92.8307C108.558 92.6744 107.879 92.7146 107.245 92.9602C106.61 93.2014 106.048 93.666 105.565 94.3494C105.127 94.9792 104.886 95.5866 104.846 96.1718C104.806 96.7524 104.94 97.3108 105.244 97.8423C105.547 98.3738 106.007 98.8696 106.61 99.3297L108.022 97.3018L108.79 97.8378L106.727 100.808C106.624 100.755 106.521 100.692 106.414 100.625C106.307 100.554 106.235 100.504 106.186 100.473C105.391 99.9193 104.779 99.285 104.355 98.5659C103.926 97.8468 103.734 97.074 103.77 96.2522C103.805 95.4303 104.127 94.5861 104.725 93.7196L104.73 93.7151Z" fill="url(#paint24_linear_78_2551)"/>
<path d="M98.6329 100.795C99.1734 100.277 99.7496 99.9059 100.357 99.6736C100.965 99.4414 101.568 99.361 102.166 99.4235C102.765 99.4905 103.327 99.7094 103.854 100.089L103.176 100.996C102.568 100.616 101.92 100.482 101.228 100.594C100.54 100.705 99.9059 101.036 99.3253 101.59C98.9456 101.952 98.6597 102.34 98.4721 102.747C98.2845 103.153 98.2131 103.551 98.2533 103.939C98.2935 104.328 98.4587 104.672 98.7491 104.976C98.9411 105.177 99.1377 105.315 99.3476 105.387C99.5575 105.458 99.763 105.485 99.9685 105.467C100.174 105.449 100.379 105.4 100.58 105.333C100.781 105.261 100.965 105.181 101.134 105.096L103.662 103.81C103.966 103.653 104.265 103.528 104.569 103.444C104.873 103.359 105.168 103.318 105.458 103.327C105.748 103.336 106.034 103.399 106.307 103.519C106.579 103.64 106.843 103.832 107.088 104.091C107.504 104.529 107.754 105.02 107.825 105.556C107.897 106.092 107.821 106.642 107.584 107.196C107.352 107.749 106.977 108.268 106.463 108.75C105.945 109.241 105.395 109.594 104.815 109.795C104.234 110.001 103.645 110.059 103.059 109.974C102.47 109.889 101.911 109.652 101.384 109.273L102.072 108.33C102.447 108.616 102.849 108.79 103.283 108.853C103.712 108.915 104.14 108.871 104.569 108.719C104.998 108.567 105.391 108.321 105.757 107.982C106.106 107.651 106.36 107.294 106.521 106.919C106.682 106.543 106.744 106.182 106.709 105.829C106.677 105.476 106.534 105.172 106.289 104.913C106.039 104.65 105.766 104.511 105.471 104.489C105.177 104.471 104.877 104.516 104.578 104.632C104.279 104.743 104.002 104.868 103.747 105.002L101.8 106.003C101.599 106.11 101.358 106.226 101.063 106.347C100.772 106.472 100.455 106.552 100.107 106.597C99.763 106.642 99.4101 106.606 99.0439 106.494C98.6776 106.383 98.3247 106.137 97.9719 105.771C97.6279 105.409 97.3957 105.02 97.2661 104.605C97.1366 104.185 97.1098 103.756 97.1813 103.318C97.2527 102.881 97.4135 102.447 97.6592 102.014C97.9049 101.585 98.2309 101.174 98.6374 100.79L98.6329 100.795Z" fill="url(#paint25_linear_78_2551)"/>
<path d="M52.4565 113.717L50.384 116.441V116.486L53.6759 116.048V117.531L50.384 117.138V117.183L52.4788 119.8L51.1031 120.586L49.7944 117.531H49.7497L48.3338 120.604L47.092 119.818L49.1646 117.156V117.111L45.9352 117.527V116.044L49.1422 116.459V116.415L47.092 113.752L48.4231 112.989L49.7765 116.022H49.8212L51.1522 112.966L52.461 113.708L52.4565 113.717Z" fill="url(#paint26_linear_78_2551)"/>
<path d="M69.7246 116.803L67.6521 119.528V119.572L70.944 119.135V120.618L67.6521 120.225V120.269L69.747 122.887L68.3712 123.673L67.0625 120.618H67.0178L65.6019 123.691L64.3602 122.905L66.4327 120.242V120.198L63.2033 120.613V119.13L66.4104 119.546V119.501L64.3602 116.839L65.6912 116.075L67.0446 119.108H67.0893L68.4204 116.053L69.7291 116.794L69.7246 116.803Z" fill="url(#paint27_linear_78_2551)"/>
<path d="M87.9621 113.717L85.8895 116.441V116.486L89.1815 116.048V117.531L85.8895 117.138V117.183L87.9844 119.8L86.6087 120.586L85.2999 117.531H85.2553L83.8393 120.604L82.5976 119.818L84.6701 117.156V117.111L81.4407 117.527V116.044L84.6478 116.459V116.415L82.5976 113.752L83.9287 112.989L85.2821 116.022H85.3267L86.6578 112.966L87.9665 113.708L87.9621 113.717Z" fill="url(#paint28_linear_78_2551)"/>
<path d="M15.7896 56.9277C16.4284 53.2516 17.545 49.7676 19.0592 46.5293" stroke="url(#paint29_linear_78_2551)" stroke-miterlimit="10"/>
</g>
<defs>
<linearGradient id="paint0_linear_78_2551" x1="67" y1="0" x2="67" y2="134" gradientUnits="userSpaceOnUse">
<stop stop-color="white"/>
<stop offset="1" stop-color="#C0C0C0"/>
</linearGradient>
<linearGradient id="paint1_linear_78_2551" x1="67" y1="27.9568" x2="67" y2="106.043" gradientUnits="userSpaceOnUse">
<stop stop-color="white"/>
<stop offset="1" stop-color="#C0C0C0"/>
</linearGradient>
<linearGradient id="paint2_linear_78_2551" x1="32.8215" y1="98.4854" x2="32.8215" y2="112.024" gradientUnits="userSpaceOnUse">
<stop stop-color="white"/>
<stop offset="1" stop-color="#C0C0C0"/>
</linearGradient>
<linearGradient id="paint3_linear_78_2551" x1="25.556" y1="91.9194" x2="25.556" y2="103.926" gradientUnits="userSpaceOnUse">
<stop stop-color="white"/>
<stop offset="1" stop-color="#C0C0C0"/>
</linearGradient>
<linearGradient id="paint4_linear_78_2551" x1="19.9057" y1="85.9878" x2="19.9057" y2="96.2969" gradientUnits="userSpaceOnUse">
<stop stop-color="white"/>
<stop offset="1" stop-color="#C0C0C0"/>
</linearGradient>
<linearGradient id="paint5_linear_78_2551" x1="17.8845" y1="80.1587" x2="17.8845" y2="85.2775" gradientUnits="userSpaceOnUse">
<stop stop-color="white"/>
<stop offset="1" stop-color="#C0C0C0"/>
</linearGradient>
<linearGradient id="paint6_linear_78_2551" x1="16.168" y1="70.6033" x2="16.168" y2="79.6651" gradientUnits="userSpaceOnUse">
<stop stop-color="white"/>
<stop offset="1" stop-color="#C0C0C0"/>
</linearGradient>
<linearGradient id="paint7_linear_78_2551" x1="15.582" y1="61.5864" x2="15.582" y2="68.9832" gradientUnits="userSpaceOnUse">
<stop stop-color="white"/>
<stop offset="1" stop-color="#C0C0C0"/>
</linearGradient>
<linearGradient id="paint8_linear_78_2551" x1="23.8284" y1="33.8889" x2="23.8284" y2="44.7023" gradientUnits="userSpaceOnUse">
<stop stop-color="white"/>
<stop offset="1" stop-color="#C0C0C0"/>
</linearGradient>
<linearGradient id="paint9_linear_78_2551" x1="30.0582" y1="24.053" x2="30.0582" y2="36.0921" gradientUnits="userSpaceOnUse">
<stop stop-color="white"/>
<stop offset="1" stop-color="#C0C0C0"/>
</linearGradient>
<linearGradient id="paint10_linear_78_2551" x1="36.3609" y1="21.3728" x2="36.3609" y2="30.6367" gradientUnits="userSpaceOnUse">
<stop stop-color="white"/>
<stop offset="1" stop-color="#C0C0C0"/>
</linearGradient>
<linearGradient id="paint11_linear_78_2551" x1="41.6785" y1="18.9028" x2="41.6785" y2="28.734" gradientUnits="userSpaceOnUse">
<stop stop-color="white"/>
<stop offset="1" stop-color="#C0C0C0"/>
</linearGradient>
<linearGradient id="paint12_linear_78_2551" x1="49.2003" y1="13.5835" x2="49.2003" y2="25.2679" gradientUnits="userSpaceOnUse">
<stop stop-color="white"/>
<stop offset="1" stop-color="#C0C0C0"/>
</linearGradient>
<linearGradient id="paint13_linear_78_2551" x1="64.3758" y1="10.3" x2="64.3758" y2="21.5605" gradientUnits="userSpaceOnUse">
<stop stop-color="white"/>
<stop offset="1" stop-color="#C0C0C0"/>
</linearGradient>
<linearGradient id="paint14_linear_78_2551" x1="76.6388" y1="11.1516" x2="76.6388" y2="22.3483" gradientUnits="userSpaceOnUse">
<stop stop-color="white"/>
<stop offset="1" stop-color="#C0C0C0"/>
</linearGradient>
<linearGradient id="paint15_linear_78_2551" x1="86.4414" y1="13.449" x2="86.4414" y2="26.3174" gradientUnits="userSpaceOnUse">
<stop stop-color="white"/>
<stop offset="1" stop-color="#C0C0C0"/>
</linearGradient>
<linearGradient id="paint16_linear_78_2551" x1="95.3053" y1="17.9648" x2="95.3053" y2="30.601" gradientUnits="userSpaceOnUse">
<stop stop-color="white"/>
<stop offset="1" stop-color="#C0C0C0"/>
</linearGradient>
<linearGradient id="paint17_linear_78_2551" x1="105.9" y1="25.2903" x2="105.9" y2="36.1622" gradientUnits="userSpaceOnUse">
<stop stop-color="white"/>
<stop offset="1" stop-color="#C0C0C0"/>
</linearGradient>
<linearGradient id="paint18_linear_78_2551" x1="110.773" y1="33.7903" x2="110.773" y2="46.3416" gradientUnits="userSpaceOnUse">
<stop stop-color="white"/>
<stop offset="1" stop-color="#C0C0C0"/>
</linearGradient>
<linearGradient id="paint19_linear_78_2551" x1="114.697" y1="46.8062" x2="114.697" y2="55.3732" gradientUnits="userSpaceOnUse">
<stop stop-color="white"/>
<stop offset="1" stop-color="#C0C0C0"/>
</linearGradient>
<linearGradient id="paint20_linear_78_2551" x1="117.971" y1="54.5291" x2="117.971" y2="64.2128" gradientUnits="userSpaceOnUse">
<stop stop-color="white"/>
<stop offset="1" stop-color="#C0C0C0"/>
</linearGradient>
<linearGradient id="paint21_linear_78_2551" x1="118.308" y1="67.804" x2="118.308" y2="74.1824" gradientUnits="userSpaceOnUse">
<stop stop-color="white"/>
<stop offset="1" stop-color="#C0C0C0"/>
</linearGradient>
<linearGradient id="paint22_linear_78_2551" x1="117.797" y1="75.156" x2="117.797" y2="84.3479" gradientUnits="userSpaceOnUse">
<stop stop-color="white"/>
<stop offset="1" stop-color="#C0C0C0"/>
</linearGradient>
<linearGradient id="paint23_linear_78_2551" x1="114.012" y1="83.4016" x2="114.012" y2="93.9206" gradientUnits="userSpaceOnUse">
<stop stop-color="white"/>
<stop offset="1" stop-color="#C0C0C0"/>
</linearGradient>
<linearGradient id="paint24_linear_78_2551" x1="109.297" y1="91.613" x2="109.297" y2="102.131" gradientUnits="userSpaceOnUse">
<stop stop-color="white"/>
<stop offset="1" stop-color="#C0C0C0"/>
</linearGradient>
<linearGradient id="paint25_linear_78_2551" x1="102.497" y1="99.4031" x2="102.497" y2="110.011" gradientUnits="userSpaceOnUse">
<stop stop-color="white"/>
<stop offset="1" stop-color="#C0C0C0"/>
</linearGradient>
<linearGradient id="paint26_linear_78_2551" x1="49.8055" y1="112.966" x2="49.8055" y2="120.604" gradientUnits="userSpaceOnUse">
<stop stop-color="white"/>
<stop offset="1" stop-color="#C0C0C0"/>
</linearGradient>
<linearGradient id="paint27_linear_78_2551" x1="67.0737" y1="116.053" x2="67.0737" y2="123.691" gradientUnits="userSpaceOnUse">
<stop stop-color="white"/>
<stop offset="1" stop-color="#C0C0C0"/>
</linearGradient>
<linearGradient id="paint28_linear_78_2551" x1="85.3111" y1="112.966" x2="85.3111" y2="120.604" gradientUnits="userSpaceOnUse">
<stop stop-color="white"/>
<stop offset="1" stop-color="#C0C0C0"/>
</linearGradient>
<linearGradient id="paint29_linear_78_2551" x1="17.4244" y1="46.5293" x2="17.4244" y2="56.9277" gradientUnits="userSpaceOnUse">
<stop stop-color="white"/>
<stop offset="1" stop-color="#C0C0C0"/>
</linearGradient>
<clipPath id="clip0_78_2551">
<rect width="134" height="134" fill="white"/>
</clipPath>
</defs>
</svg>
