<svg width="132" height="131" viewBox="0 0 132 131" fill="none" xmlns="http://www.w3.org/2000/svg">
<g clip-path="url(#clip0_78_3122)">
<path d="M22.2315 84.1183C19.724 78.2206 18.4468 71.9565 18.4468 65.4953C18.4468 59.034 19.7052 52.8451 22.1845 46.9849L23.0485 47.3512C20.6162 53.0987 19.3859 59.2031 19.3859 65.4953C19.3859 71.7875 20.635 77.9764 23.0955 83.7521L22.2315 84.1183Z" fill="#EDEDED"/>
<path d="M109.806 84.0057L108.942 83.6394C111.374 77.8919 112.605 71.7875 112.605 65.4953C112.605 59.2031 111.356 53.0142 108.895 47.2385L109.759 46.8723C112.267 52.77 113.544 59.0341 113.544 65.4953C113.544 71.9566 112.285 78.1455 109.806 84.0057Z" fill="#EDEDED"/>
<path d="M102.922 88.5793L109.731 93.8478L108.942 94.8715L102.293 93.5003L105.298 99.5859L104.5 100.61L97.6909 95.341L98.5174 94.2798L102.884 97.6513L100.133 92.1855L100.48 91.7347L106.462 93.0214L102.095 89.6499L102.922 88.5793Z" fill="#EDEDED"/>
<path d="M95.5591 96.947C95.9066 96.637 96.2541 96.4304 96.611 96.3459C96.9678 96.2614 97.3059 96.2708 97.6252 96.3835C97.9445 96.4868 98.2263 96.6746 98.4611 96.9376C98.6677 97.1723 98.8179 97.4071 98.9119 97.6607C99.0058 97.9143 99.0245 98.1772 98.987 98.459C98.9494 98.7407 98.8461 99.0318 98.6677 99.3511C98.5362 99.5859 98.3578 99.8489 98.1418 100.131C97.9258 100.412 97.691 100.713 97.428 101.032C97.1651 101.351 96.8927 101.68 96.6016 102.037L96.7894 101.474C97.0899 101.812 97.3811 101.981 97.6722 102.009C97.9633 102.037 98.292 101.877 98.6489 101.549C98.8649 101.351 99.0245 101.117 99.1372 100.835C99.2499 100.553 99.2312 100.253 99.0903 99.9334L100.339 99.3511C100.584 99.8583 100.659 100.394 100.546 100.938C100.433 101.483 100.095 102.009 99.5317 102.525C99.1091 102.91 98.6677 103.183 98.2169 103.333C97.7661 103.483 97.3247 103.474 96.8833 103.305C96.6485 103.211 96.4325 103.089 96.2635 102.929C96.0944 102.77 95.9066 102.582 95.7188 102.385L93.061 99.445L94.0002 98.5998L94.9393 99.6329L94.6294 99.6047C94.5355 99.06 94.5543 98.581 94.6951 98.1584C94.836 97.7358 95.1271 97.332 95.5591 96.9376V96.947ZM96.1132 97.9894C95.8691 98.2054 95.7 98.4402 95.6061 98.6843C95.5122 98.9285 95.4746 99.1539 95.484 99.3699C95.4934 99.5859 95.531 99.7644 95.5967 99.9052C95.6624 100.093 95.7751 100.281 95.9254 100.459C96.0757 100.638 96.2071 100.788 96.3011 100.901L95.8878 101.098C96.1602 100.76 96.4044 100.459 96.5922 100.215C96.7894 99.971 96.9491 99.755 97.0899 99.5671C97.2214 99.3793 97.3341 99.2103 97.428 99.06C97.5125 98.9004 97.5689 98.7595 97.6065 98.6186C97.644 98.4777 97.644 98.3556 97.6158 98.2336C97.5971 98.1115 97.5313 98.0082 97.4374 97.9049C97.3341 97.7828 97.2026 97.7076 97.0618 97.6701C96.9209 97.6325 96.7706 97.6419 96.611 97.6889C96.4513 97.7358 96.2823 97.8391 96.1132 97.9894Z" fill="#EDEDED"/>
<path d="M88.7503 102.413L91.2672 106.179L91.4174 106.075L93.6808 109.466L92.4693 110.273L87.6797 103.117L88.7409 102.413H88.7503ZM90.1778 101.239C90.6755 100.91 91.1827 100.741 91.718 100.75C92.2533 100.75 92.7604 100.901 93.2488 101.192C93.7371 101.483 94.1597 101.896 94.5166 102.432C94.8829 102.976 95.0989 103.53 95.1834 104.094C95.2679 104.657 95.2022 105.183 94.9862 105.681C94.7702 106.179 94.4227 106.601 93.9155 106.939C93.4084 107.277 92.8919 107.446 92.3848 107.428C91.8776 107.409 91.3893 107.249 90.9197 106.939C90.4501 106.629 90.0369 106.207 89.68 105.672C89.3232 105.136 89.0884 104.601 88.9851 104.047C88.8818 103.493 88.9193 102.986 89.1072 102.497C89.295 102.009 89.6519 101.596 90.1778 101.248V101.239ZM90.7131 102.432C90.3938 102.648 90.1778 102.892 90.0839 103.173C89.99 103.455 89.9806 103.756 90.0651 104.084C90.1496 104.413 90.3093 104.751 90.544 105.099C90.7788 105.446 91.0324 105.728 91.2954 105.925C91.5677 106.132 91.8401 106.235 92.1312 106.254C92.4223 106.273 92.7228 106.179 93.0234 105.972C93.3427 105.756 93.5587 105.502 93.662 105.202C93.7653 104.901 93.7747 104.592 93.6995 104.253C93.6244 103.915 93.4741 103.587 93.2581 103.267C93.0421 102.939 92.7886 102.676 92.5162 102.469C92.2439 102.272 91.9528 102.159 91.6428 102.14C91.3329 102.122 91.023 102.216 90.7131 102.422V102.432Z" fill="#EDEDED"/>
<path d="M84.1959 104.638C84.7875 104.357 85.3698 104.244 85.9333 104.291C86.4967 104.338 87.0133 104.526 87.4828 104.864C87.943 105.202 88.3187 105.662 88.6004 106.254C88.9009 106.892 89.0418 107.503 89.0136 108.094C88.9854 108.686 88.8164 109.203 88.5065 109.672C88.1966 110.142 87.7458 110.508 87.1729 110.771C86.5625 111.053 85.9896 111.156 85.4261 111.072C84.872 110.987 84.3649 110.733 83.9141 110.32C83.4633 109.907 83.1065 109.334 82.8247 108.602L84.1207 107.991L84.3461 108.47C84.6466 109.099 84.9753 109.513 85.3322 109.7C85.6891 109.888 86.1023 109.869 86.5813 109.653C87.1166 109.4 87.4359 109.052 87.5392 108.602C87.6425 108.151 87.5392 107.606 87.248 106.968C86.9663 106.376 86.6282 105.981 86.215 105.775C85.8018 105.578 85.351 105.587 84.8532 105.822C84.5339 105.972 84.2898 106.179 84.1207 106.423C83.9517 106.676 83.8765 106.968 83.8765 107.296L82.4021 107.512C82.3739 106.883 82.5336 106.31 82.8623 105.794C83.191 105.277 83.6418 104.892 84.1959 104.629V104.638ZM87.4922 106.413L87.9524 107.4L83.9329 109.287L83.4727 108.301L87.4922 106.413Z" fill="#EDEDED"/>
<path d="M78.0724 107.202L81.4157 113.081L80.0352 113.382L77.8939 109.616L77.5559 113.936L76.3725 114.199L74.2219 110.433L73.8932 114.753L72.5127 115.063L73.0198 108.329L74.1186 108.085L76.5228 112.095L76.9736 107.437L78.0724 107.193V107.202Z" fill="#EDEDED"/>
<path d="M70.6346 108.583L71.2075 115.016L69.7706 115.147L69.1978 108.714L70.6346 108.583ZM71.3014 115.993L71.4235 117.307L69.9866 117.439L69.8739 116.124L71.3108 115.993H71.3014Z" fill="#EDEDED"/>
<path d="M64.2483 108.855C64.6709 108.771 65.0935 108.724 65.4973 108.733C65.9012 108.733 66.2768 108.808 66.5961 108.94C66.9248 109.071 67.169 109.297 67.338 109.597C67.4883 109.869 67.5728 110.161 67.5822 110.452C67.5916 110.743 67.601 111.072 67.6104 111.438L67.7043 117.054L66.2674 117.073L66.1735 111.541C66.1735 111.278 66.1641 111.053 66.1547 110.856C66.1547 110.658 66.0984 110.499 66.0232 110.377C65.873 110.142 65.6476 110.01 65.3283 109.992C65.009 109.973 64.6521 109.992 64.2483 110.057L64.2295 108.846L64.2483 108.855ZM68.8406 114.105L68.8594 115.232L64.361 115.307L64.3422 114.18L68.8406 114.105Z" fill="#EDEDED"/>
<path d="M59.1679 108.32L58.7923 111.41C58.7641 111.607 58.7547 111.842 58.7547 112.086C58.7547 112.33 58.7923 112.574 58.858 112.818C58.9331 113.053 59.0552 113.26 59.243 113.438C59.4215 113.607 59.6844 113.711 60.0225 113.757C60.201 113.776 60.3888 113.776 60.5766 113.739C60.7644 113.701 60.9335 113.617 61.0931 113.495C61.2528 113.363 61.3937 113.185 61.5157 112.94C61.6284 112.696 61.713 112.386 61.7599 111.992L62.5676 112.461C62.5018 113.006 62.3328 113.485 62.0698 113.908C61.8069 114.321 61.45 114.64 61.0086 114.856C60.5672 115.072 60.0413 115.138 59.4403 115.063C58.9613 115.007 58.5856 114.875 58.2945 114.678C58.0034 114.481 57.7874 114.246 57.6277 113.983C57.4775 113.72 57.3742 113.438 57.3178 113.147C57.2615 112.856 57.2427 112.593 57.2427 112.339C57.2427 112.086 57.2615 111.889 57.2802 111.729L57.7122 108.151L59.1585 108.329L59.1679 108.32ZM63.61 108.865L62.5676 117.411L61.2904 117.251L61.835 112.753L61.666 112.734L62.1544 108.686L63.6006 108.865H63.61Z" fill="#EDEDED"/>
<path d="M55.1764 107.578L52.4435 115.739L49.072 114.612C48.9969 114.584 48.8936 114.546 48.7715 114.499C48.6494 114.452 48.5367 114.396 48.4334 114.349C47.9826 114.114 47.6445 113.833 47.4191 113.485C47.1937 113.138 47.0623 112.762 47.0435 112.339C47.0153 111.917 47.081 111.485 47.2313 111.034C47.4567 110.367 47.8136 109.851 48.3113 109.484C48.8091 109.118 49.4195 108.996 50.152 109.118L50.7531 109.259L52.8567 109.963L53.8146 107.108L55.1858 107.569L55.1764 107.578ZM52.4247 111.25L50.4713 110.593C50.3962 110.564 50.3117 110.546 50.2084 110.517C50.1145 110.489 50.0205 110.48 49.936 110.48C49.6918 110.461 49.4758 110.499 49.2974 110.602C49.119 110.705 48.9687 110.837 48.856 110.996C48.7433 111.156 48.6494 111.325 48.5931 111.504C48.5367 111.682 48.4991 111.87 48.4991 112.067C48.4991 112.264 48.5273 112.461 48.6118 112.649C48.6964 112.837 48.8372 112.997 49.0438 113.128C49.119 113.175 49.1941 113.222 49.288 113.26C49.3819 113.297 49.4665 113.325 49.5416 113.354L51.495 114.011L52.4153 111.259L52.4247 111.25ZM50.4807 106.01L50.9785 109.869L49.4852 109.71L48.9311 105.484L50.4807 106V106.01Z" fill="#EDEDED"/>
<path d="M45.9731 103.727C46.5554 104.028 46.9968 104.422 47.3067 104.901C47.6166 105.38 47.7763 105.906 47.7857 106.479C47.8044 107.052 47.6542 107.625 47.3537 108.207C47.025 108.836 46.6211 109.315 46.1422 109.653C45.6632 109.992 45.1373 110.17 44.5832 110.208C44.0197 110.245 43.4656 110.114 42.9022 109.813C42.3105 109.503 41.8785 109.099 41.6061 108.611C41.3338 108.123 41.2305 107.569 41.2868 106.958C41.3526 106.348 41.578 105.709 41.9912 105.052L43.259 105.709L43.0148 106.179C42.6955 106.808 42.5641 107.315 42.6392 107.709C42.7143 108.104 42.9679 108.433 43.4375 108.667C43.9634 108.94 44.4329 108.977 44.8556 108.789C45.2782 108.602 45.6538 108.188 45.9731 107.569C46.2736 106.986 46.3769 106.47 46.2924 106.019C46.2079 105.568 45.9168 105.211 45.4284 104.958C45.1185 104.798 44.8086 104.723 44.5081 104.742C44.2075 104.761 43.9258 104.873 43.6628 105.07L42.6016 104.028C43.09 103.624 43.6347 103.399 44.2451 103.352C44.8556 103.305 45.4284 103.427 45.9825 103.709L45.9731 103.727ZM46.5554 107.418L46.0576 108.386L42.1133 106.338L42.6204 105.371L46.5648 107.418H46.5554Z" fill="#EDEDED"/>
<path d="M41.5873 101.305L39.7654 107.925L38.5914 107.09L39.972 102.328L35.9431 105.211L34.7598 104.376L40.404 100.459L41.5873 101.295V101.305Z" fill="#EDEDED"/>
<path d="M33.2854 104.329L32.4214 105.324L31.332 104.385L32.196 103.389L33.2854 104.338V104.329ZM38.1595 98.7125L33.924 103.587L32.8346 102.648L37.0701 97.7734L38.1595 98.7125Z" fill="#EDEDED"/>
<path d="M34.6284 95.1344C35.1731 95.7167 35.4924 96.3083 35.5769 96.9188C35.6614 97.5292 35.5018 98.0927 35.1073 98.6186L33.9334 97.7077C34.1118 97.4353 34.1776 97.1348 34.1306 96.8249C34.0837 96.515 33.924 96.2144 33.6517 95.9233C33.4169 95.6697 33.1821 95.5289 32.9473 95.4819C32.7125 95.435 32.5153 95.5007 32.3463 95.6603C32.243 95.7637 32.1772 95.867 32.1584 95.9797C32.1396 96.0923 32.1866 96.2614 32.2805 96.4868C32.3744 96.7122 32.5529 97.0503 32.797 97.4917C33.0694 97.98 33.2478 98.4026 33.3511 98.7501C33.4544 99.0976 33.4638 99.3981 33.3981 99.6517C33.3323 99.9052 33.1821 100.149 32.9473 100.375C32.6562 100.647 32.3275 100.816 31.9706 100.873C31.6043 100.929 31.2381 100.873 30.8624 100.704C30.4868 100.534 30.1205 100.272 29.7636 99.8959C29.4162 99.5296 29.172 99.1539 29.0123 98.7689C28.8527 98.3838 28.8057 97.9988 28.8433 97.6325C28.8902 97.2663 29.0311 96.9188 29.2753 96.6183L30.4774 97.5011C30.2989 97.7171 30.2332 97.9518 30.2614 98.2242C30.2896 98.4871 30.421 98.7595 30.6558 99.0225C30.8718 99.2854 31.0972 99.4451 31.332 99.5108C31.5668 99.5765 31.7546 99.539 31.9143 99.3887C32.0082 99.3042 32.0551 99.2009 32.0551 99.0788C32.0551 98.9567 32.0082 98.7783 31.8955 98.5341C31.7828 98.2899 31.6043 97.9424 31.3508 97.4917C31.0972 97.0315 30.9188 96.6277 30.8249 96.2896C30.7309 95.9515 30.7309 95.651 30.8061 95.388C30.8812 95.125 31.0409 94.8809 31.285 94.6461C31.7546 94.1953 32.2899 94.0169 32.8816 94.1108C33.4732 94.1953 34.0555 94.5428 34.6377 95.1438L34.6284 95.1344Z" fill="#EDEDED"/>
<path d="M30.7495 90.3918C31.1252 90.9271 31.3506 91.4718 31.4069 92.0447C31.4633 92.6082 31.3694 93.1528 31.1158 93.6694C30.8716 94.1859 30.4772 94.6367 29.9419 95.0123C29.369 95.4256 28.7867 95.6697 28.2139 95.7449C27.6316 95.8294 27.0869 95.7449 26.5704 95.5289C26.0539 95.3035 25.6125 94.9278 25.2462 94.4113C24.8612 93.8666 24.6545 93.3125 24.6358 92.749C24.617 92.1855 24.7766 91.6502 25.1053 91.1337C25.434 90.6172 25.9318 90.157 26.5986 89.7532L27.425 90.9177L26.993 91.2276C26.4201 91.6408 26.082 92.0353 25.9599 92.4203C25.8379 92.8054 25.9318 93.2092 26.2323 93.6318C26.5798 94.1108 26.9742 94.3643 27.4438 94.3831C27.904 94.4019 28.4205 94.2141 28.9933 93.8008C29.5287 93.4252 29.8574 93.012 29.9794 92.5706C30.1015 92.1292 30.0076 91.6878 29.6883 91.237C29.4817 90.9459 29.2375 90.7487 28.9652 90.6266C28.6928 90.5045 28.3829 90.4763 28.0636 90.5421L27.5846 89.1334C28.2045 88.9925 28.7961 89.0488 29.3502 89.2742C29.9137 89.509 30.3739 89.8753 30.7401 90.3824L30.7495 90.3918ZM29.5944 93.9511L28.7116 94.5803L26.129 90.9647L27.0118 90.3354L29.5944 93.9511Z" fill="#EDEDED"/>
<path d="M29.0778 42.4114L22.269 37.1428L23.0579 36.1192L29.707 37.4903L26.7018 31.4047L27.5 30.381L34.3088 35.6496L33.4823 36.7108L29.1153 33.3393L31.867 38.8051L31.5195 39.2559L25.5372 37.9693L29.9042 41.3408L29.0778 42.4114Z" fill="#EDEDED"/>
<path d="M36.4404 34.053C36.0929 34.363 35.7454 34.5696 35.3886 34.6541C35.0317 34.7386 34.6936 34.7292 34.3743 34.6165C34.055 34.5132 33.7732 34.3254 33.5385 34.0624C33.3318 33.8276 33.1816 33.5929 33.0877 33.3393C32.9938 33.0857 32.975 32.8228 33.0125 32.541C33.0501 32.2593 33.1534 31.9682 33.3318 31.6489C33.4633 31.4141 33.6418 31.1511 33.8578 30.8694C34.0738 30.5876 34.3085 30.2871 34.5715 29.9678C34.8345 29.6485 35.1068 29.3198 35.3979 28.9629L35.2101 29.5264C34.9096 29.1883 34.6185 29.0193 34.3273 28.9911C34.0362 28.9629 33.7075 29.1226 33.3506 29.4513C33.1346 29.6485 32.975 29.8833 32.8623 30.165C32.7496 30.4468 32.7684 30.7473 32.9092 31.0666L31.6602 31.6489C31.416 31.1417 31.3409 30.6064 31.4536 30.0617C31.5663 29.517 31.9044 28.9911 32.4678 28.4746C32.8905 28.0895 33.3318 27.8172 33.7826 27.6669C34.2334 27.5167 34.6748 27.526 35.1162 27.6951C35.351 27.789 35.567 27.9111 35.736 28.0707C35.9051 28.2304 36.0929 28.4182 36.2807 28.6154L38.9385 31.5549L37.9994 32.4002L37.0602 31.3671L37.3701 31.3953C37.464 31.94 37.4453 32.4189 37.3044 32.8416C37.1635 33.2642 36.8724 33.668 36.4404 34.0624V34.053ZM35.8863 33.0106C36.1305 32.7946 36.2995 32.5598 36.3934 32.3156C36.4873 32.0715 36.5249 31.8461 36.5155 31.6301C36.5061 31.4141 36.4686 31.2356 36.4028 31.0948C36.3371 30.9069 36.2244 30.7191 36.0741 30.5407C35.9239 30.3622 35.7924 30.212 35.6985 30.0993L36.1117 29.9021C35.8393 30.2402 35.5952 30.5407 35.4073 30.7848C35.2101 31.029 35.0505 31.245 34.9096 31.4329C34.7781 31.6207 34.6654 31.7897 34.5715 31.94C34.487 32.0996 34.4306 32.2405 34.3931 32.3814C34.3555 32.5222 34.3555 32.6443 34.3837 32.7664C34.4025 32.8885 34.4682 32.9918 34.5621 33.0951C34.6654 33.2172 34.7969 33.2923 34.9378 33.3299C35.0786 33.3675 35.2289 33.3581 35.3886 33.3111C35.5482 33.2642 35.7173 33.1609 35.8863 33.0106Z" fill="#EDEDED"/>
<path d="M41.8122 29.7518C41.3145 30.0805 40.8074 30.2495 40.2721 30.2402C39.7368 30.2402 39.2296 30.0899 38.7413 29.7988C38.2529 29.5076 37.8303 29.0944 37.4734 28.5591C37.1072 28.0144 36.8912 27.4603 36.8067 26.8968C36.7221 26.3334 36.7879 25.8074 37.0039 25.3097C37.2199 24.812 37.5674 24.3893 38.0745 24.0513C38.5816 23.7132 39.0981 23.5441 39.6053 23.5629C40.1124 23.5817 40.6008 23.7413 41.0703 24.0513C41.5399 24.3612 41.9531 24.7838 42.31 25.3191C42.6669 25.8544 42.9016 26.3897 43.0049 26.9438C43.1083 27.4979 43.0707 28.005 42.8829 28.4934C42.695 28.9817 42.3382 29.3949 41.8122 29.7424V29.7518ZM41.2769 28.5591C41.5962 28.3431 41.8122 28.0989 41.9062 27.8172C42.0001 27.5354 42.0095 27.2349 41.9249 26.9062C41.8404 26.5775 41.6808 26.2394 41.446 25.892C41.2112 25.5445 40.9576 25.2627 40.6947 25.0655C40.4223 24.8589 40.15 24.7556 39.8588 24.7368C39.5677 24.718 39.2672 24.812 38.9667 25.0186C38.6474 25.2346 38.4314 25.4881 38.3281 25.7887C38.2247 26.0892 38.2154 26.3991 38.2905 26.7372C38.3656 27.0753 38.5159 27.404 38.7319 27.7233C38.9479 28.052 39.2014 28.3149 39.4738 28.5215C39.7461 28.7188 40.0373 28.8315 40.3472 28.8502C40.6571 28.869 40.967 28.7751 41.2769 28.5685V28.5591ZM43.2397 28.5873L40.7229 24.8213L40.5726 24.9247L38.3093 21.5344L39.5208 20.7267L44.3103 27.8829L43.2491 28.5873H43.2397Z" fill="#EDEDED"/>
<path d="M47.8042 26.3615C47.2125 26.6433 46.6303 26.756 46.0668 26.709C45.5033 26.662 44.9868 26.4742 44.5172 26.1361C44.057 25.798 43.6814 25.3379 43.3997 24.7462C43.0991 24.1076 42.9583 23.4972 42.9864 22.9055C43.0146 22.3138 43.1837 21.7973 43.4936 21.3278C43.8035 20.8582 44.2543 20.4919 44.8271 20.229C45.4376 19.9472 46.0105 19.8439 46.5739 19.9284C47.128 20.013 47.6352 20.2665 48.0859 20.6798C48.5367 21.093 48.8936 21.6658 49.1753 22.3984L47.8793 23.0088L47.6539 22.5299C47.3534 21.9006 47.0247 21.4874 46.6678 21.2996C46.311 21.1118 45.8978 21.1305 45.4188 21.3465C44.8835 21.6001 44.5642 21.9476 44.4609 22.3984C44.3576 22.8492 44.4609 23.3939 44.752 24.0325C45.0337 24.6241 45.3718 25.0186 45.7851 25.2252C46.1983 25.4224 46.6491 25.413 47.1468 25.1782C47.4661 25.0279 47.7103 24.8213 47.8793 24.5772C48.0484 24.3236 48.1235 24.0325 48.1235 23.7038L49.5979 23.4878C49.6261 24.117 49.4665 24.6899 49.1378 25.2064C48.8091 25.7229 48.3583 26.108 47.8042 26.3709V26.3615ZM44.5078 24.5866L44.0477 23.6005L48.0672 21.7128L48.5273 22.6989L44.5078 24.5866Z" fill="#EDEDED"/>
<path d="M53.918 23.7977L50.5747 17.9187L51.9552 17.6182L54.0965 21.3841L54.4346 17.0641L55.6179 16.8011L57.7685 20.5671L58.0972 16.247L59.4777 15.9371L58.9706 22.6707L57.8718 22.9149L55.4676 18.9048L55.0168 23.5629L53.918 23.8071V23.7977Z" fill="#EDEDED"/>
<path d="M60.6983 14.998L60.5762 13.6832L62.013 13.5517L62.1257 14.8665L60.6889 14.998H60.6983ZM61.365 22.4078L60.7922 15.9747L62.2291 15.8432L62.8019 22.2763L61.365 22.4078Z" fill="#EDEDED"/>
<path d="M63.1589 16.8857L63.1401 15.7587L67.6386 15.6836L67.6574 16.8105L63.1589 16.8857ZM67.7513 22.1354C67.3287 22.22 66.9061 22.2669 66.5022 22.2575C66.0984 22.2575 65.7228 22.1824 65.4035 22.0509C65.0748 21.9194 64.8306 21.694 64.6615 21.3935C64.5113 21.1212 64.4268 20.83 64.4174 20.5389C64.408 20.2478 64.3986 19.9191 64.3892 19.5528L64.2953 13.9368L65.7322 13.918L65.8261 19.4495C65.8261 19.7125 65.8355 19.9379 65.8449 20.1351C65.8449 20.3323 65.9012 20.4919 65.9763 20.614C66.1266 20.8488 66.352 20.9803 66.6713 20.9991C66.9906 21.0179 67.3475 20.9991 67.7513 20.9333L67.7701 22.1448L67.7513 22.1354Z" fill="#EDEDED"/>
<path d="M68.3804 22.1354L69.4228 13.5893L70.7 13.7489L70.1553 18.2474L70.3244 18.2662L69.836 22.3139L68.3898 22.1354H68.3804ZM72.8225 22.6801L73.1981 19.5904C73.2263 19.3932 73.2357 19.1584 73.2357 18.9142C73.2357 18.67 73.1981 18.4258 73.1324 18.1817C73.0573 17.9469 72.9352 17.7403 72.7474 17.5618C72.5689 17.3928 72.306 17.2895 71.9679 17.2425C71.7894 17.2237 71.6016 17.2237 71.4138 17.2613C71.226 17.2989 71.0569 17.3834 70.8973 17.5055C70.7376 17.637 70.5967 17.8154 70.4746 18.0596C70.3619 18.3038 70.2774 18.6137 70.2305 19.0081L69.4228 18.5385C69.4886 17.9938 69.6576 17.5149 69.9206 17.0923C70.1835 16.6791 70.5404 16.3597 70.9818 16.1437C71.4232 15.9277 71.9491 15.862 72.5501 15.9371C73.0291 15.9935 73.4047 16.125 73.6959 16.3222C73.987 16.5194 74.203 16.7542 74.3627 17.0171C74.5129 17.2801 74.6162 17.5618 74.6726 17.853C74.7289 18.1441 74.7477 18.4071 74.7477 18.6606C74.7477 18.9142 74.7289 19.1114 74.7101 19.2711L74.2781 22.8492L72.8319 22.6707L72.8225 22.6801Z" fill="#EDEDED"/>
<path d="M76.8234 23.4126L79.5562 15.2516L82.9277 16.3785C83.0029 16.4067 83.1062 16.4443 83.2283 16.4912C83.3503 16.5382 83.463 16.5945 83.5663 16.6415C84.0171 16.8763 84.3552 17.158 84.5806 17.5055C84.806 17.853 84.9375 18.2286 84.9563 18.6512C84.9844 19.0738 84.9187 19.5058 84.7684 19.9566C84.5431 20.6234 84.1862 21.1399 83.6884 21.5062C83.1907 21.8725 82.5803 21.9945 81.8477 21.8725L81.2467 21.7316L79.143 21.0272L78.1851 23.8822L76.814 23.422L76.8234 23.4126ZM79.575 19.7406L81.5284 20.398C81.6036 20.4262 81.6881 20.445 81.7914 20.4731C81.8853 20.5013 81.9792 20.5107 82.0637 20.5107C82.3079 20.5295 82.5239 20.4919 82.7023 20.3886C82.8808 20.2853 83.031 20.1538 83.1437 19.9942C83.2564 19.8345 83.3503 19.6655 83.4067 19.4871C83.463 19.3086 83.5006 19.1208 83.5006 18.9236C83.5006 18.7264 83.4724 18.5291 83.3879 18.3413C83.3034 18.1535 83.1625 17.9938 82.9559 17.8624C82.8808 17.8154 82.8056 17.7684 82.7117 17.7309C82.6178 17.6933 82.5333 17.6651 82.4582 17.637L80.5048 16.9796L79.5844 19.7312L79.575 19.7406ZM81.519 24.981L81.0213 21.1212L82.5145 21.2808L83.0686 25.5069L81.519 24.9904V24.981Z" fill="#EDEDED"/>
<path d="M86.027 27.2725C85.4447 26.972 85.0033 26.5775 84.6934 26.0986C84.3835 25.6196 84.2239 25.0937 84.2145 24.5208C84.1957 23.948 84.3459 23.3751 84.6465 22.7928C84.9752 22.1636 85.379 21.6846 85.8579 21.3465C86.3369 21.0085 86.8628 20.83 87.4169 20.7925C87.9804 20.7549 88.5345 20.8864 89.098 21.1869C89.6896 21.4968 90.1216 21.9006 90.394 22.389C90.6663 22.8773 90.7696 23.4314 90.7133 24.0419C90.6475 24.6523 90.4221 25.2909 90.0089 25.9483L88.7411 25.2909L88.9853 24.8213C89.3046 24.1921 89.4361 23.685 89.3609 23.2906C89.2858 22.8961 89.0322 22.5674 88.5627 22.3326C88.0367 22.0603 87.5672 22.0227 87.1446 22.2105C86.722 22.3984 86.3463 22.8116 86.027 23.4314C85.7265 24.0137 85.6232 24.5302 85.7077 24.981C85.7922 25.4318 86.0833 25.7887 86.5717 26.0422C86.8816 26.2019 87.1915 26.277 87.492 26.2582C87.7926 26.2394 88.0743 26.1267 88.3373 25.9295L89.3985 26.972C88.9101 27.3758 88.3654 27.6012 87.755 27.6481C87.1446 27.6951 86.5717 27.573 86.0176 27.2913L86.027 27.2725ZM85.4447 23.5817L85.9425 22.6144L89.8868 24.6617L89.3797 25.629L85.4353 23.5817H85.4447Z" fill="#EDEDED"/>
<path d="M90.4126 29.6861L92.2345 23.0652L93.4084 23.901L92.0279 28.6624L96.0568 25.7793L97.2401 26.6151L91.5959 30.5313L90.4126 29.6955V29.6861Z" fill="#EDEDED"/>
<path d="M93.8311 32.2875L98.0666 27.4134L99.156 28.3525L94.9205 33.2266L93.8311 32.2875ZM98.7052 26.6714L99.5692 25.676L100.659 26.6151L99.7946 27.6106L98.7052 26.6621V26.6714Z" fill="#EDEDED"/>
<path d="M97.3621 35.8656C96.8174 35.2833 96.4981 34.6917 96.4136 34.0812C96.3291 33.4708 96.4887 32.9073 96.8832 32.3814L98.0571 33.2923C97.8786 33.5647 97.8129 33.8652 97.8599 34.1751C97.9068 34.485 98.0665 34.7856 98.3388 35.0767C98.5736 35.3303 98.8084 35.4711 99.0432 35.5181C99.278 35.565 99.4752 35.4993 99.6442 35.3397C99.7475 35.2364 99.8133 35.133 99.832 35.0203C99.8508 34.9077 99.8039 34.7386 99.71 34.5132C99.616 34.2878 99.4376 33.9497 99.1934 33.5083C98.9211 33.02 98.7427 32.5974 98.6393 32.2499C98.536 31.9024 98.5266 31.6019 98.5924 31.3483C98.6581 31.0948 98.8084 30.8506 99.0432 30.6252C99.3343 30.3528 99.663 30.1838 100.02 30.1275C100.386 30.0711 100.752 30.1275 101.128 30.2965C101.504 30.4655 101.87 30.7285 102.227 31.1042C102.574 31.4704 102.819 31.8461 102.978 32.2311C103.138 32.6162 103.185 33.0012 103.147 33.3675C103.1 33.7337 102.959 34.0812 102.715 34.3817L101.513 33.4989C101.692 33.2829 101.757 33.0482 101.729 32.7758C101.701 32.5129 101.569 32.2405 101.335 31.9775C101.119 31.7146 100.893 31.5549 100.658 31.4892C100.424 31.4235 100.236 31.461 100.076 31.6113C99.9823 31.6958 99.9354 31.7991 99.9354 31.9212C99.9354 32.0433 99.9823 32.2217 100.095 32.4659C100.208 32.7101 100.386 33.0576 100.64 33.5083C100.893 33.9685 101.072 34.3723 101.166 34.7104C101.26 35.0485 101.26 35.349 101.184 35.612C101.109 35.875 100.95 36.1191 100.705 36.3539C100.236 36.8047 99.7006 36.9831 99.1089 36.8892C98.5173 36.8047 97.935 36.4572 97.3527 35.8562L97.3621 35.8656Z" fill="#EDEDED"/>
<path d="M101.25 40.6082C100.875 40.0729 100.649 39.5282 100.593 38.9553C100.537 38.3919 100.63 37.8472 100.884 37.3306C101.128 36.8141 101.523 36.3633 102.058 35.9877C102.631 35.5745 103.213 35.3303 103.786 35.2551C104.368 35.1706 104.913 35.2551 105.429 35.4711C105.946 35.6965 106.387 36.0722 106.754 36.5887C107.139 37.1334 107.345 37.6875 107.364 38.251C107.383 38.8145 107.223 39.3498 106.895 39.8663C106.566 40.3828 106.068 40.843 105.401 41.2468L104.575 40.0823L105.007 39.7724C105.58 39.3592 105.918 38.9647 106.04 38.5797C106.162 38.1946 106.068 37.7908 105.768 37.3682C105.42 36.8892 105.026 36.6357 104.556 36.6169C104.096 36.5981 103.579 36.7859 103.007 37.1992C102.471 37.5748 102.143 37.988 102.02 38.4294C101.898 38.8708 101.992 39.3122 102.312 39.763C102.518 40.0541 102.762 40.2513 103.035 40.3734C103.307 40.4955 103.617 40.5237 103.936 40.458L104.415 41.8667C103.795 42.0075 103.204 41.9512 102.65 41.7258C102.086 41.491 101.626 41.1247 101.26 40.6176L101.25 40.6082ZM102.405 37.0489L103.288 36.4197L105.871 40.0353L104.988 40.6646L102.405 37.0489Z" fill="#EDEDED"/>
<path d="M65.9953 100.966C64.6618 100.966 63.1873 100.149 62.9056 98.3181C62.7271 97.1535 61.8444 96.6088 61.0837 96.4962C60.3323 96.3835 59.3181 96.6182 58.7922 97.6701C57.9563 99.323 56.3035 99.6423 55.0356 99.2384C53.7678 98.8252 52.622 97.5949 52.9132 95.7636C53.101 94.5991 52.4342 93.8102 51.7486 93.4627C51.0631 93.1153 50.03 93.0307 49.2036 93.8666C47.8982 95.1814 46.2265 94.9748 45.1465 94.1953C44.0665 93.4158 43.3528 91.885 44.2074 90.2415C44.7427 89.1991 44.3576 88.2411 43.813 87.6964C43.2683 87.1517 42.3103 86.7573 41.2679 87.302C39.6244 88.1472 38.0936 87.4429 37.3141 86.3629C36.5347 85.2829 36.328 83.6112 37.6428 82.3058C38.4787 81.4794 38.4035 80.4463 38.0467 79.7608C37.6898 79.0752 36.9103 78.399 35.7458 78.5962C33.9145 78.8968 32.6842 77.7416 32.271 76.4738C31.8578 75.2059 32.1865 73.5531 33.8393 72.7172C34.8912 72.1913 35.1353 71.1864 35.0133 70.4257C34.8912 69.665 34.3465 68.7823 33.1913 68.6038C31.36 68.3221 30.543 66.8476 30.543 65.5141C30.543 64.1805 31.36 62.7061 33.1913 62.4243C34.3559 62.2459 34.9006 61.3631 35.0133 60.6024C35.1353 59.8417 34.8912 58.8368 33.8393 58.3109C32.1865 57.4751 31.8672 55.8222 32.271 54.5544C32.6842 53.2865 33.9145 52.1314 35.7458 52.4319C36.9103 52.6197 37.6898 51.953 38.0467 51.2674C38.3941 50.5818 38.4787 49.5488 37.6428 48.7223C36.328 47.4169 36.5347 45.7453 37.3141 44.6653C38.0936 43.5853 39.6244 42.8715 41.2679 43.7261C42.3197 44.2614 43.2683 43.8764 43.813 43.3317C44.3576 42.787 44.7521 41.8291 44.2074 40.7866C43.3622 39.1431 44.0665 37.6124 45.1465 36.8329C46.2265 36.0534 47.8982 35.8468 49.2036 37.1616C50.03 37.9974 51.0631 37.9223 51.7486 37.5654C52.4342 37.2179 53.101 36.429 52.9132 35.2645C52.6127 33.4332 53.7678 32.2029 55.0356 31.7897C56.3035 31.3765 57.9563 31.7052 58.7922 33.3581C59.3275 34.4099 60.323 34.6541 61.0837 34.532C61.8444 34.4099 62.7271 33.8652 62.9056 32.7101C63.1873 30.8788 64.6618 30.0617 65.9953 30.0617C67.3289 30.0617 68.8033 30.8788 69.0851 32.7101C69.2635 33.8746 70.1463 34.4193 70.907 34.532C71.6677 34.6541 72.6726 34.4099 73.1985 33.3581C74.0343 31.7052 75.6872 31.3765 76.955 31.7897C78.2229 32.2029 79.3686 33.4332 79.0775 35.2645C78.8897 36.429 79.5565 37.2085 80.242 37.5654C80.9276 37.9129 81.9606 37.988 82.7871 37.1616C84.0925 35.8468 85.7641 36.0534 86.8441 36.8329C87.9241 37.6124 88.6285 39.1431 87.7833 40.7866C87.248 41.8291 87.633 42.787 88.1777 43.3317C88.7224 43.8764 89.6803 44.2708 90.7228 43.7261C92.3663 42.8809 93.897 43.5853 94.6765 44.6653C95.456 45.7453 95.6626 47.4169 94.3478 48.7223C93.512 49.5488 93.5871 50.5818 93.944 51.2674C94.2915 51.953 95.071 52.6197 96.2449 52.4319C98.0762 52.1314 99.3065 53.2865 99.7197 54.5544C100.133 55.8222 99.8042 57.4751 98.1513 58.3109C97.0995 58.8368 96.8553 59.8417 96.9774 60.6024C97.0995 61.3631 97.6442 62.2459 98.7993 62.4243C100.631 62.7061 101.448 64.1805 101.448 65.5141C101.448 66.8476 100.631 68.3221 98.7993 68.6038C97.6348 68.7823 97.0901 69.665 96.9774 70.4257C96.8553 71.1864 97.0995 72.1913 98.1513 72.7172C99.8042 73.5531 100.124 75.2059 99.7197 76.4738C99.3065 77.7416 98.0762 78.8874 96.2449 78.5962C95.0897 78.4084 94.2915 79.0752 93.944 79.7608C93.5965 80.4463 93.5214 81.4794 94.3572 82.3058C95.672 83.6112 95.4654 85.2829 94.6859 86.3629C93.897 87.4429 92.3756 88.1566 90.7322 87.302C89.6897 86.7667 88.7318 87.1517 88.1871 87.6964C87.6424 88.2411 87.248 89.1991 87.7927 90.2415C88.6379 91.885 87.9335 93.4158 86.8535 94.1953C85.7735 94.9748 84.1019 95.1814 82.7965 93.8666C81.97 93.0307 80.937 93.1059 80.2514 93.4534C79.5658 93.8008 78.8991 94.5897 79.0869 95.7542C79.3874 97.5855 78.2323 98.8158 76.9644 99.229C75.6966 99.6423 74.0437 99.3136 73.2079 97.6607C72.682 96.6088 71.6771 96.3741 70.9164 96.4868C70.1557 96.6088 69.2729 97.1535 69.0945 98.3087C68.8127 100.14 67.3383 100.957 66.0047 100.957L65.9953 100.966ZM60.7174 95.5194C60.8864 95.5194 61.0555 95.5288 61.2339 95.557C62.6051 95.773 63.6193 96.7967 63.8353 98.1678C64.0419 99.5389 65.1313 100.018 65.9953 100.018C66.8593 100.018 67.9487 99.5296 68.1553 98.1678C68.3713 96.7967 69.3856 95.773 70.7567 95.557C72.1279 95.3316 73.4145 95.9984 74.0343 97.2381C74.6542 98.4777 75.8375 98.5998 76.6639 98.3369C77.4903 98.0739 78.3637 97.2756 78.1477 95.9045C77.9224 94.5334 78.5797 93.2467 79.81 92.6175C81.0403 91.9883 82.4678 92.2137 83.4445 93.1998C84.4212 94.1859 85.5857 93.9417 86.2807 93.4252C86.985 92.918 87.5767 91.885 86.9381 90.6547C86.3088 89.4245 86.5248 87.997 87.5109 87.0109C88.497 86.0248 89.9151 85.8088 91.1548 86.438C92.385 87.0672 93.4181 86.4756 93.9252 85.7806C94.4324 85.0763 94.6765 83.9211 93.6998 82.9444C92.7137 81.9677 92.4883 80.5402 93.1176 79.31C93.7468 78.0797 95.0428 77.4223 96.4045 77.6477C97.7663 77.8637 98.5646 76.9903 98.8369 76.1639C99.1092 75.3374 98.9778 74.1635 97.7381 73.5343C96.4985 72.9051 95.8411 71.6185 96.0571 70.2567C96.2731 68.8856 97.2967 67.8713 98.6679 67.6553C100.039 67.4393 100.518 66.3593 100.518 65.4953C100.518 64.6313 100.03 63.5419 98.6679 63.3353C97.2967 63.1193 96.2731 62.105 96.0571 60.7339C95.8411 59.3627 96.4985 58.0761 97.7381 57.4563C98.9778 56.8365 99.0999 55.6532 98.8369 54.8267C98.5646 54.0003 97.7663 53.1269 96.4045 53.3429C95.0428 53.5683 93.7468 52.9109 93.1176 51.6806C92.4883 50.4503 92.7137 49.0229 93.6998 48.0462C94.6859 47.0695 94.4417 45.9049 93.9252 45.21C93.4181 44.5056 92.385 43.9233 91.1548 44.5526C89.9245 45.1818 88.497 44.9658 87.5109 43.9797C86.5342 43.003 86.3088 41.5755 86.9381 40.3359C87.5673 39.1056 86.9756 38.0725 86.2807 37.5654C85.5763 37.0583 84.4212 36.8141 83.4445 37.7908C82.4678 38.7769 81.0403 39.0023 79.81 38.3731C78.5797 37.7438 77.9224 36.4572 78.1477 35.0861C78.3731 33.7149 77.4903 32.9261 76.6639 32.6537C75.8375 32.3908 74.6636 32.5129 74.0343 33.7525C73.4051 34.9922 72.1185 35.6496 70.7567 35.4336C69.3856 35.2176 68.3713 34.1939 68.1553 32.8228C67.9393 31.4516 66.8593 30.9727 65.9953 30.9727C65.1313 30.9727 64.0419 31.461 63.8353 32.8228C63.6193 34.1939 62.6051 35.2176 61.2339 35.4336C59.8534 35.6496 58.5762 34.9922 57.9563 33.7525C57.3271 32.5129 56.1532 32.3908 55.3268 32.6537C54.5003 32.9261 53.6175 33.7149 53.8429 35.0861C54.0683 36.4572 53.4109 37.7438 52.1806 38.3731C50.941 39.0023 49.5229 38.7769 48.5462 37.7908C47.5695 36.8047 46.405 37.0489 45.71 37.5654C45.015 38.0819 44.414 39.1056 45.0526 40.3359C45.6818 41.5661 45.4658 42.9936 44.4797 43.9797C43.503 44.9564 42.0756 45.1818 40.8359 44.5526C39.5962 43.9233 38.5726 44.515 38.0654 45.21C37.5583 45.9143 37.3141 47.0695 38.2908 48.0462C39.2769 49.0229 39.5023 50.4503 38.8731 51.69C38.2439 52.9203 36.9573 53.5777 35.5861 53.3523C34.2244 53.1269 33.4261 54.0097 33.1538 54.8361C32.8908 55.6625 33.0129 56.8365 34.2526 57.4657C35.4922 58.0949 36.1496 59.3815 35.9336 60.7433C35.7176 62.1144 34.6939 63.1287 33.3228 63.3447C31.9517 63.5513 31.4727 64.6407 31.4727 65.5047C31.4727 66.3687 31.9611 67.4581 33.3228 67.6647C34.6939 67.8807 35.7176 68.895 35.9336 70.2661C36.1496 71.6372 35.4922 72.9238 34.2526 73.5437C33.0129 74.1635 32.8908 75.3468 33.1538 76.1733C33.4167 76.9997 34.215 77.8731 35.5861 77.6571C36.9573 77.4317 38.2439 78.0891 38.8731 79.3194C39.5023 80.5496 39.2769 81.9771 38.2908 82.9538C37.3047 83.9305 37.5489 85.095 38.0654 85.79C38.5726 86.485 39.6056 87.0766 40.8359 86.4474C42.0662 85.8182 43.4936 86.0342 44.4797 87.0203C45.4658 88.0064 45.6818 89.4245 45.0526 90.6641C44.4234 91.8944 45.015 92.9274 45.71 93.4346C46.4144 93.9417 47.5695 94.1859 48.5462 93.2092C49.5229 92.2231 50.9504 91.9977 52.1806 92.6269C53.4109 93.2561 54.0683 94.5427 53.8429 95.9139C53.6175 97.285 54.5003 98.0739 55.3268 98.3463C56.1532 98.6092 57.3271 98.4871 57.9563 97.2475C58.501 96.1675 59.5529 95.5288 60.7268 95.5288L60.7174 95.5194Z" fill="#EDEDED"/>
<path d="M65.9953 131C63.685 131 61.1399 129.582 60.6516 126.417C60.3511 124.464 58.8954 122.999 56.9326 122.689C54.9792 122.379 53.1385 123.318 52.2463 125.083C50.8001 127.938 47.9451 128.502 45.7475 127.788C43.5499 127.074 41.5684 124.943 42.0849 121.778C42.4042 119.824 41.4651 117.984 39.6995 117.082C37.9339 116.18 35.896 116.509 34.4967 117.918C32.2427 120.191 29.3502 119.843 27.4813 118.481C25.6124 117.129 24.3916 114.481 25.8472 111.635C26.7488 109.879 26.4295 107.832 25.0302 106.432C23.6309 105.033 21.593 104.714 19.8274 105.615C16.9818 107.08 14.3428 105.85 12.9811 103.99C11.6287 102.122 11.2719 99.2291 13.5446 96.9751C14.9533 95.5758 15.2726 93.5379 14.3804 91.7723C13.4788 90.0068 11.6381 89.077 9.68471 89.3869C6.53861 89.9128 4.38799 87.9125 3.67425 85.7243C2.9605 83.5267 3.52398 80.6717 6.37896 79.2255C8.14453 78.3333 9.08367 76.4926 8.77375 74.5392C8.46384 72.5858 6.99878 71.1301 5.04538 70.8202C1.8805 70.3319 0.462402 67.7868 0.462402 65.4765C0.462402 63.1663 1.8805 60.6212 5.04538 60.1329C6.99878 59.8323 8.46384 58.3673 8.77375 56.4139C9.08367 54.4605 8.14453 52.6198 6.37896 51.7276C3.52398 50.2813 2.9605 47.4264 3.67425 45.2288C4.38799 43.0312 6.52922 41.0402 9.68471 41.5661C11.6475 41.8761 13.4788 40.9463 14.3804 39.1807C15.282 37.4152 14.9533 35.3772 13.5446 33.9779C11.2719 31.724 11.6287 28.8315 12.9811 26.9626C14.3334 25.0937 16.9818 23.8728 19.8274 25.3285C21.593 26.2301 23.6309 25.9108 25.0302 24.5114C26.4295 23.1121 26.7488 21.0742 25.8472 19.3086C24.3822 16.4631 25.6124 13.8147 27.4813 12.4623C29.3502 11.11 32.2427 10.7531 34.4967 13.0258C35.8866 14.4345 37.9245 14.7538 39.6995 13.8617C41.4651 12.9601 42.3948 11.1194 42.0849 9.16598C41.5684 6.00109 43.5593 3.86925 45.7475 3.15551C47.9357 2.44176 50.8001 3.00525 52.2463 5.86022C53.1385 7.62579 54.9792 8.56493 56.9326 8.25501C58.886 7.9451 60.3417 6.48005 60.6516 4.52665C61.1399 1.36176 63.685 -0.0563354 65.9953 -0.0563354C68.3055 -0.0563354 70.8506 1.36176 71.339 4.52665C71.6395 6.48005 73.1045 7.9451 75.0579 8.25501C77.0207 8.55554 78.852 7.62579 79.7442 5.86022C81.1905 3.00525 84.0455 2.44176 86.243 3.15551C88.4406 3.86925 90.4222 6.00109 89.9057 9.16598C89.5864 11.1194 90.5255 12.9601 92.2911 13.8617C94.0566 14.7632 96.0946 14.4345 97.4939 13.0258C99.7478 10.7531 102.64 11.1006 104.509 12.4623C106.378 13.8147 107.599 16.4631 106.143 19.3086C105.242 21.0648 105.561 23.1121 106.96 24.5114C108.36 25.9108 110.398 26.2301 112.163 25.3285C115.009 23.8634 117.648 25.0937 119.009 26.9626C120.371 28.8315 120.719 31.724 118.446 33.9779C117.037 35.3772 116.718 37.4152 117.61 39.1807C118.502 40.9463 120.352 41.8761 122.306 41.5661C125.461 41.0496 127.603 43.0406 128.316 45.2288C129.03 47.4264 128.467 50.2813 125.612 51.7276C123.846 52.6198 122.907 54.4605 123.217 56.4139C123.527 58.3673 124.992 59.8229 126.945 60.1329C130.11 60.6212 131.528 63.1663 131.528 65.4765C131.528 67.7868 130.11 70.3319 126.945 70.8202C124.992 71.1207 123.527 72.5858 123.217 74.5392C122.907 76.4926 123.846 78.3333 125.612 79.2255C128.467 80.6717 129.03 83.5267 128.316 85.7243C127.603 87.9219 125.471 89.9128 122.306 89.3869C120.352 89.077 118.512 90.0068 117.61 91.7723C116.709 93.5379 117.037 95.5758 118.446 96.9751C120.719 99.2291 120.371 102.122 119.009 103.99C117.648 105.859 115.009 107.08 112.163 105.625C110.398 104.723 108.36 105.042 106.96 106.442C105.561 107.841 105.242 109.879 106.143 111.644C107.608 114.49 106.378 117.138 104.509 118.491C102.64 119.843 99.7478 120.2 97.4939 117.927C96.0946 116.519 94.0566 116.199 92.2911 117.091C90.5255 117.993 89.5957 119.834 89.9057 121.787C90.4222 124.943 88.4312 127.084 86.243 127.798C84.0455 128.511 81.1905 127.948 79.7442 125.093C78.852 123.327 77.0113 122.379 75.0579 122.698C73.1045 123.008 71.6489 124.473 71.339 126.426C70.8506 129.591 68.3055 131.009 65.9953 131.009V131ZM56.1907 121.693C56.4818 121.693 56.7824 121.712 57.0829 121.768C59.4495 122.144 61.2151 123.919 61.5813 126.286C61.9852 128.896 64.0888 130.07 65.9953 130.07C67.9017 130.07 70.0054 128.896 70.4092 126.286C70.7755 123.919 72.5411 122.144 74.9077 121.768C77.2743 121.393 79.5 122.529 80.58 124.67C81.7727 127.037 84.1394 127.497 85.9519 126.905C87.7644 126.314 89.4079 124.558 88.9853 121.947C88.6003 119.58 89.7272 117.354 91.8685 116.265C94.0003 115.176 96.4702 115.57 98.1607 117.27C100.03 119.148 102.415 118.857 103.955 117.739C105.495 116.622 106.51 114.434 105.298 112.086C104.199 109.954 104.594 107.484 106.284 105.794C107.975 104.103 110.445 103.709 112.576 104.808C114.924 106.019 117.112 105.005 118.23 103.465C119.348 101.924 119.639 99.5296 117.76 97.6701C116.061 95.9797 115.666 93.5097 116.756 91.3779C117.845 89.2461 120.071 88.1097 122.437 88.4947C125.039 88.908 126.814 87.2833 127.405 85.4613C127.997 83.6488 127.527 81.2822 125.17 80.0895C123.029 79.0095 121.893 76.7837 122.268 74.4171C122.644 72.0505 124.419 70.2849 126.786 69.9186C129.396 69.5148 130.57 67.4112 130.57 65.5047C130.57 63.5983 129.396 61.4946 126.786 61.0908C124.419 60.7245 122.644 58.9589 122.268 56.5923C121.893 54.2257 123.029 51.9999 125.17 50.9199C127.527 49.7272 127.997 47.37 127.405 45.5575C126.814 43.7449 125.057 42.1108 122.437 42.5241C120.071 42.9091 117.845 41.7728 116.756 39.6409C115.666 37.5091 116.061 35.0392 117.76 33.3487C119.639 31.4892 119.348 29.0944 118.23 27.5542C117.112 26.0141 114.924 24.9998 112.576 26.2019C110.445 27.3007 107.975 26.9062 106.284 25.2158C104.594 23.5254 104.209 21.0554 105.298 18.9236C106.51 16.5664 105.495 14.3876 103.955 13.27C102.415 12.1524 100.02 11.8613 98.1607 13.7396C96.4796 15.4394 94.0003 15.8338 91.8685 14.7444C89.7366 13.655 88.6003 11.4293 88.9853 9.06267C89.4079 6.45187 87.7738 4.6863 85.9519 4.09464C84.1394 3.50299 81.7727 3.97256 80.58 6.32979C79.5 8.47101 77.2743 9.61676 74.9077 9.23171C72.5411 8.85606 70.7755 7.08109 70.4092 4.71447C70.0054 2.10368 67.9017 0.929757 65.9953 0.929757C64.0888 0.929757 61.9852 2.10368 61.5813 4.71447C61.2151 7.08109 59.4495 8.85606 57.0829 9.23171C54.7163 9.60737 52.4905 8.47101 51.4105 6.32979C50.2178 3.97256 47.8606 3.50299 46.0386 4.09464C44.2261 4.6863 42.5826 6.44248 43.0146 9.06267C43.3997 11.4293 42.2633 13.655 40.1315 14.7444C37.9996 15.8338 35.5297 15.4394 33.8393 13.7396C31.9704 11.8613 29.585 12.1524 28.0448 13.27C26.5046 14.3876 25.4904 16.5758 26.7018 18.9236C27.8006 21.0554 27.4062 23.5254 25.7158 25.2158C24.0253 26.9062 21.546 27.3007 19.4235 26.2019C17.0663 24.9904 14.8875 26.0047 13.77 27.5449C12.6524 29.085 12.3612 31.4798 14.2395 33.3393C15.9394 35.0298 16.3338 37.4903 15.2444 39.6315C14.155 41.7634 11.9292 42.8997 9.56262 42.5147C6.95183 42.1015 5.18625 43.7262 4.5946 45.5481C4.00294 47.3606 4.47251 49.7272 6.82974 50.9105C8.97097 51.9906 10.1073 54.2163 9.73167 56.5829C9.35601 58.9495 7.58105 60.7151 5.21443 61.0814C2.60363 61.4852 1.42971 63.5889 1.42971 65.4953C1.42971 67.4018 2.60363 69.5054 5.21443 69.9093C7.58105 70.2755 9.35601 72.0411 9.73167 74.4077C10.1073 76.7743 8.97097 79.0001 6.82974 80.0801C4.47251 81.2728 4.00294 83.6394 4.5946 85.4519C5.18625 87.2645 6.95183 88.8986 9.56262 88.4854C11.9386 88.0909 14.155 89.2367 15.2444 91.3685C16.3338 93.5003 15.9394 95.9703 14.2395 97.6607C12.3612 99.5202 12.6524 101.915 13.77 103.455C14.8875 104.995 17.0757 106.01 19.4235 104.798C21.5554 103.699 24.0253 104.094 25.7158 105.784C27.4062 107.475 27.8006 109.945 26.7018 112.076C25.4904 114.424 26.5046 116.612 28.0448 117.73C29.585 118.848 31.9798 119.139 33.8393 117.26C35.5297 115.561 37.9996 115.166 40.1315 116.256C42.2633 117.345 43.3997 119.571 43.0146 121.937C42.592 124.548 44.2261 126.314 46.0386 126.896C47.8512 127.488 50.2178 127.018 51.4105 124.661C52.3496 122.792 54.1716 121.684 56.1907 121.684V121.693Z" fill="#EDEDED"/>
<path d="M63.403 74.3232C69.9769 79.9768 78.8799 80.6623 83.8574 75.6849C89.1447 70.3976 88.0365 60.6869 81.3874 54.0379C80.7488 53.3992 79.7158 53.3992 79.0865 54.0379L71.4138 61.7106C70.7752 62.3492 70.7752 63.3729 71.4138 64.0115C74.419 67.0167 76.0813 70.7169 76.2785 74.1072C77.4243 73.9757 78.4949 73.6376 79.4152 73.0366C79.0208 69.5712 77.4712 65.9837 74.8229 62.9033L80.1853 57.5408C84.5993 62.8094 85.2848 69.6557 81.5565 73.384C77.537 77.4035 69.8924 76.2954 64.5112 70.9141C63.8726 70.2755 62.8395 70.2755 62.2103 70.9141L54.5376 78.5869C53.8989 79.2255 53.8989 80.2491 54.5376 80.8877C61.1866 87.5368 70.8973 88.645 76.1846 83.3577C77.0674 82.4749 77.7624 81.4606 78.2883 80.3712C76.9829 80.6342 75.6305 80.7281 74.2406 80.6436C74.1185 80.7844 74.0058 80.9253 73.8743 81.0662C70.146 84.7945 63.2997 84.109 58.0311 79.695L63.3936 74.3326L63.403 74.3232Z" fill="#D7FF3A"/>
<path d="M68.5965 56.6768C62.0226 51.0232 53.1196 50.3377 48.1422 55.3151C42.8548 60.6024 43.963 70.3131 50.6121 76.9622C51.2507 77.6008 52.2744 77.6008 52.913 76.9622L60.5857 69.2894C61.2243 68.6508 61.2243 67.6272 60.5857 66.9885C57.5805 63.9833 55.9182 60.2831 55.721 56.8928C54.5752 57.0243 53.5046 57.3624 52.5843 57.9635C52.9787 61.4289 54.5283 65.0164 57.1767 68.0967L51.8142 73.4592C47.4003 68.1906 46.7147 61.3443 50.4431 57.616C54.4626 53.5965 62.1071 54.7047 67.4884 60.0859C68.127 60.7245 69.1506 60.7245 69.7892 60.0859L77.462 52.4132C78.1006 51.7746 78.1006 50.7509 77.462 50.1123C70.8129 43.4632 61.1022 42.355 55.8149 47.6424C54.9321 48.5251 54.2372 49.5394 53.7112 50.6288C55.0166 50.3658 56.369 50.2719 57.7589 50.3565C57.881 50.2156 57.9937 50.0747 58.1252 49.9338C61.8535 46.2055 68.6998 46.891 73.9684 51.305L68.6059 56.6674L68.5965 56.6768Z" fill="#D7FF3A"/>
</g>
<defs>
<clipPath id="clip0_78_3122">
<rect width="131" height="131" fill="white" transform="translate(0.5)"/>
</clipPath>
</defs>
</svg>
