<svg width="100" height="28" viewBox="0 0 100 28" fill="none" xmlns="http://www.w3.org/2000/svg">
<path d="M12.0547 19.3184C16.2966 23.0124 22.0404 23.4652 25.2404 20.2109C28.6526 16.7547 27.9386 10.4089 23.6484 6.06335C23.4509 5.86482 23.1838 5.75342 22.9055 5.75342C22.6272 5.75342 22.3602 5.86482 22.1626 6.06335L17.2132 11.0767C17.0174 11.2763 16.9075 11.5463 16.9075 11.8276C16.9075 12.109 17.0174 12.3789 17.2132 12.5785C19.1428 14.533 20.2266 16.9631 20.352 19.1783C21.0698 19.1071 21.7614 18.8673 22.3717 18.4779C22.0578 16.0208 21.0264 13.7146 19.4097 11.8553L22.883 8.35342C25.7292 11.7934 26.1698 16.2693 23.7674 18.7059C21.1721 21.3315 16.2419 20.6084 12.7686 17.0772C12.5711 16.8786 12.304 16.7672 12.0257 16.7672C11.7474 16.7672 11.4804 16.8786 11.2828 17.0772L6.33338 22.0905C6.13738 22.2907 6.0274 22.5611 6.0274 22.843C6.0274 23.1249 6.13738 23.3954 6.33338 23.5955C10.6236 27.9411 16.8916 28.6675 20.3006 25.2243C20.8606 24.656 21.3207 23.995 21.6609 23.2698C20.8028 23.4435 19.926 23.5027 19.0527 23.4457C18.9756 23.5369 18.9016 23.6346 18.818 23.7193C16.4124 26.156 11.9936 25.7097 8.59424 22.8235L12.0547 19.3184Z" fill="#D7FF3A"/>
<path d="M15.3239 8.07683C11.0865 4.38633 5.34887 3.93358 2.15236 7.18434C-1.25618 10.6403 -0.539774 16.9855 3.75865 21.3339C3.95601 21.5324 4.22275 21.6438 4.50075 21.6438C4.77875 21.6438 5.04549 21.5324 5.24286 21.3339L10.1838 16.321C10.2815 16.2223 10.359 16.1051 10.412 15.976C10.4649 15.8468 10.4921 15.7084 10.4921 15.5686C10.4921 15.4287 10.4649 15.2903 10.412 15.1612C10.359 15.032 10.2815 14.9148 10.1838 14.8161C8.25625 12.8617 7.17683 10.4318 7.05153 8.21687C6.33347 8.28803 5.64162 8.52781 5.03083 8.91719C5.34663 11.3735 6.37666 13.6788 7.98961 15.5392L4.53288 19.0441C1.68654 15.6011 1.24642 11.1256 3.64942 8.68919C6.23875 6.06383 11.1668 6.78695 14.6364 10.3178C14.8332 10.5161 15.0994 10.6275 15.3769 10.6275C15.6544 10.6275 15.9206 10.5161 16.1174 10.3178L21.0616 5.30488C21.1593 5.20622 21.2368 5.08895 21.2897 4.95983C21.3426 4.83071 21.3699 4.69225 21.3699 4.55243C21.3699 4.41261 21.3426 4.2742 21.2897 4.14507C21.2368 4.01595 21.1593 3.89868 21.0616 3.80002C16.776 -0.54518 10.5179 -1.26829 7.10936 2.17139C6.55233 2.74167 6.09305 3.40219 5.75044 4.12575C6.60869 3.95201 7.48567 3.89286 8.35905 3.94985C8.43615 3.85864 8.50683 3.76419 8.59357 3.67625C10.9966 1.24306 15.4106 1.68931 18.8063 4.572L15.3239 8.07683Z" fill="#D7FF3A"/>
<path d="M36.7123 21.4994V10.2483C36.7123 10.2074 36.7286 10.1682 36.7574 10.1393C36.7863 10.1104 36.8255 10.0941 36.8663 10.0941H39.5094C39.5303 10.0941 39.551 10.0983 39.5703 10.1065C39.5895 10.1146 39.607 10.1264 39.6216 10.1414C39.6363 10.1563 39.6478 10.174 39.6555 10.1935C39.6632 10.2129 39.667 10.2337 39.6665 10.2547C39.6448 11.13 39.4519 11.9926 39.0988 12.7938C39.0578 12.8806 39.0394 12.9764 39.0452 13.0723C39.051 13.1682 39.0808 13.261 39.132 13.3423C39.1831 13.4236 39.2539 13.4906 39.3378 13.5372C39.4217 13.5839 39.516 13.6086 39.612 13.6091C39.7397 13.6081 39.8635 13.5646 39.9639 13.4856C40.0643 13.4066 40.1357 13.2965 40.1669 13.1726C40.3554 12.2806 40.7633 11.4498 41.3537 10.7554C41.9247 10.1605 42.795 9.86304 43.9647 9.86304C44.2085 9.86304 44.3913 9.86304 44.5132 9.86304C44.5521 9.86622 44.5884 9.88374 44.6151 9.91221C44.6417 9.94069 44.6569 9.97808 44.6575 10.0171V13.0827C44.6572 13.1042 44.6524 13.1254 44.6435 13.145C44.6346 13.1646 44.6218 13.1822 44.6059 13.1966C44.59 13.2111 44.5712 13.2221 44.5509 13.229C44.5305 13.2359 44.509 13.2385 44.4875 13.2368C44.1026 13.2015 43.737 13.1822 43.3873 13.1822C42.1556 13.1822 41.28 13.4775 40.7667 14.0617C40.2535 14.646 39.9905 15.6956 39.9905 17.2044V21.4897C39.9909 21.5101 39.9873 21.5303 39.9797 21.5492C39.9721 21.5681 39.9608 21.5853 39.9464 21.5997C39.932 21.6141 39.9148 21.6254 39.896 21.633C39.8771 21.6406 39.8569 21.6443 39.8365 21.6438H36.8663C36.8269 21.6447 36.7886 21.6301 36.7599 21.6031C36.7311 21.576 36.714 21.5388 36.7123 21.4994Z" fill="white"/>
<path d="M45.2089 16.0009C45.1824 15.1927 45.3093 14.387 45.5824 13.6309C45.8555 12.8748 46.2692 12.1835 46.7994 11.5972C47.313 11.032 47.9335 10.5859 48.6209 10.2875C49.3083 9.98917 50.0475 9.84518 50.791 9.8648C52.4552 9.8648 53.7674 10.438 54.7274 11.5844C55.6874 12.7307 56.1664 14.2104 56.1644 16.0235C56.1644 16.2912 56.1644 16.5041 56.1644 16.6687C56.1613 16.7078 56.1446 16.7443 56.1173 16.7711C56.0901 16.798 56.0543 16.8132 56.017 16.8139H48.5097C48.4891 16.8138 48.4688 16.8182 48.4499 16.8268C48.431 16.8353 48.414 16.8478 48.3999 16.8635C48.3858 16.8793 48.3749 16.8978 48.3679 16.9182C48.3609 16.9385 48.358 16.9601 48.3592 16.9816C48.3731 17.7094 48.6271 18.4096 49.0777 18.9625C49.3036 19.2067 49.5759 19.3981 49.877 19.5243C50.178 19.6505 50.501 19.7086 50.8248 19.6948C51.9363 19.6948 52.7725 19.0646 53.3334 17.8043C53.3489 17.769 53.3764 17.7412 53.4105 17.7262C53.4447 17.7113 53.4829 17.7103 53.5176 17.7236L56.0477 18.7495C56.0672 18.7573 56.085 18.7692 56.1 18.7844C56.115 18.7996 56.1269 18.818 56.1349 18.8382C56.143 18.8584 56.147 18.8801 56.1468 18.9021C56.1466 18.924 56.1421 18.9456 56.1337 18.9657C55.7202 19.8608 55.1046 20.6361 54.3405 21.224C53.4992 21.8692 52.3273 22.1918 50.8248 22.1918C49.1299 22.1918 47.7697 21.6304 46.7442 20.5078C45.7186 19.3851 45.2069 17.8828 45.2089 16.0009ZM48.6356 14.491H52.8882C52.9098 14.4904 52.931 14.4849 52.9504 14.4751C52.9698 14.4652 52.9871 14.4511 53.001 14.4337C53.0149 14.4164 53.0252 14.3961 53.0311 14.3743C53.0371 14.3525 53.0386 14.3296 53.0356 14.3072C52.8309 12.9264 52.0868 12.236 50.8033 12.236C50.2283 12.2137 49.6665 12.4212 49.2312 12.8167C48.8343 13.2129 48.5731 13.7357 48.4882 14.3039C48.4837 14.3271 48.4841 14.351 48.4894 14.374C48.4946 14.397 48.5047 14.4185 48.5187 14.437C48.5328 14.4555 48.5505 14.4705 48.5707 14.4809C48.5909 14.4914 48.6131 14.497 48.6356 14.4975V14.491Z" fill="white"/>
<path d="M61.2765 21.5456L56.9974 10.0793C56.988 10.0553 56.9845 10.0292 56.9872 10.0035C56.9899 9.97775 56.9987 9.9531 57.0128 9.93171C57.027 9.91032 57.0461 9.89286 57.0684 9.88088C57.0907 9.8689 57.1155 9.86277 57.1406 9.86305H60.2203C60.2524 9.86372 60.2836 9.87442 60.3097 9.89372C60.3359 9.91302 60.3557 9.94 60.3666 9.97114L61.9128 14.7018C62.1758 15.4598 62.3675 16.242 62.4855 17.0377C62.5805 17.7118 62.6368 18.3911 62.6541 19.0721C62.6598 19.2228 62.722 19.3653 62.8276 19.4697C62.9332 19.5742 63.074 19.6324 63.2204 19.6323H63.3254C63.4734 19.6323 63.6155 19.5727 63.7214 19.4662C63.8272 19.3596 63.8883 19.2147 63.8917 19.0623C63.915 18.1668 63.9574 17.4527 64.0189 16.9197C64.1427 16.1683 64.3192 15.427 64.547 14.7018L66.0232 9.97442C66.0332 9.94241 66.0527 9.91446 66.079 9.89448C66.1052 9.87449 66.1369 9.86349 66.1696 9.86305H69.1633C69.1878 9.86372 69.2118 9.87032 69.2334 9.88232C69.2549 9.89433 69.2734 9.91141 69.2873 9.93215C69.3013 9.95289 69.3103 9.9767 69.3136 10.0017C69.3169 10.0267 69.3145 10.0522 69.3065 10.076L65.247 21.5423C65.236 21.5722 65.2164 21.598 65.1908 21.6161C65.1652 21.6342 65.1349 21.6439 65.1038 21.6439H61.4197C61.389 21.6442 61.3589 21.635 61.3334 21.6174C61.3078 21.5999 61.288 21.5749 61.2765 21.5456Z" fill="white"/>
<path d="M71.2329 8.19276V5.3615C71.2329 5.34073 71.2367 5.32017 71.2442 5.30103C71.2517 5.28188 71.2626 5.26453 71.2764 5.25C71.2902 5.23547 71.3066 5.22404 71.3245 5.21639C71.3425 5.20874 71.3616 5.20505 71.3809 5.20548H74.3755C74.414 5.20548 74.4509 5.22193 74.4781 5.25119C74.5053 5.28045 74.5206 5.32012 74.5206 5.3615V8.18625C74.5198 8.22737 74.5042 8.26661 74.4772 8.29569C74.4502 8.32477 74.4137 8.34148 74.3755 8.34232H71.3809C71.3432 8.34239 71.3069 8.32694 71.2793 8.29914C71.2518 8.27135 71.2352 8.23329 71.2329 8.19276ZM71.3417 21.4877V10.0944C71.3425 10.0527 71.3584 10.013 71.3861 9.98384C71.4138 9.95467 71.451 9.93832 71.4897 9.93833H74.2879C74.3263 9.93833 74.3632 9.95478 74.3904 9.98404C74.4176 10.0133 74.4329 10.053 74.4329 10.0944V21.4877C74.4333 21.5083 74.4299 21.5288 74.4227 21.548C74.4156 21.5671 74.4049 21.5845 74.3914 21.599C74.3778 21.6136 74.3616 21.6251 74.3439 21.6328C74.3261 21.6405 74.307 21.6442 74.2879 21.6438H71.4897C71.4704 21.6442 71.4512 21.6405 71.4333 21.6328C71.4153 21.6252 71.399 21.6138 71.3852 21.5992C71.3714 21.5847 71.3605 21.5673 71.353 21.5482C71.3455 21.5291 71.3417 21.5085 71.3417 21.4877Z" fill="white"/>
<path d="M76.541 18.8131L79.1419 17.9528C79.1606 17.9464 79.1804 17.9442 79.2 17.9462C79.2196 17.9482 79.2386 17.9544 79.2558 17.9644C79.273 17.9744 79.2881 17.988 79.3 18.0044C79.3119 18.0208 79.3204 18.0395 79.325 18.0595C79.46 18.4799 79.6706 18.8696 79.9457 19.2077C80.2716 19.6443 80.9078 19.8546 81.8451 19.8546C82.2807 19.8791 82.7133 19.7664 83.0866 19.5311C83.226 19.445 83.3415 19.3224 83.4215 19.1754C83.5015 19.0285 83.5433 18.8624 83.5428 18.6935C83.5492 18.5478 83.5247 18.4024 83.471 18.2677C83.4174 18.1329 83.3359 18.0122 83.2325 17.914C82.9159 17.6723 82.5471 17.5156 82.1586 17.4579L80.5726 17.1345C79.2753 16.8736 78.3318 16.478 77.7421 15.9475C77.4049 15.6401 77.1575 15.24 77.0283 14.7929C76.8211 13.9798 76.8767 13.1182 77.1863 12.3413C77.496 11.5644 78.0425 10.9154 78.7415 10.4945C79.6539 10.0484 80.6547 9.83338 81.662 9.86704C82.7303 9.82602 83.788 10.1007 84.7129 10.6594C85.3964 11.069 85.9532 11.674 86.3175 12.4027C86.3257 12.4218 86.3303 12.4424 86.3308 12.4634C86.3314 12.4843 86.328 12.5052 86.3207 12.5247C86.3135 12.5443 86.3027 12.5621 86.2888 12.5773C86.2749 12.5924 86.2583 12.6046 86.2399 12.613L83.9028 13.7159C83.8848 13.7243 83.8652 13.7288 83.8455 13.7291C83.8257 13.7293 83.806 13.7254 83.7877 13.7176C83.7695 13.7097 83.7529 13.698 83.7391 13.6833C83.7252 13.6685 83.7144 13.651 83.7073 13.6318C83.5417 13.1714 83.2383 12.7788 82.8421 12.512C82.4458 12.2453 81.9776 12.1185 81.5068 12.1505C81.0951 12.124 80.6855 12.2302 80.3337 12.4545C80.2036 12.5421 80.0973 12.663 80.025 12.8057C79.9527 12.9485 79.9169 13.1082 79.9209 13.2695C79.9101 13.4091 79.9328 13.5493 79.987 13.6775C80.0412 13.8057 80.1251 13.9178 80.2312 14.0037C80.6079 14.2225 81.0225 14.361 81.451 14.4113L83.0028 14.712C85.5664 15.2252 86.8482 16.437 86.8482 18.3474C86.8624 18.8988 86.743 19.4451 86.5011 19.9358C86.2591 20.4265 85.9025 20.8457 85.464 21.1548C84.5391 21.8447 83.2718 22.1897 81.662 22.1897C80.4536 22.2207 79.2601 21.9064 78.2108 21.2809C77.7876 21.0436 77.4137 20.7214 77.1106 20.3329C76.8075 19.9443 76.5812 19.497 76.4448 19.0169C76.4335 18.9765 76.4371 18.9332 76.4549 18.8955C76.4727 18.8578 76.5035 18.8284 76.541 18.8131Z" fill="white"/>
<path d="M89.0446 16.0009C89.018 15.1927 89.145 14.387 89.4181 13.6309C89.6911 12.8748 90.1049 12.1835 90.6351 11.5972C91.1487 11.032 91.7691 10.5859 92.4565 10.2875C93.1439 9.98917 93.8832 9.84518 94.6267 9.8648C96.2909 9.8648 97.603 10.438 98.563 11.5844C99.5231 12.7307 100.002 14.2104 100 16.0235C100 16.2912 100 16.5041 100 16.6687C99.997 16.7078 99.9802 16.7443 99.9529 16.7711C99.9257 16.798 99.89 16.8132 99.8526 16.8139H92.3453C92.3248 16.8138 92.3044 16.8182 92.2855 16.8268C92.2667 16.8353 92.2496 16.8478 92.2355 16.8635C92.2214 16.8793 92.2106 16.8978 92.2036 16.9182C92.1966 16.9385 92.1936 16.9601 92.1949 16.9816C92.2088 17.7094 92.4627 18.4096 92.9134 18.9625C93.1392 19.2067 93.4116 19.3981 93.7126 19.5243C94.0136 19.6505 94.3366 19.7086 94.6605 19.6948C95.772 19.6948 96.6082 19.0646 97.169 17.8043C97.1845 17.769 97.212 17.7412 97.2462 17.7262C97.2803 17.7113 97.3185 17.7103 97.3533 17.7236L99.8833 18.7495C99.9028 18.7573 99.9206 18.7692 99.9356 18.7844C99.9506 18.7996 99.9625 18.818 99.9706 18.8382C99.9786 18.8584 99.9827 18.8801 99.9824 18.9021C99.9822 18.924 99.9777 18.9456 99.9693 18.9657C99.5558 19.8608 98.9402 20.6361 98.1761 21.224C97.3348 21.8692 96.1629 22.1918 94.6605 22.1918C92.9656 22.1918 91.6053 21.6304 90.5798 20.5078C89.5543 19.3851 89.0425 17.8828 89.0446 16.0009ZM92.4712 14.491H96.7238C96.7454 14.4904 96.7666 14.4849 96.786 14.4751C96.8055 14.4652 96.8227 14.4511 96.8366 14.4337C96.8505 14.4164 96.8608 14.3961 96.8668 14.3743C96.8727 14.3525 96.8742 14.3296 96.8712 14.3072C96.6665 12.9264 95.9224 12.236 94.639 12.236C94.0639 12.2137 93.5022 12.4212 93.0669 12.8167C92.67 13.2129 92.4088 13.7357 92.3238 14.3039C92.3193 14.3271 92.3197 14.351 92.325 14.374C92.3303 14.397 92.3403 14.4185 92.3544 14.437C92.3684 14.4555 92.3862 14.4705 92.4064 14.4809C92.4266 14.4914 92.4487 14.497 92.4712 14.4975V14.491Z" fill="white"/>
</svg>
