<svg width="20" height="18" viewBox="0 0 20 18" fill="none" xmlns="http://www.w3.org/2000/svg">
<path d="M15.1436 5.55698C14.7781 5.34672 14.3081 5.34672 13.8903 5.55698L10.9661 7.29161L8.98172 8.39547L6.10966 10.1301C5.74413 10.3404 5.27415 10.3404 4.8564 10.1301L2.61097 8.76342C2.24543 8.55317 1.98433 8.13265 1.98433 7.65957V5.03133C1.98433 4.61082 2.19321 4.1903 2.61097 3.92748L4.8564 2.61336C5.22193 2.4031 5.69191 2.4031 6.10966 2.61336L8.35509 3.98004C8.72063 4.1903 8.98172 4.61082 8.98172 5.0839V6.81853L10.9661 5.66211V3.87491C10.9661 3.4544 10.7572 3.03388 10.3394 2.77105L6.16188 0.300516C5.79634 0.0902576 5.32637 0.0902576 4.90862 0.300516L0.626632 2.82362C0.208877 3.03388 0 3.4544 0 3.87491V8.81599C0 9.23651 0.208877 9.65702 0.626632 9.91985L4.8564 12.3904C5.22193 12.6006 5.69191 12.6006 6.10966 12.3904L8.98172 10.7083L10.9661 9.55189L13.8381 7.86983C14.2037 7.65957 14.6736 7.65957 15.0914 7.86983L17.3368 9.18394C17.7024 9.3942 17.9634 9.81472 17.9634 10.2878V12.916C17.9634 13.3365 17.7546 13.7571 17.3368 14.0199L15.1436 15.334C14.7781 15.5443 14.3081 15.5443 13.8903 15.334L11.6449 14.0199C11.2794 13.8096 11.0183 13.3891 11.0183 12.916V11.234L9.03394 12.3904V14.125C9.03394 14.5455 9.24282 14.9661 9.66057 15.2289L13.8903 17.6994C14.2559 17.9097 14.7258 17.9097 15.1436 17.6994L19.3734 15.2289C19.7389 15.0186 20 14.5981 20 14.125V9.13138C20 8.71086 19.7911 8.29034 19.3734 8.02752L15.1436 5.55698Z" fill="#AFCF2E"/>
</svg>
