<svg width="32" height="32" viewBox="0 0 32 32" fill="none" xmlns="http://www.w3.org/2000/svg">
<rect x="0.323975" width="31.676" height="31.676" rx="15.838" fill="#D7FF3A"/>
<path d="M9.13636 15.2769C9.13636 15.2769 15.5807 12.5626 17.8158 11.6069C18.6726 11.2246 21.5781 10.0012 21.5781 10.0012C21.5781 10.0012 22.9191 9.46606 22.8074 10.7658C22.7701 11.3011 22.4721 13.1743 22.1741 15.2005C21.7271 18.0677 21.2428 21.2025 21.2428 21.2025C21.2428 21.2025 21.1683 22.0818 20.5351 22.2347C19.9018 22.3876 18.8588 21.6995 18.6726 21.5465C18.5235 21.4319 15.8787 19.7115 14.9102 18.8705C14.6495 18.6411 14.3515 18.1824 14.9474 17.6472C16.2885 16.3856 17.8903 14.8182 18.8588 13.8242C19.3058 13.3654 19.7528 12.295 17.8903 13.5948C15.2455 15.4681 12.6379 17.2266 12.6379 17.2266C12.6379 17.2266 12.0419 17.6089 10.9244 17.2648C9.80684 16.9208 8.50306 16.462 8.50306 16.462C8.50306 16.462 7.60909 15.8886 9.13636 15.2769Z" fill="url(#paint0_linear_78_2462)"/>
<defs>
<linearGradient id="paint0_linear_78_2462" x1="15.5285" y1="9.89209" x2="15.5285" y2="22.2567" gradientUnits="userSpaceOnUse">
<stop stop-color="#545454"/>
<stop offset="1"/>
</linearGradient>
</defs>
</svg>
