<svg width="17" height="15" viewBox="0 0 17 15" fill="none" xmlns="http://www.w3.org/2000/svg">
<path d="M16.7742 2.39504C16.16 2.66446 15.5055 2.84304 14.8232 2.92975C15.5252 2.51065 16.0609 1.85207 16.3128 1.05827C15.6583 1.44846 14.9357 1.72407 14.1657 1.87788C13.5443 1.2162 12.6586 0.806396 11.6924 0.806396C9.8178 0.806396 8.30864 2.32794 8.30864 4.19324C8.30864 4.46162 8.33135 4.71969 8.38709 4.96536C5.57212 4.82807 3.08128 3.47891 1.40799 1.42369C1.11586 1.93053 0.944508 2.51065 0.944508 3.13517C0.944508 4.30782 1.54838 5.3473 2.44851 5.94911C1.90451 5.93878 1.37083 5.78085 0.918702 5.53207C0.918702 5.5424 0.918702 5.55582 0.918702 5.56924C0.918702 7.21465 2.09238 8.58136 3.63148 8.8962C3.35586 8.97156 3.05548 9.00769 2.74373 9.00769C2.52696 9.00769 2.30812 8.9953 2.1027 8.94988C2.54141 10.2908 3.78631 11.2766 5.26657 11.3086C4.11457 12.2098 2.65186 12.7527 1.06838 12.7527C0.790702 12.7527 0.524379 12.7403 0.258057 12.7063C1.75793 13.6735 3.53548 14.2258 5.45238 14.2258C11.6831 14.2258 15.0895 9.06446 15.0895 4.59065C15.0895 4.44098 15.0844 4.29646 15.0772 4.15298C15.7492 3.67607 16.3138 3.08046 16.7742 2.39504Z" fill="#F3F2F2"/>
</svg>
