<svg width="32" height="32" viewBox="0 0 32 32" fill="none" xmlns="http://www.w3.org/2000/svg">
<rect width="31.676" height="31.676" rx="15.838" fill="#D7FF3A"/>
<path d="M23.6996 10.8232C23.1766 11.0485 22.6267 11.2054 22.0636 11.29C22.3269 11.2448 22.7142 10.7705 22.8684 10.5786C23.1027 10.289 23.2812 9.95841 23.395 9.60363C23.395 9.57728 23.4213 9.53964 23.395 9.52082C23.3817 9.51357 23.3668 9.50977 23.3517 9.50977C23.3366 9.50977 23.3217 9.51357 23.3085 9.52082C22.697 9.85223 22.0463 10.1052 21.3716 10.2737C21.3481 10.2808 21.3231 10.2815 21.2992 10.2755C21.2754 10.2696 21.2536 10.2572 21.2362 10.2398C21.1837 10.1772 21.1272 10.1181 21.067 10.0629C20.7918 9.8161 20.4796 9.61414 20.1418 9.46436C19.6859 9.27712 19.1933 9.19603 18.7014 9.22722C18.2242 9.25738 17.7582 9.38551 17.3325 9.60363C16.9133 9.83359 16.5449 10.146 16.2494 10.5221C15.9386 10.9092 15.7141 11.3584 15.5912 11.8395C15.4899 12.2972 15.4784 12.7702 15.5574 13.2323C15.5574 13.3113 15.5574 13.3226 15.4897 13.3113C12.8082 12.9161 10.6082 11.9638 8.81048 9.91982C8.7315 9.82948 8.69013 9.82948 8.6262 9.91982C7.84395 11.1093 8.22379 12.9914 9.20161 13.9211C9.33323 14.0454 9.46862 14.1658 9.61154 14.2787C9.16321 14.2469 8.72584 14.1253 8.32533 13.9211C8.25012 13.8722 8.20875 13.8985 8.20499 13.9889C8.19433 14.1141 8.19433 14.2401 8.20499 14.3653C8.28346 14.9655 8.5198 15.5341 8.88983 16.013C9.25987 16.4918 9.75033 16.8637 10.311 17.0906C10.4477 17.1492 10.5902 17.1933 10.736 17.2223C10.321 17.3041 9.89532 17.3168 9.47615 17.2599C9.38589 17.2411 9.35204 17.2901 9.38589 17.3766C9.93873 18.8823 11.1384 19.3415 12.0185 19.5975C12.1388 19.6163 12.2592 19.6163 12.3945 19.6464C12.3945 19.6464 12.3945 19.6464 12.372 19.669C12.1125 20.1433 11.0632 20.4633 10.5818 20.6289C9.70318 20.9448 8.76637 21.0655 7.83643 20.9827C7.68975 20.9601 7.65591 20.9639 7.6183 20.9827C7.58069 21.0015 7.6183 21.0429 7.65967 21.0806C7.84771 21.2048 8.03575 21.314 8.23131 21.4194C8.81351 21.7372 9.429 21.9897 10.0666 22.1722C13.3686 23.0831 17.0843 22.4131 19.5627 19.9476C21.5108 18.0128 22.1953 15.344 22.1953 12.6714C22.1953 12.5698 22.3194 12.5096 22.3908 12.4569C22.8837 12.0725 23.3182 11.6186 23.6808 11.1093C23.7436 11.0334 23.7758 10.9367 23.771 10.8383C23.771 10.7818 23.771 10.7931 23.6996 10.8232Z" fill="url(#paint0_linear_78_2463)"/>
<defs>
<linearGradient id="paint0_linear_78_2463" x1="15.6872" y1="9.2207" x2="15.6872" y2="22.5609" gradientUnits="userSpaceOnUse">
<stop stop-color="#545454"/>
<stop offset="1"/>
</linearGradient>
</defs>
</svg>
