<svg width="12" height="13" viewBox="0 0 12 13" fill="none" xmlns="http://www.w3.org/2000/svg">
<path d="M5.79 8.09C5.85 8.15 5.92 8.18 6 8.18C6.08 8.18 6.15 8.15 6.21 8.09L7.89 6.41C7.98 6.32 8.0024 6.2124 7.9572 6.0872C7.9124 5.9624 7.82 5.9 7.68 5.9H4.32C4.18 5.9 4.0876 5.9624 4.0428 6.0872C3.9976 6.2124 4.02 6.32 4.11 6.41L5.79 8.09ZM6 12.5C5.17 12.5 4.39 12.3424 3.66 12.0272C2.93 11.7124 2.295 11.285 1.755 10.745C1.215 10.205 0.7876 9.57 0.4728 8.84C0.1576 8.11 0 7.33 0 6.5C0 5.67 0.1576 4.89 0.4728 4.16C0.7876 3.43 1.215 2.795 1.755 2.255C2.295 1.715 2.93 1.2874 3.66 0.9722C4.39 0.6574 5.17 0.5 6 0.5C6.83 0.5 7.61 0.6574 8.34 0.9722C9.07 1.2874 9.705 1.715 10.245 2.255C10.785 2.795 11.2124 3.43 11.5272 4.16C11.8424 4.89 12 5.67 12 6.5C12 7.33 11.8424 8.11 11.5272 8.84C11.2124 9.57 10.785 10.205 10.245 10.745C9.705 11.285 9.07 11.7124 8.34 12.0272C7.61 12.3424 6.83 12.5 6 12.5Z" fill="#FE613B"/>
</svg>
