<svg width="10" height="12" viewBox="0 0 10 12" fill="none" xmlns="http://www.w3.org/2000/svg">
<path d="M3.375 9L5 7.26667L6.625 9L7.5 8.06667L5.875 6.33333L7.5 4.6L6.625 3.66667L5 5.4L3.375 3.66667L2.5 4.6L4.125 6.33333L2.5 8.06667L3.375 9ZM1.875 12C1.53125 12 1.23708 11.8696 0.9925 11.6087C0.7475 11.3473 0.625 11.0333 0.625 10.6667V2H0V0.666667H3.125V0H6.875V0.666667H10V2H9.375V10.6667C9.375 11.0333 9.25271 11.3473 9.00813 11.6087C8.76313 11.8696 8.46875 12 8.125 12H1.875Z" fill="#D7FF3A"/>
</svg>
