<svg width="12" height="13" viewBox="0 0 12 13" fill="none" xmlns="http://www.w3.org/2000/svg">
<path d="M6.21 4.91C6.15 4.85 6.08 4.82 6 4.82C5.92 4.82 5.85 4.85 5.79 4.91L4.11 6.59C4.02 6.68 3.9976 6.7876 4.0428 6.9128C4.0876 7.0376 4.18 7.1 4.32 7.1L7.68 7.1C7.82 7.1 7.9124 7.0376 7.9572 6.9128C8.0024 6.7876 7.98 6.68 7.89 6.59L6.21 4.91ZM6 0.500001C6.83 0.5 7.61 0.6576 8.34 0.9728C9.07 1.2876 9.705 1.715 10.245 2.255C10.785 2.795 11.2124 3.43 11.5272 4.16C11.8424 4.89 12 5.67 12 6.5C12 7.33 11.8424 8.11 11.5272 8.84C11.2124 9.57 10.785 10.205 10.245 10.745C9.705 11.285 9.07 11.7126 8.34 12.0278C7.61 12.3426 6.83 12.5 6 12.5C5.17 12.5 4.39 12.3426 3.66 12.0278C2.93 11.7126 2.295 11.285 1.755 10.745C1.215 10.205 0.7876 9.57 0.472801 8.84C0.1576 8.11 5.01699e-07 7.33 4.29138e-07 6.5C3.56577e-07 5.67 0.1576 4.89 0.4728 4.16C0.7876 3.43 1.215 2.795 1.755 2.255C2.295 1.715 2.93 1.2876 3.66 0.9728C4.39 0.6576 5.17 0.500001 6 0.500001Z" fill="#D7FF3A"/>
</svg>
