<svg width="134" height="39" viewBox="0 0 134 39" fill="none" xmlns="http://www.w3.org/2000/svg">
<path d="M29.4764 0H13.767C11.6574 0 9.70591 1.12383 8.64808 2.95234L0.793374 16.5477C-0.264458 18.3762 -0.264458 20.6299 0.793374 22.4523L8.64808 36.0416C9.70591 37.8701 11.6574 38.9939 13.767 38.9939H29.4704C31.5799 38.9939 33.5315 37.8701 34.5893 36.0416L42.444 22.4523C43.5018 20.6238 43.5018 18.3701 42.444 16.5477L34.5954 2.95234C33.5375 1.12383 31.586 0 29.4764 0Z" fill="#D7FF3A"/>
<path d="M53.0122 26.1499V12.1325C53.0122 12.0259 53.1003 11.9378 53.207 11.9378H56.5054C56.6121 11.9378 56.7048 12.0305 56.7002 12.1371C56.6724 13.2311 56.4358 14.2833 55.9904 15.2984C55.777 15.7759 56.1111 16.3182 56.6353 16.3182C56.9646 16.3182 57.243 16.0911 57.3265 15.7759C57.6837 14.4224 58.18 13.4165 58.8063 12.7629C59.5161 12.0259 60.6016 11.655 62.0629 11.655C62.3691 11.655 62.5964 11.655 62.7448 11.6689C62.8469 11.6736 62.9257 11.757 62.9257 11.8636V15.6832C62.9257 15.7944 62.8283 15.8825 62.7123 15.8732C62.2299 15.8315 61.7753 15.8083 61.3392 15.8083C59.7991 15.8083 58.7089 16.1745 58.0687 16.9023C57.4239 17.63 57.1038 18.9372 57.1038 20.8192V26.1592C57.1038 26.2658 57.0157 26.3538 56.909 26.3538H53.1978C53.0911 26.3538 53.0029 26.2658 53.0029 26.1592L53.0122 26.1499Z" fill="white"/>
<path d="M63.8818 19.1134C63.8818 16.9069 64.573 15.0852 65.9601 13.6529C67.3425 12.2206 69.0821 11.5067 71.179 11.5067C73.2758 11.5067 75.0618 12.2159 76.3097 13.639C77.5576 15.0621 78.1839 16.893 78.1839 19.1412C78.1839 19.4749 78.1792 19.7392 78.1699 19.9431C78.1653 20.0451 78.0772 20.1239 77.9797 20.1239H68.1915C68.0801 20.1239 67.9873 20.2212 67.9966 20.3371C68.0801 21.4033 68.3909 22.2237 68.9337 22.7892C69.5089 23.3965 70.2697 23.6978 71.2114 23.6978C72.6588 23.6978 73.749 22.919 74.4819 21.3569C74.5237 21.2642 74.6304 21.2178 74.7232 21.2549L78.0215 22.525C78.1282 22.5667 78.1792 22.6873 78.1282 22.7892C77.6225 23.86 76.8432 24.7964 75.7901 25.5937C74.6953 26.4002 73.1645 26.8035 71.2068 26.8035C68.994 26.8035 67.2219 26.1082 65.8859 24.7129C64.5499 23.3223 63.8818 21.4543 63.8818 19.1087V19.1134ZM68.3538 17.2407H73.8974C74.0134 17.2407 74.1108 17.1341 74.0923 17.0182C73.8278 15.3031 72.8583 14.4455 71.1836 14.4455C70.3579 14.4455 69.6759 14.6866 69.1378 15.164C68.6461 15.6044 68.3214 16.2163 68.1683 17.0089C68.1451 17.1294 68.2379 17.2407 68.3585 17.2407H68.3538Z" fill="white"/>
<path d="M84.478 26.2194L79.0922 12.1973C79.0458 12.0722 79.1386 11.9377 79.2731 11.9377H83.1513C83.2348 11.9377 83.309 11.9887 83.3322 12.0675L85.276 17.8432C85.6795 19.0531 85.9208 20.0033 85.995 20.694C86.1063 21.3939 86.1759 22.2237 86.2084 23.1786C86.2223 23.5587 86.5378 23.8646 86.9182 23.8646H87.0527C87.4377 23.8646 87.7578 23.554 87.7671 23.1693C87.7949 22.08 87.846 21.2085 87.9295 20.5503C88.0454 19.7994 88.2635 18.9001 88.5928 17.8432L90.4531 12.0722C90.4809 11.9934 90.5505 11.9377 90.6386 11.9377H94.4055C94.54 11.9377 94.6328 12.0722 94.5864 12.1973L89.4789 26.2194C89.451 26.2935 89.3768 26.3445 89.298 26.3445H84.6636C84.5847 26.3445 84.5105 26.2935 84.4827 26.2194H84.478Z" fill="white"/>
<path d="M96.8643 9.78695V6.31041C96.8643 6.20379 96.9524 6.11572 97.0591 6.11572H101.025C101.132 6.11572 101.22 6.20379 101.22 6.31041V9.78695C101.22 9.89356 101.132 9.98164 101.025 9.98164H97.0591C96.9524 9.98164 96.8643 9.89356 96.8643 9.78695ZM97.0081 26.1499V12.1325C97.0081 12.0258 97.0962 11.9378 97.2029 11.9378H100.909C101.016 11.9378 101.104 12.0258 101.104 12.1325V26.1545C101.104 26.2611 101.016 26.3492 100.909 26.3492H97.2029C97.0962 26.3492 97.0081 26.2611 97.0081 26.1545V26.1499Z" fill="white"/>
<path d="M103.99 22.5714L107.344 21.5052C107.447 21.4728 107.553 21.5331 107.586 21.635C107.72 22.0939 107.985 22.5667 108.374 23.0581C108.796 23.5958 109.613 23.8647 110.824 23.8647C111.496 23.8647 112.03 23.7302 112.424 23.4614C112.818 23.1925 113.013 22.8449 113.013 22.423C113.013 22.0012 112.879 21.6999 112.61 21.4589C112.341 21.2179 111.877 21.0324 111.227 20.898L109.181 20.4947C107.511 20.1703 106.291 19.6789 105.535 19.0253C105.108 18.6591 104.798 18.1817 104.612 17.5976C104 15.6878 105.034 13.194 106.82 12.2808C107.832 11.7663 109.089 11.5067 110.592 11.5067C112.095 11.5067 113.477 11.8358 114.526 12.4848C115.504 13.092 116.191 13.8105 116.59 14.6402C116.636 14.7376 116.59 14.8581 116.493 14.8998L113.482 16.2626C113.384 16.309 113.268 16.258 113.227 16.156C112.707 14.9369 111.761 14.325 110.388 14.325C109.734 14.325 109.228 14.4502 108.875 14.7005C108.518 14.9508 108.342 15.2846 108.342 15.7064C108.342 16.1282 108.481 16.411 108.759 16.6149C109.038 16.8189 109.562 16.9857 110.332 17.1202L112.322 17.4956C115.63 18.1307 117.281 19.6279 117.281 21.992C117.281 23.4521 116.687 24.611 115.495 25.4639C114.303 26.3168 112.67 26.7479 110.592 26.7479C108.88 26.7479 107.395 26.3724 106.138 25.6261C104.941 24.9123 104.181 23.9759 103.865 22.8124C103.837 22.7104 103.898 22.6085 103.995 22.576L103.99 22.5714Z" fill="white"/>
<path d="M119.211 19.1134C119.211 16.9069 119.902 15.0852 121.289 13.6529C122.672 12.2206 124.411 11.5067 126.508 11.5067C128.605 11.5067 130.391 12.2159 131.639 13.639C132.887 15.0621 133.513 16.893 133.513 19.1412C133.513 19.4749 133.508 19.7392 133.499 19.9431C133.494 20.0451 133.406 20.1239 133.309 20.1239H123.521C123.409 20.1239 123.316 20.2212 123.326 20.3371C123.409 21.4033 123.72 22.2237 124.263 22.7892C124.838 23.3965 125.599 23.6978 126.541 23.6978C127.988 23.6978 129.078 22.919 129.811 21.3569C129.853 21.2642 129.959 21.2178 130.052 21.2549L133.351 22.525C133.457 22.5667 133.508 22.6873 133.457 22.7892C132.952 23.86 132.172 24.7964 131.119 25.5937C130.024 26.4002 128.494 26.8035 126.536 26.8035C124.323 26.8035 122.551 26.1082 121.215 24.7129C119.879 23.3223 119.211 21.4543 119.211 19.1087V19.1134ZM123.683 17.2407H129.227C129.343 17.2407 129.44 17.1341 129.421 17.0182C129.157 15.3031 128.187 14.4455 126.513 14.4455C125.687 14.4455 125.005 14.6866 124.467 15.164C123.975 15.6044 123.65 16.2163 123.497 17.0089C123.474 17.1294 123.567 17.2407 123.688 17.2407H123.683Z" fill="white"/>
<path d="M15.4326 24.3294C16.6424 23.1205 17.834 21.9299 17.834 21.9299L18.1623 21.6018C18.5514 21.2131 18.5514 20.5813 18.1623 20.1986C17.4996 19.5364 16.9464 18.8196 16.5026 18.0785C15.7123 16.7603 15.2685 15.357 15.1955 14.0327C15.1955 14.0145 15.1955 13.6135 15.2928 13.0182C15.3171 12.8542 15.3536 12.6719 15.3961 12.4775C15.3536 12.6659 15.3171 12.8481 15.2928 13.0182C17.5908 12.836 20.2719 13.8687 22.3875 15.9827C22.7766 16.3654 23.4028 16.3654 23.7919 15.9827L24.2236 15.5514C24.2236 15.5514 24.2965 15.4785 24.412 15.3631L24.6187 15.1565C24.6917 15.0836 24.7768 14.9986 24.868 14.9075L26.473 13.3037C26.5702 13.2065 26.6614 13.1154 26.7526 13.0243L28.4731 11.3051C28.8622 10.9163 28.8622 10.2906 28.4731 9.90184C24.9835 6.41493 20.1199 5.41867 16.7701 7.25932C16.2169 7.56306 15.7062 7.9397 15.2502 8.3953C14.7091 8.93596 14.2836 9.54343 13.9674 10.2117C13.9674 10.2117 13.7911 10.649 13.6088 11.3233C14.3261 11.1289 15.0921 11.0318 15.8764 11.0378C16.0284 10.7037 16.2108 10.3696 16.4357 10.0598C16.5087 9.97474 16.5755 9.88362 16.6607 9.80465C17.0254 9.44016 17.4328 9.14857 17.8826 8.92381C20.2476 7.721 23.6338 8.37708 26.3392 10.643L23.0684 13.9112C21.1291 12.2528 18.8614 11.293 16.6911 11.0864C16.4175 11.0561 16.1439 11.0439 15.8764 11.0439C15.8764 11.05 15.8764 11.056 15.8703 11.0621C15.8703 11.0621 15.8703 11.05 15.8764 11.0439C15.0921 11.0439 14.3261 11.135 13.6088 11.3294C12.4597 11.6453 11.4201 12.2285 10.569 13.0789C7.34079 16.3107 8.01562 22.2336 12.0767 26.2976C12.4658 26.6803 13.092 26.6803 13.4811 26.2976L15.4387 24.3416L15.4326 24.3294ZM15.6028 11.7121C15.6271 11.6332 15.6575 11.5542 15.6879 11.4752C15.6575 11.5542 15.6332 11.6332 15.6028 11.7121ZM15.4204 12.3561C15.463 12.1799 15.5116 12.0037 15.5724 11.8154C15.5116 11.9976 15.463 12.1799 15.4204 12.3561ZM13.3595 12.4836C13.3473 12.5687 13.3352 12.6537 13.323 12.7388C13.323 12.7205 13.323 12.6962 13.323 12.678C13.3352 12.6112 13.3413 12.5504 13.3534 12.4836H13.3595ZM13.5844 11.3902C13.5601 11.4934 13.5297 11.6028 13.5054 11.7121C13.5297 11.5967 13.554 11.4934 13.5844 11.3902ZM13.4689 11.8822C13.4446 11.9976 13.4203 12.1191 13.4021 12.2406C13.4264 12.1191 13.4446 11.9976 13.4689 11.8822ZM11.9673 14.4761C11.9977 14.4458 12.0281 14.4154 12.0646 14.3911C12.4172 14.0509 12.8184 13.7775 13.2501 13.5649C13.2318 13.9355 13.2379 14.3121 13.2805 14.6888C13.2926 14.7617 13.2987 14.8406 13.3109 14.9075C13.4507 15.9705 13.7729 17.0397 14.2653 18.0846C14.7274 19.0565 15.3232 20.0042 16.0831 20.8729L15.8703 21.0855L12.8063 24.1472C10.107 20.9336 9.69356 16.7542 11.9673 14.4761Z" fill="#000111"/>
<path d="M30.8078 12.4593C30.4187 12.0766 29.7925 12.0766 29.4034 12.4593L24.7161 17.1429C24.3271 17.5317 24.3271 18.1635 24.7161 18.5462C25.3788 19.2083 25.932 19.9252 26.3758 20.6663C27.1662 21.9845 27.61 23.3878 27.6829 24.7121C27.6829 24.7242 27.6829 25.1312 27.5857 25.7266C27.5613 25.8906 27.5249 26.0728 27.4823 26.2672C27.5249 26.0789 27.5613 25.8967 27.5857 25.7266C25.2876 25.9088 22.6066 24.8761 20.4909 22.7621C20.1018 22.3794 19.4756 22.3794 19.0865 22.7621L18.6549 23.1934C18.6549 23.1934 18.5819 23.2663 18.4664 23.3817L18.3752 23.4728C18.2719 23.5761 18.1503 23.6976 18.0105 23.8373L17.9193 23.9284C17.8098 24.0378 17.6943 24.1532 17.5727 24.2747L16.7459 25.1009C16.673 25.1738 16.5939 25.2527 16.521 25.3256L14.3992 27.4457C14.0101 27.8345 14.0101 28.4602 14.3992 28.849C17.8889 32.3359 22.7525 33.3322 26.1023 31.4915C26.6555 31.1878 27.1662 30.8111 27.6221 30.3555C28.1632 29.8149 28.5888 29.2074 28.9049 28.5392C28.9049 28.5392 29.0812 28.1018 29.2636 27.4275C28.5462 27.6219 27.7802 27.7191 26.996 27.713C26.844 28.0471 26.6616 28.3812 26.4366 28.691C26.3637 28.7761 26.2968 28.8672 26.2117 28.9462C25.8469 29.3107 25.4396 29.6023 24.9897 29.827C22.6248 31.0298 19.2385 30.3738 16.5331 28.1079L19.8039 24.8396C21.7433 26.4981 24.0109 27.4579 26.1813 27.6644C26.4549 27.6948 26.7285 27.713 26.996 27.713C26.996 27.7069 26.996 27.7009 27.002 27.6948C27.002 27.6948 27.002 27.7069 26.996 27.713C27.7802 27.713 28.5462 27.6219 29.2636 27.4275C30.4126 27.1116 31.4522 26.5284 32.3034 25.678C35.5316 22.4462 34.8567 16.5233 30.7956 12.4593H30.8078ZM27.2756 27.0326C27.2513 27.1116 27.2209 27.1906 27.1905 27.2696C27.2209 27.1906 27.2452 27.1116 27.2756 27.0326ZM29.5189 26.2611C29.5311 26.1761 29.5433 26.0911 29.5554 26.006C29.5554 26.0242 29.5554 26.0485 29.5554 26.0668C29.5433 26.1336 29.5372 26.1943 29.525 26.2611H29.5189ZM29.294 27.3546C29.3183 27.2513 29.3487 27.142 29.373 27.0326C29.3487 27.1481 29.3244 27.2513 29.294 27.3546ZM30.9111 24.2686C30.9111 24.2686 30.8504 24.3294 30.8139 24.3537C30.4613 24.6939 30.06 24.9672 29.6284 25.1798C29.6466 24.8093 29.6405 24.4326 29.598 24.056C29.5858 23.9831 29.5797 23.9041 29.5676 23.8373C29.4277 22.7803 29.1055 21.7051 28.6131 20.6602C28.1511 19.6882 27.5553 18.7406 26.7953 17.8719L27.0081 17.6593L30.0722 14.5976C32.7715 17.8111 33.1849 21.9906 30.9111 24.2686Z" fill="#000111"/>
</svg>
